<svg width="379" height="332" viewBox="0 0 379 332" fill="none" xmlns="http://www.w3.org/2000/svg">
<path d="M7.04883 316.49V326H2.60156V300.406H12.3926C15.252 300.406 17.5195 301.15 19.1953 302.639C20.8828 304.127 21.7266 306.096 21.7266 308.545C21.7266 311.053 20.9004 313.004 19.248 314.398C17.6074 315.793 15.3047 316.49 12.3398 316.49H7.04883ZM7.04883 312.922H12.3926C13.9746 312.922 15.1816 312.553 16.0137 311.814C16.8457 311.064 17.2617 309.986 17.2617 308.58C17.2617 307.197 16.8398 306.096 15.9961 305.275C15.1523 304.443 13.9922 304.016 12.5156 303.992H7.04883V312.922ZM36.8262 320.041H26.9121L24.8379 326H20.2148L29.8828 300.406H33.873L43.5586 326H38.918L36.8262 320.041ZM28.1602 316.455H35.5781L31.8691 305.838L28.1602 316.455ZM65.707 322.678C64.7812 323.885 63.498 324.799 61.8574 325.42C60.2168 326.041 58.3535 326.352 56.2676 326.352C54.123 326.352 52.2246 325.865 50.5723 324.893C48.9199 323.92 47.6426 322.531 46.7402 320.727C45.8496 318.91 45.3867 316.795 45.3516 314.381V312.377C45.3516 308.51 46.2773 305.492 48.1289 303.324C49.9805 301.145 52.5645 300.055 55.8809 300.055C58.7285 300.055 60.9902 300.758 62.666 302.164C64.3418 303.57 65.3496 305.598 65.6895 308.246H61.3301C60.8379 305.164 59.0508 303.623 55.9688 303.623C53.9766 303.623 52.459 304.344 51.416 305.785C50.3848 307.215 49.8516 309.318 49.8164 312.096V314.064C49.8164 316.83 50.3965 318.98 51.5566 320.516C52.7285 322.039 54.3516 322.801 56.4258 322.801C58.6992 322.801 60.3164 322.285 61.2773 321.254V316.244H56.0039V312.869H65.707V322.678ZM85.5527 314.574H75.041V322.449H87.3281V326H70.5938V300.406H87.2051V303.992H75.041V311.059H85.5527V314.574ZM120.217 326H115.77L104.361 307.842V326H99.9141V300.406H104.361L115.805 318.635V300.406H120.217V326ZM145.898 313.871C145.898 316.379 145.465 318.582 144.598 320.48C143.73 322.367 142.488 323.82 140.871 324.84C139.266 325.848 137.414 326.352 135.316 326.352C133.242 326.352 131.391 325.848 129.762 324.84C128.145 323.82 126.891 322.373 126 320.498C125.121 318.623 124.676 316.461 124.664 314.012V312.57C124.664 310.074 125.104 307.871 125.982 305.961C126.873 304.051 128.121 302.592 129.727 301.584C131.344 300.564 133.195 300.055 135.281 300.055C137.367 300.055 139.213 300.559 140.818 301.566C142.436 302.562 143.684 304.004 144.562 305.891C145.441 307.766 145.887 309.951 145.898 312.447V313.871ZM141.451 312.535C141.451 309.699 140.912 307.525 139.834 306.014C138.768 304.502 137.25 303.746 135.281 303.746C133.359 303.746 131.854 304.502 130.764 306.014C129.686 307.514 129.135 309.641 129.111 312.395V313.871C129.111 316.684 129.656 318.857 130.746 320.393C131.848 321.928 133.371 322.695 135.316 322.695C137.285 322.695 138.797 321.945 139.852 320.445C140.918 318.945 141.451 316.754 141.451 313.871V312.535ZM167.309 303.992H159.328V326H154.916V303.992H147.006V300.406H167.309V303.992ZM193.342 315.154H183.041V326H178.594V300.406H194.854V303.992H183.041V311.604H193.342V315.154ZM218.812 313.871C218.812 316.379 218.379 318.582 217.512 320.48C216.645 322.367 215.402 323.82 213.785 324.84C212.18 325.848 210.328 326.352 208.23 326.352C206.156 326.352 204.305 325.848 202.676 324.84C201.059 323.82 199.805 322.373 198.914 320.498C198.035 318.623 197.59 316.461 197.578 314.012V312.57C197.578 310.074 198.018 307.871 198.896 305.961C199.787 304.051 201.035 302.592 202.641 301.584C204.258 300.564 206.109 300.055 208.195 300.055C210.281 300.055 212.127 300.559 213.732 301.566C215.35 302.562 216.598 304.004 217.477 305.891C218.355 307.766 218.801 309.951 218.812 312.447V313.871ZM214.365 312.535C214.365 309.699 213.826 307.525 212.748 306.014C211.682 304.502 210.164 303.746 208.195 303.746C206.273 303.746 204.768 304.502 203.678 306.014C202.6 307.514 202.049 309.641 202.025 312.395V313.871C202.025 316.684 202.57 318.857 203.66 320.393C204.762 321.928 206.285 322.695 208.23 322.695C210.199 322.695 211.711 321.945 212.766 320.445C213.832 318.945 214.365 316.754 214.365 313.871V312.535ZM241.963 300.406V317.51C241.963 320.229 241.09 322.385 239.344 323.979C237.609 325.561 235.295 326.352 232.4 326.352C229.471 326.352 227.145 325.572 225.422 324.014C223.699 322.443 222.838 320.27 222.838 317.492V300.406H227.268V317.527C227.268 319.238 227.701 320.545 228.568 321.447C229.436 322.35 230.713 322.801 232.4 322.801C235.822 322.801 237.533 320.996 237.533 317.387V300.406H241.963ZM267.029 326H262.582L251.174 307.842V326H246.727V300.406H251.174L262.617 318.635V300.406H267.029V326ZM272.285 326V300.406H279.844C282.105 300.406 284.109 300.91 285.855 301.918C287.613 302.926 288.973 304.355 289.934 306.207C290.895 308.059 291.375 310.18 291.375 312.57V313.854C291.375 316.279 290.889 318.412 289.916 320.252C288.955 322.092 287.578 323.51 285.785 324.506C284.004 325.502 281.959 326 279.65 326H272.285ZM276.732 303.992V322.449H279.633C281.965 322.449 283.752 321.723 284.994 320.27C286.248 318.805 286.887 316.707 286.91 313.977V312.553C286.91 309.775 286.307 307.654 285.1 306.189C283.893 304.725 282.141 303.992 279.844 303.992H276.732Z" fill="black"/>
<path d="M7 235.6V216.4L77.2 123.6H101.6V215.6H121.4V235.6H101.6V266H78.6V235.6H7ZM80.2 150.8L30.6 215.6H80.2V150.8ZM137.353 194.4C137.353 216.933 141.353 234.6 149.353 247.4C157.353 260.067 170.686 266.4 189.353 266.4C208.02 266.4 221.353 260 229.353 247.2C237.353 234.4 241.353 216.8 241.353 194.4C241.353 172.133 237.353 154.667 229.353 142C221.353 129.2 208.02 122.8 189.353 122.8C170.686 122.8 157.353 129.133 149.353 141.8C141.353 154.467 137.353 172 137.353 194.4ZM218.553 194.4C218.553 210.667 216.553 223.133 212.553 231.8C208.553 240.467 200.82 244.8 189.353 244.8C177.753 244.8 169.953 240.467 165.953 231.8C161.953 223.133 159.953 210.667 159.953 194.4C159.953 178.267 161.953 165.933 165.953 157.4C169.953 148.867 177.753 144.6 189.353 144.6C200.82 144.6 208.553 148.933 212.553 157.6C216.553 166.133 218.553 178.4 218.553 194.4ZM258.563 235.6V216.4L328.763 123.6H353.163V215.6H372.963V235.6H353.163V266H330.163V235.6H258.563ZM331.763 150.8L282.163 215.6H331.763V150.8Z" fill="black"/>
<path d="M37.92 13.264C44.256 13.264 49.984 14.736 55.104 17.68C60.288 20.624 64.352 24.752 67.296 30.064C70.304 35.312 71.808 41.264 71.808 47.92C71.808 54.576 70.304 60.56 67.296 65.872C64.352 71.184 60.288 75.312 55.104 78.256C49.984 81.2 44.256 82.672 37.92 82.672C31.584 82.672 25.824 81.2 20.64 78.256C15.52 75.312 11.456 71.184 8.448 65.872C5.504 60.56 4.032 54.576 4.032 47.92C4.032 41.264 5.504 35.312 8.448 30.064C11.456 24.752 15.52 20.624 20.64 17.68C25.824 14.736 31.584 13.264 37.92 13.264ZM37.92 25.744C33.952 25.744 30.464 26.64 27.456 28.432C24.448 30.224 22.08 32.816 20.352 36.208C18.688 39.536 17.856 43.44 17.856 47.92C17.856 52.4 18.688 56.336 20.352 59.728C22.08 63.056 24.448 65.616 27.456 67.408C30.464 69.2 33.952 70.096 37.92 70.096C41.888 70.096 45.376 69.2 48.384 67.408C51.392 65.616 53.728 63.056 55.392 59.728C57.12 56.336 57.984 52.4 57.984 47.92C57.984 43.44 57.12 39.536 55.392 36.208C53.728 32.816 51.392 30.224 48.384 28.432C45.376 26.64 41.888 25.744 37.92 25.744ZM106.564 28.144C111.748 28.144 116.388 29.232 120.484 31.408C124.644 33.584 127.908 36.752 130.276 40.912C132.644 45.008 133.828 49.84 133.828 55.408C133.828 60.976 132.644 65.808 130.276 69.904C127.908 74 124.644 77.168 120.484 79.408C116.388 81.584 111.748 82.672 106.564 82.672C101.38 82.672 96.7078 81.584 92.5478 79.408C88.4518 77.168 85.2198 74 82.8518 69.904C80.4838 65.808 79.2998 60.976 79.2998 55.408C79.2998 49.84 80.4838 45.008 82.8518 40.912C85.2198 36.752 88.4518 33.584 92.5478 31.408C96.7078 29.232 101.38 28.144 106.564 28.144ZM106.564 39.856C102.788 39.856 99.5878 41.2 96.9638 43.888C94.3398 46.512 93.0278 50.352 93.0278 55.408C93.0278 60.464 94.3398 64.336 96.9638 67.024C99.5878 69.648 102.788 70.96 106.564 70.96C110.34 70.96 113.54 69.648 116.164 67.024C118.788 64.336 120.1 60.464 120.1 55.408C120.1 50.352 118.788 46.512 116.164 43.888C113.54 41.2 110.34 39.856 106.564 39.856ZM175.17 28.144C179.65 28.144 183.682 29.232 187.266 31.408C190.85 33.584 193.634 36.752 195.618 40.912C197.666 45.008 198.69 49.84 198.69 55.408C198.69 60.976 197.666 65.84 195.618 70C193.634 74.096 190.85 77.232 187.266 79.408C183.682 81.584 179.65 82.672 175.17 82.672C170.69 82.672 166.85 81.616 163.65 79.504C160.514 77.328 158.274 74.448 156.93 70.864V107.344H143.394V28.816H156.93V39.856C158.274 36.272 160.514 33.424 163.65 31.312C166.85 29.2 170.69 28.144 175.17 28.144ZM170.946 39.952C166.85 39.952 163.458 41.36 160.77 44.176C158.146 46.928 156.834 50.672 156.834 55.408C156.834 60.08 158.146 63.824 160.77 66.64C163.458 69.392 166.85 70.768 170.946 70.768C175.17 70.768 178.562 69.424 181.122 66.736C183.682 63.984 184.962 60.208 184.962 55.408C184.962 50.608 183.682 46.832 181.122 44.08C178.562 41.328 175.17 39.952 170.946 39.952ZM226.605 28.144C233.069 28.144 238.253 29.776 242.157 33.04C246.061 36.304 248.493 40.656 249.453 46.096H236.781C236.269 43.536 235.117 41.488 233.325 39.952C231.533 38.416 229.197 37.648 226.317 37.648C224.013 37.648 222.221 38.192 220.941 39.28C219.661 40.368 219.021 41.84 219.021 43.696C219.021 45.168 219.533 46.352 220.557 47.248C221.581 48.144 222.861 48.848 224.397 49.36C225.933 49.872 228.141 50.48 231.021 51.184C235.053 52.08 238.317 53.04 240.813 54.064C243.373 55.024 245.549 56.592 247.341 58.768C249.197 60.88 250.125 63.76 250.125 67.408C250.125 71.952 248.333 75.632 244.749 78.448C241.229 81.264 236.461 82.672 230.445 82.672C223.533 82.672 217.997 81.136 213.837 78.064C209.677 74.928 207.149 70.48 206.253 64.72H219.213C219.533 67.344 220.685 69.424 222.669 70.96C224.653 72.432 227.245 73.168 230.445 73.168C232.749 73.168 234.509 72.624 235.725 71.536C236.941 70.384 237.549 68.912 237.549 67.12C237.549 65.584 237.005 64.336 235.917 63.376C234.893 62.416 233.581 61.68 231.981 61.168C230.445 60.656 228.237 60.048 225.357 59.344C221.389 58.448 218.157 57.552 215.661 56.656C213.229 55.696 211.117 54.192 209.325 52.144C207.597 50.096 206.733 47.28 206.733 43.696C206.733 39.088 208.493 35.344 212.013 32.464C215.533 29.584 220.397 28.144 226.605 28.144ZM278.927 11.44L277.199 59.44H265.775L264.047 11.44H278.927ZM278.831 67.888V82H264.239V67.888H278.831Z" fill="black"/>
</svg>
