<svg width="863" height="566" viewBox="0 0 863 566" fill="none" xmlns="http://www.w3.org/2000/svg">
<path d="M491.049 469.49V479H486.602V453.406H496.393C499.252 453.406 501.52 454.15 503.195 455.639C504.883 457.127 505.727 459.096 505.727 461.545C505.727 464.053 504.9 466.004 503.248 467.398C501.607 468.793 499.305 469.49 496.34 469.49H491.049ZM491.049 465.922H496.393C497.975 465.922 499.182 465.553 500.014 464.814C500.846 464.064 501.262 462.986 501.262 461.58C501.262 460.197 500.84 459.096 499.996 458.275C499.152 457.443 497.992 457.016 496.516 456.992H491.049V465.922ZM520.826 473.041H510.912L508.838 479H504.215L513.883 453.406H517.873L527.559 479H522.918L520.826 473.041ZM512.16 469.455H519.578L515.869 458.838L512.16 469.455ZM549.707 475.678C548.781 476.885 547.498 477.799 545.857 478.42C544.217 479.041 542.354 479.352 540.268 479.352C538.123 479.352 536.225 478.865 534.572 477.893C532.92 476.92 531.643 475.531 530.74 473.727C529.85 471.91 529.387 469.795 529.352 467.381V465.377C529.352 461.51 530.277 458.492 532.129 456.324C533.98 454.145 536.564 453.055 539.881 453.055C542.729 453.055 544.99 453.758 546.666 455.164C548.342 456.57 549.35 458.598 549.689 461.246H545.33C544.838 458.164 543.051 456.623 539.969 456.623C537.977 456.623 536.459 457.344 535.416 458.785C534.385 460.215 533.852 462.318 533.816 465.096V467.064C533.816 469.83 534.396 471.98 535.557 473.516C536.729 475.039 538.352 475.801 540.426 475.801C542.699 475.801 544.316 475.285 545.277 474.254V469.244H540.004V465.869H549.707V475.678ZM569.553 467.574H559.041V475.449H571.328V479H554.594V453.406H571.205V456.992H559.041V464.059H569.553V467.574ZM604.217 479H599.77L588.361 460.842V479H583.914V453.406H588.361L599.805 471.635V453.406H604.217V479ZM629.898 466.871C629.898 469.379 629.465 471.582 628.598 473.48C627.73 475.367 626.488 476.82 624.871 477.84C623.266 478.848 621.414 479.352 619.316 479.352C617.242 479.352 615.391 478.848 613.762 477.84C612.145 476.82 610.891 475.373 610 473.498C609.121 471.623 608.676 469.461 608.664 467.012V465.57C608.664 463.074 609.104 460.871 609.982 458.961C610.873 457.051 612.121 455.592 613.727 454.584C615.344 453.564 617.195 453.055 619.281 453.055C621.367 453.055 623.213 453.559 624.818 454.566C626.436 455.562 627.684 457.004 628.562 458.891C629.441 460.766 629.887 462.951 629.898 465.447V466.871ZM625.451 465.535C625.451 462.699 624.912 460.525 623.834 459.014C622.768 457.502 621.25 456.746 619.281 456.746C617.359 456.746 615.854 457.502 614.764 459.014C613.686 460.514 613.135 462.641 613.111 465.395V466.871C613.111 469.684 613.656 471.857 614.746 473.393C615.848 474.928 617.371 475.695 619.316 475.695C621.285 475.695 622.797 474.945 623.852 473.445C624.918 471.945 625.451 469.754 625.451 466.871V465.535ZM651.309 456.992H643.328V479H638.916V456.992H631.006V453.406H651.309V456.992ZM677.342 468.154H667.041V479H662.594V453.406H678.854V456.992H667.041V464.604H677.342V468.154ZM702.812 466.871C702.812 469.379 702.379 471.582 701.512 473.48C700.645 475.367 699.402 476.82 697.785 477.84C696.18 478.848 694.328 479.352 692.23 479.352C690.156 479.352 688.305 478.848 686.676 477.84C685.059 476.82 683.805 475.373 682.914 473.498C682.035 471.623 681.59 469.461 681.578 467.012V465.57C681.578 463.074 682.018 460.871 682.896 458.961C683.787 457.051 685.035 455.592 686.641 454.584C688.258 453.564 690.109 453.055 692.195 453.055C694.281 453.055 696.127 453.559 697.732 454.566C699.35 455.562 700.598 457.004 701.477 458.891C702.355 460.766 702.801 462.951 702.812 465.447V466.871ZM698.365 465.535C698.365 462.699 697.826 460.525 696.748 459.014C695.682 457.502 694.164 456.746 692.195 456.746C690.273 456.746 688.768 457.502 687.678 459.014C686.6 460.514 686.049 462.641 686.025 465.395V466.871C686.025 469.684 686.57 471.857 687.66 473.393C688.762 474.928 690.285 475.695 692.23 475.695C694.199 475.695 695.711 474.945 696.766 473.445C697.832 471.945 698.365 469.754 698.365 466.871V465.535ZM725.963 453.406V470.51C725.963 473.229 725.09 475.385 723.344 476.979C721.609 478.561 719.295 479.352 716.4 479.352C713.471 479.352 711.145 478.572 709.422 477.014C707.699 475.443 706.838 473.27 706.838 470.492V453.406H711.268V470.527C711.268 472.238 711.701 473.545 712.568 474.447C713.436 475.35 714.713 475.801 716.4 475.801C719.822 475.801 721.533 473.996 721.533 470.387V453.406H725.963ZM751.029 479H746.582L735.174 460.842V479H730.727V453.406H735.174L746.617 471.635V453.406H751.029V479ZM756.285 479V453.406H763.844C766.105 453.406 768.109 453.91 769.855 454.918C771.613 455.926 772.973 457.355 773.934 459.207C774.895 461.059 775.375 463.18 775.375 465.57V466.854C775.375 469.279 774.889 471.412 773.916 473.252C772.955 475.092 771.578 476.51 769.785 477.506C768.004 478.502 765.959 479 763.65 479H756.285ZM760.732 456.992V475.449H763.633C765.965 475.449 767.752 474.723 768.994 473.27C770.248 471.805 770.887 469.707 770.91 466.977V465.553C770.91 462.775 770.307 460.654 769.1 459.189C767.893 457.725 766.141 456.992 763.844 456.992H760.732Z" fill="black"/>
<path d="M491 388.6V369.4L561.2 276.6H585.6V368.6H605.4V388.6H585.6V419H562.6V388.6H491ZM564.2 303.8L514.6 368.6H564.2V303.8ZM621.353 347.4C621.353 369.933 625.353 387.6 633.353 400.4C641.353 413.067 654.686 419.4 673.353 419.4C692.02 419.4 705.353 413 713.353 400.2C721.353 387.4 725.353 369.8 725.353 347.4C725.353 325.133 721.353 307.667 713.353 295C705.353 282.2 692.02 275.8 673.353 275.8C654.686 275.8 641.353 282.133 633.353 294.8C625.353 307.467 621.353 325 621.353 347.4ZM702.553 347.4C702.553 363.667 700.553 376.133 696.553 384.8C692.553 393.467 684.82 397.8 673.353 397.8C661.753 397.8 653.953 393.467 649.953 384.8C645.953 376.133 643.953 363.667 643.953 347.4C643.953 331.267 645.953 318.933 649.953 310.4C653.953 301.867 661.753 297.6 673.353 297.6C684.82 297.6 692.553 301.933 696.553 310.6C700.553 319.133 702.553 331.4 702.553 347.4ZM742.563 388.6V369.4L812.763 276.6H837.163V368.6H856.963V388.6H837.163V419H814.163V388.6H742.563ZM815.763 303.8L766.163 368.6H815.763V303.8Z" fill="black"/>
<path d="M521.92 166.264C528.256 166.264 533.984 167.736 539.104 170.68C544.288 173.624 548.352 177.752 551.296 183.064C554.304 188.312 555.808 194.264 555.808 200.92C555.808 207.576 554.304 213.56 551.296 218.872C548.352 224.184 544.288 228.312 539.104 231.256C533.984 234.2 528.256 235.672 521.92 235.672C515.584 235.672 509.824 234.2 504.64 231.256C499.52 228.312 495.456 224.184 492.448 218.872C489.504 213.56 488.032 207.576 488.032 200.92C488.032 194.264 489.504 188.312 492.448 183.064C495.456 177.752 499.52 173.624 504.64 170.68C509.824 167.736 515.584 166.264 521.92 166.264ZM521.92 178.744C517.952 178.744 514.464 179.64 511.456 181.432C508.448 183.224 506.08 185.816 504.352 189.208C502.688 192.536 501.856 196.44 501.856 200.92C501.856 205.4 502.688 209.336 504.352 212.728C506.08 216.056 508.448 218.616 511.456 220.408C514.464 222.2 517.952 223.096 521.92 223.096C525.888 223.096 529.376 222.2 532.384 220.408C535.392 218.616 537.728 216.056 539.392 212.728C541.12 209.336 541.984 205.4 541.984 200.92C541.984 196.44 541.12 192.536 539.392 189.208C537.728 185.816 535.392 183.224 532.384 181.432C529.376 179.64 525.888 178.744 521.92 178.744ZM590.564 181.144C595.748 181.144 600.388 182.232 604.484 184.408C608.644 186.584 611.908 189.752 614.276 193.912C616.644 198.008 617.828 202.84 617.828 208.408C617.828 213.976 616.644 218.808 614.276 222.904C611.908 227 608.644 230.168 604.484 232.408C600.388 234.584 595.748 235.672 590.564 235.672C585.38 235.672 580.708 234.584 576.548 232.408C572.452 230.168 569.22 227 566.852 222.904C564.484 218.808 563.3 213.976 563.3 208.408C563.3 202.84 564.484 198.008 566.852 193.912C569.22 189.752 572.452 186.584 576.548 184.408C580.708 182.232 585.38 181.144 590.564 181.144ZM590.564 192.856C586.788 192.856 583.588 194.2 580.964 196.888C578.34 199.512 577.028 203.352 577.028 208.408C577.028 213.464 578.34 217.336 580.964 220.024C583.588 222.648 586.788 223.96 590.564 223.96C594.34 223.96 597.54 222.648 600.164 220.024C602.788 217.336 604.1 213.464 604.1 208.408C604.1 203.352 602.788 199.512 600.164 196.888C597.54 194.2 594.34 192.856 590.564 192.856ZM659.17 181.144C663.65 181.144 667.682 182.232 671.266 184.408C674.85 186.584 677.634 189.752 679.618 193.912C681.666 198.008 682.69 202.84 682.69 208.408C682.69 213.976 681.666 218.84 679.618 223C677.634 227.096 674.85 230.232 671.266 232.408C667.682 234.584 663.65 235.672 659.17 235.672C654.69 235.672 650.85 234.616 647.65 232.504C644.514 230.328 642.274 227.448 640.93 223.864V260.344H627.394V181.816H640.93V192.856C642.274 189.272 644.514 186.424 647.65 184.312C650.85 182.2 654.69 181.144 659.17 181.144ZM654.946 192.952C650.85 192.952 647.458 194.36 644.77 197.176C642.146 199.928 640.834 203.672 640.834 208.408C640.834 213.08 642.146 216.824 644.77 219.64C647.458 222.392 650.85 223.768 654.946 223.768C659.17 223.768 662.562 222.424 665.122 219.736C667.682 216.984 668.962 213.208 668.962 208.408C668.962 203.608 667.682 199.832 665.122 197.08C662.562 194.328 659.17 192.952 654.946 192.952ZM710.605 181.144C717.069 181.144 722.253 182.776 726.157 186.04C730.061 189.304 732.493 193.656 733.453 199.096H720.781C720.269 196.536 719.117 194.488 717.325 192.952C715.533 191.416 713.197 190.648 710.317 190.648C708.013 190.648 706.221 191.192 704.941 192.28C703.661 193.368 703.021 194.84 703.021 196.696C703.021 198.168 703.533 199.352 704.557 200.248C705.581 201.144 706.861 201.848 708.397 202.36C709.933 202.872 712.141 203.48 715.021 204.184C719.053 205.08 722.317 206.04 724.813 207.064C727.373 208.024 729.549 209.592 731.341 211.768C733.197 213.88 734.125 216.76 734.125 220.408C734.125 224.952 732.333 228.632 728.749 231.448C725.229 234.264 720.461 235.672 714.445 235.672C707.533 235.672 701.997 234.136 697.837 231.064C693.677 227.928 691.149 223.48 690.253 217.72H703.213C703.533 220.344 704.685 222.424 706.669 223.96C708.653 225.432 711.245 226.168 714.445 226.168C716.749 226.168 718.509 225.624 719.725 224.536C720.941 223.384 721.549 221.912 721.549 220.12C721.549 218.584 721.005 217.336 719.917 216.376C718.893 215.416 717.581 214.68 715.981 214.168C714.445 213.656 712.237 213.048 709.357 212.344C705.389 211.448 702.157 210.552 699.661 209.656C697.229 208.696 695.117 207.192 693.325 205.144C691.597 203.096 690.733 200.28 690.733 196.696C690.733 192.088 692.493 188.344 696.013 185.464C699.533 182.584 704.397 181.144 710.605 181.144ZM762.927 164.44L761.199 212.44H749.775L748.047 164.44H762.927ZM762.831 220.888V235H748.239V220.888H762.831Z" fill="black"/>
<path d="M179.461 261.121C179.476 261.121 179.491 261.115 179.502 261.104C179.513 261.093 179.519 261.078 179.519 261.063C179.519 261.048 179.513 261.033 179.502 261.022C179.491 261.011 179.476 261.005 179.461 261.005C179.445 261.005 179.43 261.011 179.419 261.022C179.408 261.033 179.402 261.048 179.402 261.063C179.402 261.078 179.408 261.093 179.419 261.104C179.43 261.115 179.445 261.121 179.461 261.121Z" fill="#CDCBCB"/>
<path d="M224.04 177.314C228.99 174.988 234.891 177.826 236.721 178.71C267.492 193.61 251.139 271.38 280.127 290.224C280.878 290.712 281.148 297.831 286.92 300.832C304.212 309.788 309.209 308.032 317.304 313.51C331.264 322.921 332.484 325.863 337.704 341.031C342.397 354.687 360.956 339.391 369.661 347.603C375.034 352.663 377.38 362.015 374.353 368.238C371.585 373.902 366.235 373.112 344.438 382.196C334.912 386.162 334.455 386.93 325.997 390.117C323.521 391.059 315.356 394.095 304.223 397.096C295.448 399.438 286.555 401.325 277.581 402.749C265.85 404.645 256.84 405.331 249.684 405.843C239.443 406.599 231.818 406.739 220.954 406.937C208.707 407.158 202.255 407.262 194.829 407.018C177.032 406.413 164.456 404.075 145.029 400.376C114.692 394.56 109.835 391.199 106.996 386.476C102.186 378.427 103.477 366.702 107.817 364.69C112.862 362.364 121.039 373.903 124.476 371.669C127.221 369.936 122.658 362.224 122.47 349.732C122.411 346.51 122.177 331.26 131.515 320.815C135.632 316.162 139.844 314.534 145.592 311.847C148.49 310.498 176.34 297.366 190.84 283.931C202.325 273.3 206.853 261.179 210.455 251.525C224.368 214.338 211.299 183.316 224.04 177.314Z" fill="#CBC6C7"/>
<path d="M224.04 177.314C225.459 187.783 220.661 203.044 218.174 221.178C215.476 240.824 206.595 271.369 184.376 292.701C162.38 313.825 143.082 306.334 131.022 326.864C118.411 348.324 131.151 370.715 123.619 373.798C114.586 377.485 90.1147 347.754 83.0527 318.57C79.6497 304.519 76.1657 290.131 82.8057 279.999C84.1547 277.952 87.1817 274.184 86.4547 269.531C85.6687 264.494 81.2577 263.808 77.2337 258.062C70.5227 248.512 72.9277 236.45 73.2097 235.136C74.5467 228.866 76.8107 229.169 80.2487 219.677C82.2607 214.069 83.5647 208.236 84.1317 202.311C85.1167 193.006 81.7857 186.027 80.3537 176.896C77.6327 159.111 77.8437 151.143 77.8437 151.143C77.1157 148.444 73.4797 143.885 74.3237 138.069C74.8047 134.707 77.7847 127.961 81.4687 125.216C86.2317 121.668 98.3847 125.925 99.2767 126.216" fill="#726E6F"/>
<path d="M118.962 194.262C125.59 192.18 126.541 192.319 128.511 190.772C130.5 189.146 132.08 187.084 133.127 184.748C134.173 182.412 134.657 179.868 134.541 177.314C133.122 162.891 102.175 154.237 97.8457 159.867C96.7307 161.309 98.3147 162.461 98.8427 168.835C99.5817 177.593 96.9417 179.676 97.8457 187.783C98.3967 192.796 98.8777 197.088 101.87 198.74C104.603 200.24 106.867 198.054 118.962 194.262Z" fill="#F2D0D5" stroke="#F2D0D5" stroke-miterlimit="10"/>
<path d="M236.076 179.303C230.656 184.968 238.223 197.077 251.69 230.181C269.346 273.602 266.261 277.417 276.526 288.491C294.31 307.671 307.027 306.45 323.087 318.919C345.295 336.123 344.884 366.063 353.436 365.062C355.865 364.783 357.378 362.445 359.302 359.246C377.861 328.597 387.14 313.266 382.436 297.435C379.538 287.723 376.113 279.546 378.975 276.603C380.336 275.195 378.975 276.603 381.932 276.498C392.795 276.138 401.875 260.493 405.054 250.083C405.817 247.628 411.917 227.028 401.535 214.187C398.191 210.034 394.132 207.964 393.499 202.718C392.877 197.682 396.056 194.936 398.52 189.26C402.168 180.885 398.942 178.338 400.033 163.345C401.007 149.817 404.127 145.99 403.552 132.427C403.212 124.588 402.027 121.284 399.529 119.47C395.247 116.364 388.513 118.632 383.938 120.47C354.738 132.195 330.15 158.855 330.15 158.855C312.869 177.582 311.192 184.445 300.892 186.457C292.973 188.027 289.923 184.794 268.302 180.792C249.215 177.256 239.689 175.488 236.076 179.303Z" fill="#726E6F"/>
<path d="M335.652 198.74C337.083 208.383 365.367 216.851 374.869 207.22C375.937 206.138 376.582 204.672 377.884 201.741C380.078 196.786 381.779 190.993 382.917 175.814C383.902 162.6 383.07 160.948 381.908 159.867C377.826 156.052 369.379 158.983 366.822 159.867C357.331 163.147 350.808 172.894 338.162 192.261C336.344 195.064 335.347 196.681 335.652 198.74Z" fill="#F2D0D5" stroke="#F2D0D5" stroke-miterlimit="10"/>
<path d="M276.901 360.142C276.713 360.142 276.502 360.235 276.737 360.142H276.819H276.901Z" fill="#60219F"/>
<path d="M275.493 364.248C275.455 364.176 275.411 364.106 275.364 364.039L275.493 364.248Z" fill="#60219F"/>
<path d="M259.984 346.8L259.926 346.707L259.984 346.8Z" fill="#60219F"/>
<path d="M277.652 365.272H277.394C277.477 365.299 277.568 365.299 277.652 365.272Z" fill="#60219F"/>
<path d="M280.068 362.864C280.068 362.864 280.068 362.794 280.068 362.678C280.068 362.562 280.068 362.736 280.068 362.771C280.063 362.802 280.063 362.833 280.068 362.864Z" fill="#60219F"/>
<path d="M264.923 345.347C264.923 345.23 264.982 345.126 264.923 345.079C264.937 345.168 264.937 345.258 264.923 345.347Z" fill="#60219F"/>
<path d="M259.726 346.452L259.89 346.696C259.797 346.51 259.738 346.452 259.726 346.452Z" fill="#60219F"/>
<path d="M275.036 361.049C274.927 361.305 274.84 361.57 274.778 361.84C274.778 361.933 274.778 362.026 274.778 362.108C274.778 362.189 274.778 362.364 274.778 362.492C274.821 362.741 274.883 362.986 274.965 363.225C274.97 363.244 274.97 363.264 274.965 363.283L275.094 363.527C275.172 363.672 275.258 363.811 275.352 363.946C275.352 363.853 275.352 363.853 275.505 364.178L275.751 364.446L276.045 364.713L276.655 365.074L276.995 365.179H277.089C277.558 365.179 277.323 365.179 277.089 365.179H276.913H277.288H277.358C277.358 365.179 277.452 365.179 277.699 365.179L278.109 365.074L278.344 364.946C278.485 364.888 278.619 364.814 278.743 364.725L278.966 364.527C279.095 364.411 279.212 364.283 279.318 364.167L279.47 363.934C279.567 363.805 279.653 363.669 279.728 363.527C279.67 363.608 279.658 363.527 279.834 363.271C280.01 363.015 279.928 362.969 279.975 362.817C279.968 362.728 279.968 362.639 279.975 362.55C279.975 362.41 279.975 362.271 279.975 362.131C279.934 362.034 279.906 361.933 279.892 361.829C279.878 361.75 279.859 361.672 279.834 361.596C279.803 361.532 279.768 361.469 279.728 361.41L279.611 361.212L279.177 360.782L278.919 360.607C278.778 360.526 278.637 360.445 278.485 360.375L278.18 360.27L277.593 360.119H276.795H276.561C276.326 360.119 276.115 360.258 275.892 360.328C275.6 360.421 275.295 360.468 274.989 360.468C275.037 360.658 275.053 360.854 275.036 361.049Z" fill="white"/>
<path d="M264.841 345.637V345.765L264.912 345.626L264.841 345.637Z" fill="#60219F"/>
<path d="M264.912 345.416C264.912 345.323 264.912 345.242 264.912 345.149C264.912 345.056 264.912 344.893 264.912 344.765C264.912 344.637 264.829 344.451 264.783 344.311C264.788 344.277 264.788 344.241 264.783 344.207C264.712 344.079 264.653 343.939 264.571 343.811C264.489 343.683 264.419 343.567 264.337 343.439L263.914 343.009L263.668 342.788H263.574L263.164 342.543H263.07C262.96 342.494 262.846 342.455 262.73 342.427C262.671 342.427 262.389 342.369 262.26 342.322H261.826L261.427 342.439L261.04 342.648L260.935 342.729L260.641 343.009L260.512 343.171L260.418 343.299C260.294 343.498 260.18 343.704 260.078 343.916C260.078 343.916 260.078 343.916 260.078 343.974C260.078 344.032 259.996 344.242 259.961 344.369L259.902 344.474C259.902 344.672 259.902 345.207 259.902 345.312V345.521C259.964 345.906 259.964 346.299 259.902 346.684L259.973 346.766C260.069 346.868 260.17 346.965 260.278 347.056L260.653 347.266L260.829 347.37H260.97C261.093 347.412 261.218 347.447 261.345 347.475H262.12L262.87 347.289L263.128 347.196L263.269 347.115C263.491 346.994 263.706 346.862 263.914 346.719L264.266 346.382C264.327 346.325 264.382 346.263 264.431 346.196L264.677 345.777C264.671 345.731 264.671 345.684 264.677 345.637L264.912 345.416Z" fill="white"/>
<path d="M278.004 365.225L278.168 365.132L278.004 365.225Z" fill="#60219F"/>
<path d="M280.115 362.085C280.115 361.899 280.033 361.782 280.033 361.864L280.115 362.154V362.085Z" fill="#60219F"/>
<path d="M279.294 360.759C279.177 360.654 279.024 360.584 279.083 360.631L279.177 360.689L279.294 360.759Z" fill="#60219F"/>
<path d="M280.15 362.271C280.145 362.232 280.145 362.193 280.15 362.154C280.145 362.193 280.145 362.232 280.15 362.271Z" fill="#60219F"/>
<path d="M279.447 360.898L279.294 360.794L279.447 360.898Z" fill="#60219F"/>
<path d="M278.766 360.444L278.59 360.386L278.766 360.444Z" fill="#60219F"/>
<path d="M279.552 363.981L279.411 364.202C279.505 364.085 279.599 363.923 279.552 363.981Z" fill="#60219F"/>
<path d="M279.4 364.248L279.329 364.364L279.411 364.236L279.4 364.248Z" fill="#60219F"/>
<path d="M278.379 365.016L278.168 365.132C278.297 365.086 278.426 365.004 278.379 365.016Z" fill="#60219F"/>
<path d="M279.986 363.236L279.928 363.318L279.986 363.236Z" fill="#60219F"/>
<path d="M280.162 362.399C280.162 362.48 280.162 362.538 280.162 362.596C280.168 362.623 280.168 362.651 280.162 362.678C280.127 362.585 280.139 362.492 280.162 362.399Z" fill="#60219F"/>
<path d="M279.916 363.376L279.822 363.585C279.861 363.519 279.892 363.449 279.916 363.376Z" fill="#60219F"/>
<path d="M370.048 436.865L370.118 436.691L370.048 436.865Z" fill="#60219F"/>
<path d="M371.186 439.738L371.362 439.54L371.127 439.785L371.186 439.738Z" fill="#60219F"/>
<path d="M370.529 440.285L370.705 440.134L370.564 440.203L370.529 440.285Z" fill="#60219F"/>
<path d="M259.902 347.324C259.907 347.274 259.907 347.223 259.902 347.173V347.324Z" fill="#60219F"/>
<path d="M375.139 429.63L374.541 430.084L375.139 429.63Z" fill="#60219F"/>
<path d="M278.59 360.386C278.449 360.317 278.274 360.27 278.356 360.317H278.473L278.59 360.386Z" fill="#60219F"/>
<path d="M260.77 342.66C260.77 342.66 260.876 342.59 260.97 342.508C260.895 342.547 260.827 342.598 260.77 342.66Z" fill="#60219F"/>
<path d="M262.835 342.276L263.011 342.357C262.962 342.314 262.901 342.285 262.835 342.276Z" fill="#60219F"/>
<path d="M362.211 41.6767C323.416 14.8297 282.192 8.31665 250.201 8.31665C233.814 8.42165 217.47 9.97864 201.363 12.9686C181.748 16.3306 129.661 25.2636 81.1287 68.5806C64.3637 83.5506 25.0997 118.597 12.1597 179.606C9.43774 192.401 -2.21126 259.272 35.0477 319.478C53.8177 349.72 76.4947 369.68 100.004 382.777C100.145 382.417 100.309 382.045 100.45 381.614C101.505 378.756 102.198 375.779 102.515 372.751C103.088 367.121 102.391 361.435 100.474 356.106C91.3847 344.288 85.2287 330.516 82.5047 315.902C79.7797 301.288 80.5617 286.243 84.7887 271.985C82.8547 270.784 81.1347 269.275 79.6967 267.519C78.1657 265.814 76.7797 263.985 75.5557 262.052C71.1987 255.207 69.1447 247.167 69.6907 239.091C69.9797 235.476 70.7698 231.918 72.0368 228.517C71.6488 228.147 71.4007 227.657 71.3347 227.127C71.2687 226.598 71.3877 226.062 71.6727 225.609C80.3887 210.791 79.8847 193.099 77.0457 176.756C75.6497 168.695 73.7967 160.716 72.3537 152.667C70.9337 144.873 69.6317 136.685 73.1397 129.24C74.6027 125.999 77.0947 123.32 80.2347 121.613C83.3757 119.906 86.9938 119.263 90.5368 119.784C97.7748 120.703 104.615 124.541 111.008 127.926C123.415 134.588 134.911 142.797 145.217 152.353C150.275 157.043 155.028 162.047 159.447 167.334C163.897 172.566 167.944 178.122 171.554 183.956C173.689 183.037 175.847 182.165 178.029 181.362C187.299 178.055 196.931 175.849 206.724 174.79C227.146 172.475 247.802 173.196 268.009 176.93C277.312 178.433 286.423 180.937 295.178 184.398C296.621 185.003 298.053 185.643 299.46 186.306C310.326 174.005 322.089 162.513 334.654 151.922C346.716 141.755 359.458 132.409 372.793 123.948C376.089 121.854 379.398 119.714 382.835 117.853C386.272 115.992 390.296 114.305 394.343 114.433C401.675 114.643 406.204 120.365 407.177 127.147C407.588 130.234 407.612 133.359 407.248 136.452C406.779 140.814 406.251 145.164 405.746 149.514L402.72 176.047C401.476 186.945 400.373 197.856 399.071 208.755C399.584 208.686 400.106 208.766 400.573 208.988C402.379 209.906 403.353 211.768 404.292 213.489C405.203 215.205 406.014 216.972 406.72 218.782C408.069 222.224 409.006 225.812 409.512 229.471C410.489 235.934 410.127 242.526 408.449 248.846C406.771 255.165 403.811 261.08 399.752 266.227C394.69 272.522 388.165 277.507 380.735 280.755L380.805 280.849C384.536 285.99 385.686 293.294 385.639 299.459C385.557 311.51 381.157 323.095 376.347 333.994C375.315 336.32 374.224 338.647 373.086 340.973C373.288 341.245 373.436 341.553 373.52 341.88C375.163 348.324 376.735 354.78 378.307 361.236C388.311 353.517 397.472 344.78 405.641 335.169C425.545 311.474 439.521 283.452 446.43 253.386C458.08 199.88 442.16 156.168 436.166 139.721C420.985 98.1367 396.115 65.1487 362.211 41.6767Z" fill="#60219F"/>
<path d="M380.618 397.317C363.524 407.238 345.464 415.421 326.712 421.744C308.139 428.035 289 432.541 269.557 435.202C265.932 435.69 262.284 436.109 258.647 436.481C258.318 445.065 257.963 453.654 257.579 462.246C256.891 477.902 256.191 493.558 255.48 509.215L254.388 532.408C254.025 540.306 253.99 548.309 253.215 556.184C253.187 556.464 253.128 556.741 253.039 557.009C259.343 556.676 265.619 556.145 271.868 555.416C298.517 552.16 324.667 545.699 349.741 536.177C373.309 527.264 395.996 516.209 417.513 503.154C415.46 493.337 413.489 483.52 411.072 473.773C406.527 455.476 401.025 437.427 394.59 419.697C391.555 411.329 388.298 403.048 384.817 394.851C383.421 395.654 382.025 396.491 380.618 397.317ZM375.655 429.304C375.327 429.642 374.998 429.979 374.658 430.305C374.897 430.811 375.093 431.336 375.245 431.875C375.685 433.863 375.492 435.937 374.694 437.812C373.895 439.687 372.53 441.27 370.787 442.344C368.962 443.473 366.855 444.072 364.704 444.072C362.553 444.072 360.446 443.473 358.621 442.344C357.585 441.644 356.738 440.701 356.158 439.599L353.811 440.296L356.158 439.471C355.865 438.889 355.652 438.271 355.524 437.633C354.668 437.831 353.8 438.028 352.932 438.203C353.776 437.854 354.621 437.528 355.466 437.202C355.378 436.585 355.378 435.959 355.466 435.341C355.412 435.171 355.412 434.988 355.466 434.818C356.744 429.642 360.709 424.873 366.481 424.919C368.091 424.957 369.664 425.405 371.049 426.22C372.434 427.035 373.584 428.189 374.388 429.572C375.131 429.19 375.852 428.767 376.547 428.304C376.652 428.213 376.771 428.139 376.899 428.083C376.641 428.339 376.371 428.583 376.101 428.828C375.831 429.072 375.784 429.176 375.655 429.304Z" fill="#CDCBCB"/>
<path d="M234.563 414.8C232.216 414.8 229.588 414.951 226.644 415.056C220.684 415.265 213.575 415.521 205.61 415.521C178.217 415.521 140.548 412.485 103.782 394.316C103.127 398.028 102.253 401.698 101.166 405.308C102.515 405.925 103.852 406.553 105.213 407.146C122.95 414.895 141.42 420.876 160.35 425.001C179.243 429.141 198.492 431.478 217.834 431.98C237.112 432.494 256.396 431.221 275.434 428.176C294.631 425.086 313.487 420.187 331.745 413.543C349.386 407.096 366.342 398.938 382.366 389.187C381.087 386.279 379.796 383.371 378.483 380.486C377.485 378.253 376.371 376.054 375.315 373.833C355.126 387.697 332.715 398.071 309.033 404.517C275.294 413.997 245.707 414.579 234.563 414.8Z" fill="#663399"/>
<path d="M260.759 347.382H260.853L260.677 347.277C260.477 347.219 260.583 347.336 260.759 347.382Z" fill="#60219F"/>
<path d="M159.306 372.623L159.482 372.902L159.846 373.263C159.984 373.355 160.129 373.437 160.28 373.507C160.487 373.579 160.698 373.637 160.913 373.681H161.359L161.605 373.623L161.899 373.449L162.016 373.333C162.089 373.224 162.156 373.112 162.215 372.995C162.25 372.885 162.277 372.772 162.298 372.658C162.309 372.456 162.309 372.254 162.298 372.053C162.298 371.89 162.215 371.716 162.169 371.553C162.122 371.39 161.993 371.239 161.899 371.088L161.652 370.843L161.488 370.739H161.277H160.89L160.679 370.797C160.483 370.891 160.295 371 160.116 371.122C159.921 371.286 159.741 371.465 159.576 371.658C159.494 371.785 159.423 371.913 159.353 372.041L159.212 372.472C159.247 372.52 159.278 372.57 159.306 372.623Z" fill="white"/>
<path d="M180.939 352.419L180.798 352.279L180.481 352.093L180.141 352.011H179.578C179.382 352.048 179.189 352.103 179.003 352.174C178.885 352.227 178.771 352.29 178.663 352.36L178.323 352.698V352.837V353.163C178.355 353.301 178.394 353.437 178.44 353.57C178.522 353.732 178.617 353.887 178.721 354.035C178.838 354.175 178.968 354.303 179.109 354.419C179.23 354.5 179.355 354.574 179.484 354.64L179.777 354.722H179.977H180.2L180.411 354.605C180.528 354.489 180.657 354.373 180.774 354.245C180.892 354.117 180.927 353.977 180.997 353.849C181.059 353.666 181.11 353.48 181.15 353.291C181.15 353.198 181.15 353.093 181.15 353L181.044 352.616L180.939 352.419Z" fill="white"/>
<path d="M158.274 373.914L158.203 373.984C158.256 373.943 158.303 373.897 158.344 373.844L158.274 373.914Z" fill="#60219F"/>
<path d="M260.982 347.487L260.853 347.417L260.982 347.487Z" fill="#60219F"/>
<path d="M264.442 346.324L264.36 346.417C264.36 346.417 264.407 346.37 264.442 346.324Z" fill="#60219F"/>
<path d="M236.733 534.072C236.733 502.022 236.772 469.981 236.85 437.947C227.989 438.249 219.12 438.18 210.244 437.737C190.457 436.72 170.815 433.822 151.587 429.083C133.65 424.629 116.191 418.462 99.4527 410.67C99.1707 411.45 98.9017 412.229 98.6077 412.997C93.8567 425.873 87.8977 438.342 82.3717 450.893C79.5407 457.337 76.7017 463.769 73.8547 470.19L69.6317 479.693C68.6557 482.276 67.4257 484.758 65.9597 487.103C67.1917 488.44 68.4347 489.755 69.7137 491.057C86.5577 508.002 106.187 521.981 127.761 532.397C149.447 542.915 172.58 550.205 196.412 554.032C209.748 556.183 223.234 557.288 236.745 557.335C236.737 549.581 236.733 541.826 236.733 534.072Z" fill="#CDCBCB"/>
<path d="M262.847 347.417C262.93 347.395 263.009 347.359 263.081 347.312C262.952 347.359 262.812 347.417 262.847 347.417Z" fill="#60219F"/>
<path d="M242.493 437.668L242.634 462.664C242.821 494.21 242.935 525.751 242.974 557.289C244.452 557.289 245.919 557.23 247.397 557.184C247.261 556.847 247.19 556.488 247.186 556.125C247.186 551.682 247.549 547.227 247.749 542.795L248.382 529.454C249.849 498.618 251.268 467.806 252.993 436.958C249.497 437.253 245.997 437.489 242.493 437.668Z" fill="#848484"/>
<path d="M261.639 347.603C261.639 347.603 261.545 347.603 261.439 347.603C261.505 347.61 261.572 347.61 261.639 347.603Z" fill="#60219F"/>
<path d="M331.5 315.5C331.9 313.1 328.833 306.667 327.5 306L312 313C312 314.167 318.3 319.9 317.5 321.5C316.5 323.5 318 324 321 327.5C324 331 321 332.5 319.5 337C318 341.5 321 341 323 344C325 347 325 352.298 325 355.5C325 359.5 322 366 323 368C324 370 323 371.5 321 375.5C319.4 378.7 324 390.333 325 392L341 386C341 385.333 336.8 379.3 336 378.5C335 377.5 338.109 373.26 338.5 371.5C339.5 367 337.5 367 336 364C334.5 361 335 359.5 336 357C337 354.5 337 351 335 349C333 347 334.5 344.5 335 341.5C335.5 338.5 334 338 333 336C332 334 331.5 333 333 330.5C334.5 328 331.5 325.5 330.5 323C329.5 320.5 331 318.5 331.5 315.5Z" fill="#25C2E4" stroke="black"/>
<path d="M141.416 395.433C146.399 398.517 152.121 400.227 157.992 400.388C170.111 400.853 181.455 395.607 191.063 388.686C195.92 385.197 200.448 381.289 205 377.357C209.48 373.642 213.579 369.496 217.235 364.981C224.591 355.478 228.415 341.054 220.074 330.877C217.963 328.318 213.528 331.691 215.382 334.436C220.954 342.497 218.714 352.407 213.399 360.026C210.329 364.138 206.786 367.882 202.841 371.181C198.794 374.787 194.629 378.357 190.394 381.649C182.182 388.012 172.539 393.572 161.887 394.351C156.811 394.847 151.694 393.996 147.059 391.885C142.862 389.77 139.216 386.72 136.407 382.975C128.852 373.181 127.021 360.875 124.546 349.162C123.96 346.428 119.173 346.987 119.549 349.825C121.085 361.608 123.443 374.007 130.107 384.104C133.029 388.628 136.883 392.489 141.416 395.433Z" fill="black"/>
<path d="M324.823 349.383C324.014 347.973 322.876 346.776 321.503 345.893C319.849 344.73 317.175 346.661 317.984 348.603C318.793 350.546 319.967 352.605 320.635 354.722C321.27 356.757 321.54 358.887 321.433 361.014C321.174 365.47 319.689 369.771 317.139 373.449C311.368 382.021 300.516 385.592 290.709 387.046C285.197 387.823 279.626 388.119 274.062 387.93C268.111 387.86 262.209 386.863 256.571 384.976C247.854 381.783 240.713 375.385 236.627 367.11C234.373 362.757 232.968 358.021 232.486 353.151C232.141 348.098 232.668 343.024 234.046 338.147C234.68 335.669 230.879 333.831 229.694 336.332C225.365 345.544 226.28 357.025 230.023 366.272C233.882 375.845 241.003 384.255 250.482 388.733C262.213 394.305 276.127 394.712 288.867 393.258C300.399 391.955 312.975 388.256 320.541 378.893C324.421 374.123 326.795 368.325 327.369 362.224C327.633 359.368 327.375 356.487 326.607 353.721C326.188 352.21 325.589 350.754 324.823 349.383Z" fill="black"/>
<path d="M260.852 347.417L260.676 347.312L260.852 347.417Z" fill="black"/>
<path d="M258.06 338.053L257.908 338.17C257.334 338.215 256.795 338.458 256.383 338.856C255.058 340.239 254.241 342.023 254.063 343.921C253.884 345.82 254.354 347.723 255.397 349.325C256.46 350.995 258.148 352.179 260.09 352.616C262.092 352.994 264.164 352.673 265.956 351.709C267.728 350.765 269.089 349.209 269.78 347.336C270.127 346.304 270.244 345.21 270.122 344.13C270.001 343.049 269.644 342.008 269.076 341.078C266.941 337.379 261.791 335.436 258.06 338.053ZM263.011 342.357L262.835 342.276C262.9 342.285 262.962 342.314 263.011 342.357ZM260.97 342.508C260.876 342.59 260.782 342.671 260.77 342.66C260.827 342.598 260.895 342.547 260.97 342.508ZM259.797 347.347V347.196C259.839 347.241 259.874 347.292 259.902 347.347H259.797ZM261.38 347.568C261.486 347.568 261.592 347.568 261.58 347.568C261.533 347.572 261.486 347.572 261.439 347.568H261.38ZM262.788 347.417C262.788 347.417 262.894 347.417 263.023 347.312C262.969 347.354 262.91 347.39 262.847 347.417H262.788ZM264.301 346.417L264.384 346.324C264.384 346.324 264.372 346.417 264.36 346.417H264.301ZM264.7 345.8L264.454 346.219C264.406 346.286 264.351 346.348 264.29 346.405L263.938 346.742C263.73 346.885 263.514 347.017 263.293 347.138L263.152 347.219L262.894 347.312L262.143 347.498H261.369C261.242 347.47 261.116 347.435 260.993 347.394H260.852L260.982 347.463L260.852 347.394H260.759C260.583 347.394 260.477 347.231 260.677 347.324L260.301 347.115C260.194 347.024 260.092 346.927 259.996 346.824L259.926 346.742L259.984 346.835L259.89 346.707L259.726 346.463C259.726 346.463 259.797 346.463 259.89 346.696C259.952 346.31 259.952 345.918 259.89 345.533V345.323C259.89 345.219 259.89 344.683 259.89 344.486L259.961 344.195C259.961 344.067 260.043 343.939 260.078 343.799C260.113 343.66 260.078 343.799 260.078 343.741C260.18 343.53 260.294 343.324 260.418 343.125L260.512 342.997L260.641 342.834L260.935 342.555L261.04 342.473L261.427 342.264L261.826 342.148H262.248C262.378 342.148 262.659 342.229 262.718 342.252C262.835 342.281 262.948 342.32 263.058 342.369H263.152L263.562 342.613H263.656L263.903 342.834L264.325 343.264C264.407 343.392 264.489 343.509 264.56 343.637C264.63 343.765 264.7 343.904 264.771 344.032C264.776 344.067 264.776 344.102 264.771 344.137C264.771 344.276 264.865 344.439 264.9 344.59C264.935 344.742 264.9 344.846 264.9 344.974C264.9 345.102 264.9 345.149 264.9 345.242L264.829 345.44L264.759 345.579L264.7 345.8ZM264.865 345.346C264.878 345.258 264.878 345.168 264.865 345.079C264.865 345.079 264.958 345.23 264.923 345.346H264.865Z" fill="black"/>
<path d="M264.782 345.754V345.626C264.778 345.668 264.778 345.711 264.782 345.754Z" fill="black"/>
<path d="M280.115 362.166L280.033 361.875C280.048 361.975 280.075 362.073 280.115 362.166Z" fill="black"/>
<path d="M278.144 365.144L278.356 365.027L278.144 365.144Z" fill="black"/>
<path d="M275.364 363.981C275.411 364.048 275.454 364.118 275.493 364.19C275.329 363.888 275.317 363.888 275.364 363.981Z" fill="black"/>
<path d="M279.411 364.248L279.552 364.027L279.4 364.26L279.411 364.248Z" fill="black"/>
<path d="M280.068 362.864C280.063 362.833 280.063 362.802 280.068 362.771C280.068 362.771 280.068 362.713 280.068 362.678C280.074 362.651 280.074 362.623 280.068 362.596C280.062 362.686 280.062 362.775 280.068 362.864Z" fill="black"/>
<path d="M279.845 363.574L279.939 363.364C279.752 363.62 279.763 363.655 279.845 363.574Z" fill="black"/>
<path d="M278.884 370.18C280.252 369.867 281.519 369.213 282.563 368.281C283.607 367.349 284.396 366.17 284.855 364.853C285.329 363.558 285.419 362.155 285.114 360.81C284.808 359.466 284.12 358.237 283.13 357.269C282.151 356.359 280.97 355.687 279.684 355.308C278.397 354.928 277.038 354.851 275.716 355.082C275.314 355.146 274.92 355.255 274.543 355.408C273.81 355.673 273.187 356.172 272.772 356.827C272.496 357.21 272.315 357.653 272.244 358.118C271.91 358.163 271.591 358.287 271.316 358.479C271.04 358.671 270.815 358.927 270.66 359.223C270.077 360.447 269.828 361.802 269.939 363.152C270.05 364.501 270.517 365.798 271.293 366.912C272.1 368.131 273.248 369.089 274.596 369.67C275.945 370.251 277.435 370.428 278.884 370.18ZM276.033 360.398C276.256 360.328 276.467 360.247 276.702 360.189C276.467 360.189 276.701 360.189 276.866 360.189H277.077H276.901H277.499C277.335 360.189 277.499 360.189 277.71 360.189H277.91H277.746L278.332 360.34C278.25 360.34 278.426 360.34 278.567 360.41L278.743 360.468H278.602C278.754 360.538 278.895 360.619 279.036 360.7C278.977 360.7 279.13 360.7 279.247 360.828L279.4 360.933L279.271 360.852L279.705 361.282L279.822 361.48C279.862 361.539 279.897 361.601 279.928 361.666C279.953 361.742 279.972 361.82 279.986 361.899C279.986 361.817 280.057 361.899 280.068 362.12V362.189C280.063 362.228 280.063 362.267 280.068 362.306C280.063 362.271 280.063 362.236 280.068 362.201C280.068 362.341 280.068 362.48 280.068 362.62C280.068 362.562 280.068 362.503 280.068 362.422C280.068 362.515 280.068 362.608 280.068 362.701C280.068 362.794 280.068 362.922 280.068 362.887C280.068 363.038 279.986 363.19 279.928 363.341L279.986 363.259L279.916 363.387C279.892 363.456 279.86 363.523 279.822 363.585C279.747 363.728 279.661 363.864 279.564 363.992C279.564 363.992 279.564 364.097 279.423 364.213L279.341 364.341L279.411 364.225C279.306 364.341 279.189 364.469 279.059 364.585L278.837 364.783C278.713 364.872 278.579 364.947 278.438 365.004C278.438 365.004 278.356 365.074 278.227 365.121L278.062 365.214L278.203 365.132L277.793 365.237H277.71C277.627 365.264 277.536 365.264 277.452 365.237H277.382H277.007H277.089L276.748 365.132L276.138 364.772L275.845 364.504L275.599 364.237V364.155L275.47 363.946C275.375 363.811 275.289 363.672 275.212 363.527L275.083 363.283C275.087 363.264 275.087 363.244 275.083 363.225C275.001 362.986 274.938 362.74 274.895 362.492C274.895 362.364 274.895 362.236 274.895 362.108C274.895 361.98 274.895 361.933 274.895 361.84C274.958 361.57 275.044 361.305 275.153 361.049C275.21 360.884 275.241 360.712 275.247 360.538C275.514 360.526 275.778 360.479 276.033 360.398Z" fill="black"/>
<path d="M279.294 360.759L279.153 360.666L279.06 360.607L279.318 360.782L279.294 360.759Z" fill="black"/>
<path d="M277.394 365.272H277.734C277.499 365.237 277.394 365.249 277.394 365.272Z" fill="black"/>
<path d="M278.59 360.386H278.438H278.321L278.626 360.491L278.59 360.386Z" fill="black"/>
<path d="M154.32 373.554C154.564 374.476 154.994 375.34 155.583 376.094C156.173 376.847 156.911 377.474 157.751 377.937C158.592 378.4 159.519 378.69 160.476 378.788C161.433 378.886 162.399 378.791 163.318 378.509C164.711 378.039 165.894 377.101 166.662 375.857C167.295 374.738 167.62 373.474 167.604 372.192C167.587 370.909 167.23 369.654 166.568 368.552C165.826 367.295 164.664 366.336 163.283 365.842C161.962 365.351 160.511 365.331 159.177 365.784C157.515 366.322 156.093 367.416 155.153 368.878C154.755 369.514 154.473 370.215 154.32 370.948C154.227 371.463 154.227 371.991 154.32 372.507C154.274 372.854 154.274 373.206 154.32 373.554ZM159.658 371.646C159.823 371.453 160.003 371.274 160.198 371.111C160.377 370.989 160.565 370.88 160.761 370.785L160.972 370.727H161.359H161.57L161.734 370.832L161.981 371.076C162.075 371.227 162.169 371.378 162.251 371.541C162.333 371.704 162.344 371.879 162.38 372.041C162.391 372.243 162.391 372.445 162.38 372.646C162.359 372.76 162.332 372.873 162.298 372.984C162.238 373.1 162.171 373.213 162.098 373.321L161.981 373.437L161.688 373.612L161.441 373.67H160.96C160.745 373.626 160.534 373.567 160.327 373.495C160.176 373.425 160.031 373.344 159.893 373.251L159.529 372.891L159.353 372.611C159.339 372.544 159.319 372.478 159.294 372.414L159.435 371.983C159.459 371.867 159.529 371.739 159.611 371.611L159.658 371.646ZM158.25 373.972L158.321 373.903H158.391C158.333 373.942 158.27 373.973 158.203 373.996L158.25 373.972Z" fill="black"/>
<path d="M181.619 346.975C180.313 346.651 178.943 346.683 177.654 347.068C176.203 347.527 174.958 348.473 174.135 349.743C173.971 349.985 173.863 350.259 173.818 350.546C173.689 350.743 173.583 350.954 173.501 351.174C173.135 352.416 173.14 353.737 173.517 354.976C173.894 356.215 174.626 357.319 175.624 358.153C176.761 359.126 178.186 359.705 179.683 359.805C180.935 359.858 182.17 359.507 183.203 358.804C184.207 358.116 185.015 357.182 185.549 356.094C186.093 355.013 186.351 353.812 186.3 352.605C186.2 351.182 185.626 349.832 184.669 348.766C183.848 347.89 182.789 347.268 181.619 346.975ZM181.115 353.221C181.075 353.41 181.024 353.597 180.962 353.78C180.892 353.908 180.821 354.047 180.739 354.175C180.657 354.303 180.493 354.419 180.376 354.536L180.164 354.652H179.942H179.742L179.449 354.571C179.32 354.504 179.194 354.43 179.073 354.349C178.933 354.233 178.803 354.105 178.686 353.966C178.581 353.817 178.487 353.662 178.405 353.5C178.359 353.367 178.32 353.231 178.287 353.093V352.768V352.628L178.628 352.291C178.736 352.22 178.85 352.158 178.968 352.105C179.154 352.033 179.346 351.978 179.543 351.942H180.129L180.47 352.023L180.786 352.209L180.927 352.349L181.009 352.477L181.115 352.861C181.126 353.024 181.115 353.128 181.115 353.221Z" fill="black"/>
<path d="M138.987 310.858C141.777 312.777 144.973 314.039 148.329 314.547C151.686 315.055 155.116 314.796 158.356 313.79L158.626 313.697C152.46 320.677 147.357 328.515 143.481 336.96C143.166 337.534 143.084 338.205 143.252 338.836C143.42 339.468 143.825 340.012 144.384 340.357C144.959 340.684 145.641 340.773 146.282 340.605C146.923 340.438 147.472 340.027 147.809 339.461C153.587 327.583 161.732 316.989 171.753 308.319C181.773 299.648 193.463 293.081 206.114 289.014C218.918 284.91 232.479 283.667 245.825 285.373C259.218 287.172 272.089 291.707 283.623 298.692C296.709 306.547 307.707 317.396 315.696 330.33C317.656 333.517 322.735 330.632 320.753 327.399C317.883 322.631 314.589 318.127 310.91 313.941C313.069 314.202 315.258 314.056 317.362 313.51C324.049 311.742 328.695 305.973 330.83 299.692C332.083 295.684 332.514 291.468 332.097 287.292C331.892 284.92 331.563 282.559 331.111 280.22C330.912 279.127 330.689 278.034 330.454 276.952C330.213 275.62 329.64 274.369 328.789 273.311C327.615 271.892 325.175 272.764 324.788 274.358C324.295 276.359 324.859 278.138 325.246 280.104C325.598 281.849 325.914 283.594 326.126 285.373C326.627 288.811 326.563 292.307 325.938 295.726C324.894 300.623 321.996 305.752 317.104 307.695C311.52 309.905 305.514 307.136 301.126 303.693C296.169 299.566 292.025 294.566 288.902 288.944C285.301 282.56 282.653 275.692 281.042 268.554C280.864 267.944 280.453 267.428 279.896 267.115C279.339 266.802 278.681 266.717 278.062 266.879C277.453 267.063 276.937 267.472 276.623 268.022C276.309 268.571 276.219 269.22 276.373 269.833C277.617 277.192 280.15 284.277 283.858 290.77C284.256 291.476 284.667 292.186 285.089 292.899C274.788 286.95 263.529 282.807 251.808 280.651C237.784 278.086 223.361 278.63 209.575 282.244C197.511 285.475 186.139 290.851 176.011 298.11C179.683 291.271 181.666 283.349 182.956 275.812C183.146 275.091 183.047 274.324 182.68 273.674C182.312 273.023 181.705 272.539 180.986 272.322C180.258 272.122 179.479 272.214 178.82 272.58C178.16 272.947 177.674 273.556 177.466 274.277C175.765 280.942 174.639 287.746 171.601 294.051C168.984 299.471 165.137 304.321 159.728 307.194C157.382 308.495 154.754 309.217 152.067 309.298C149.379 309.379 146.712 308.817 144.29 307.66C141.791 306.436 139.561 304.734 137.729 302.652C135.897 300.57 134.498 298.148 133.614 295.528C131.268 288.549 132.359 280.744 135.292 274.079C135.603 273.516 135.685 272.857 135.521 272.236C135.358 271.616 134.961 271.08 134.412 270.74C133.846 270.421 133.176 270.335 132.547 270.501C131.917 270.666 131.378 271.069 131.045 271.625C127.443 278.547 126.263 286.46 127.69 294.12C129.113 300.946 133.166 306.951 138.987 310.858Z" fill="black"/>
<path d="M215.64 261.726C218.044 259.044 220.96 256.861 224.22 255.304C227.48 253.746 231.019 252.845 234.633 252.653C238.226 252.429 241.83 252.867 245.262 253.944C246.97 254.474 248.614 255.188 250.165 256.073C251.984 257.131 253.45 258.306 255.609 258.236C256.053 258.233 256.477 258.057 256.791 257.746C257.105 257.435 257.283 257.013 257.286 256.573C256.876 252.909 253.192 251.176 250.095 249.838C246.95 248.483 243.615 247.613 240.205 247.256C233.497 246.562 226.732 247.858 220.767 250.978C217.39 252.734 214.418 255.166 212.038 258.12C211.583 258.603 211.33 259.239 211.33 259.9C211.33 260.561 211.583 261.197 212.038 261.679C212.513 262.154 213.156 262.425 213.83 262.433C214.503 262.442 215.153 262.188 215.64 261.726Z" fill="black"/>
<path d="M107.63 204.975C112.252 204.44 117.155 202.555 120.17 198.961C120.474 198.641 120.666 198.233 120.716 197.797C120.766 197.36 120.673 196.919 120.45 196.54C120.227 196.161 119.886 195.863 119.479 195.691C119.071 195.52 118.618 195.483 118.188 195.588C116.947 195.789 115.732 196.12 114.563 196.577C113.683 196.972 112.838 197.426 111.935 197.74C110.043 198.547 108.021 199.012 105.964 199.112C102.092 199.112 100.098 196.286 99.5117 192.738C99.2507 190.713 99.1847 188.669 99.3117 186.631L99.5937 178.617C99.7807 172.906 100.11 167.16 99.7227 161.449C99.7057 160.877 99.4857 160.33 99.1017 159.905C98.7167 159.479 98.1937 159.202 97.6227 159.122C97.0437 159.029 96.4497 159.153 95.9597 159.472C95.4687 159.791 95.1157 160.28 94.9707 160.844C94.3217 165.896 93.9297 170.978 93.7977 176.07C93.6217 180.653 93.2347 185.294 93.3287 189.888C93.4107 193.924 94.1617 198.112 96.9187 201.241C98.2637 202.679 99.9417 203.771 101.809 204.421C103.675 205.072 105.673 205.262 107.63 204.975Z" fill="black"/>
<path d="M359.267 167.811C362.085 165.807 365.095 164.081 368.253 162.658C370.834 161.495 373.966 160.425 376.852 160.89C379.515 161.321 380.747 163.473 380.77 166.09C380.77 169.87 379.597 173.72 378.752 177.384C377.728 182.3 376.668 187.205 375.573 192.098C375.01 194.646 374.4 197.205 373.907 199.752C373.649 200.985 373.368 202.218 373.133 203.451C372.963 204.85 373.046 206.268 373.379 207.638C373.661 209.546 376.371 209.499 377.239 208.138C377.975 207.205 378.546 206.155 378.928 205.033C379.257 203.718 379.515 202.381 379.796 201.066L381.31 193.971L384.407 179.489C385.932 172.324 389.967 160.634 381.298 156.226C374.365 152.736 365.93 156.796 359.912 160.39C353.359 164.354 347.623 169.513 343.007 175.593C337.899 182.261 334.342 189.967 332.59 198.158C331.85 201.648 337.153 203.102 337.951 199.624C340.922 186.804 348.499 175.495 359.267 167.811Z" fill="black"/>
<path d="M366.998 34.8716C298.956 -12.2134 224.427 0.581649 199.932 4.79165C179.672 8.28165 125.848 17.5056 75.5798 62.4156C58.2058 77.9206 17.5207 114.235 4.01874 177.908C1.19074 191.238 -10.9513 260.947 27.9737 323.839C48.3277 356.734 73.1158 377.962 98.5968 391.618C97.7818 396.128 96.6447 400.574 95.1937 404.924C95.1357 405.017 95.0537 405.099 94.9947 405.204C94.7597 405.632 94.6387 406.112 94.6427 406.599C92.2967 413.578 89.3287 420.313 86.3487 427.001C80.6827 439.738 74.9697 452.44 69.3617 465.188L64.6687 475.773C63.4157 478.283 62.3188 480.866 61.3848 483.508C60.8648 483.585 60.3758 483.798 59.9668 484.125C59.5578 484.452 59.2438 484.88 59.0578 485.367C58.8708 485.854 58.8188 486.382 58.9058 486.895C58.9938 487.409 59.2167 487.89 59.5547 488.289C75.8617 506.552 95.2597 521.852 116.874 533.502C138.45 545.13 161.662 553.485 185.737 558.289C202.64 561.692 219.837 563.457 237.085 563.558C237.374 564.04 237.784 564.44 238.276 564.717C238.767 564.994 239.323 565.14 239.889 565.14C240.454 565.14 241.01 564.994 241.502 564.717C241.993 564.44 242.404 564.04 242.692 563.558C249.152 563.473 255.613 563.163 262.073 562.628C289.368 560.248 316.256 554.5 342.115 545.517C368.09 536.507 393.079 524.917 416.703 510.924C419.636 509.203 422.569 507.435 425.443 505.655C428.317 503.876 426.335 499.293 423.39 499.839C421.959 491.697 420.094 483.555 418.146 475.413C415.929 466.247 413.454 457.151 410.732 448.125C405.17 429.828 398.614 411.842 391.094 394.246C389.013 389.377 386.863 384.538 384.642 379.73C383.551 377.404 382.413 375.077 381.275 372.681C380.899 371.925 380.536 371.157 380.101 370.355C391.862 361.649 402.569 351.626 412.011 340.484C432.799 315.757 447.406 286.513 454.642 255.131C466.808 199.298 450.29 153.935 444.084 136.894C428.27 93.6696 402.356 59.3446 366.998 34.8716ZM107.829 364.69C108.439 365.318 109.002 365.946 109.659 366.551C111.27 368.102 112.928 369.61 114.633 371.076C116.51 372.658 118.364 374.484 120.792 375.101C121.259 375.212 121.749 375.187 122.202 375.028C122.655 374.869 123.052 374.583 123.345 374.206C123.638 373.828 123.814 373.374 123.852 372.899C123.891 372.424 123.789 371.949 123.561 371.53C122.439 369.992 121.058 368.658 119.478 367.586C117.914 366.307 116.397 364.981 114.927 363.608C106.474 355.744 99.6128 346.352 94.7128 335.936C89.3128 324.296 86.4657 311.651 86.3607 298.838C86.2557 286.025 88.8947 273.336 94.1027 261.61C94.4217 261.019 94.5027 260.332 94.3307 259.684C94.1587 259.037 93.7467 258.478 93.1767 258.12C92.5827 257.791 91.8837 257.705 91.2267 257.878C90.5697 258.052 90.0068 258.473 89.6568 259.051C88.4838 261.528 87.5097 264.052 86.5947 266.611C85.4927 265.553 84.3308 264.529 83.3338 263.378C81.8908 261.708 80.6247 259.896 79.5567 257.969C77.3537 254.166 75.9537 249.96 75.4387 245.604C74.6987 238.592 76.1827 231.525 79.6857 225.388C80.2367 224.411 80.8587 223.458 81.4687 222.539C82.3347 221.505 82.7937 220.195 82.7587 218.851C82.7607 218.421 82.6147 218.002 82.3437 217.666C82.0727 217.329 81.6928 217.095 81.2688 217.002C84.4598 207.278 84.8937 196.623 83.9317 186.515C83.0497 178.511 81.7617 170.557 80.0727 162.682C79.3097 158.855 78.5237 155.028 77.8317 151.178C77.0167 147.352 76.5877 143.456 76.5527 139.546C76.6707 133.812 79.1457 127.054 85.3867 125.588C88.8237 124.762 92.4258 125.809 95.6748 127.007C98.7618 128.222 101.778 129.609 104.709 131.16C116.688 137.229 127.84 144.784 137.896 153.644C143.538 158.623 148.822 163.986 153.71 169.696C158.152 175.014 162.296 180.571 166.122 186.341C160.808 188.865 155.622 191.656 150.601 194.657C133.217 204.935 118.006 218.456 105.811 234.473C104.333 236.427 102.914 238.428 101.541 240.451C99.6518 243.208 104.122 245.744 106.022 243.045C117.166 227.315 131.218 213.824 147.434 203.288C155.769 197.893 164.543 193.196 173.665 189.249C182.167 185.601 191.086 182.995 200.225 181.49C219.547 178.198 239.748 178.582 259.116 181.339C268.287 182.519 277.335 184.497 286.157 187.248C289.758 188.432 293.284 189.831 296.715 191.435C296.841 191.876 297.08 192.276 297.407 192.598C297.8 192.968 298.287 193.225 298.816 193.342C299.345 193.459 299.896 193.431 300.411 193.261C303.857 195.037 307.198 197.006 310.417 199.159C324.988 208.964 337.083 223.027 342.761 239.695C343.124 240.754 343.406 241.859 343.77 242.906C344.133 243.953 344.849 245.116 345.365 246.186C346.421 248.396 350.058 247.349 349.952 244.965C349.96 243.737 349.862 242.511 349.659 241.301C349.359 240.145 348.995 239.008 348.568 237.892C347.758 235.566 346.843 233.356 345.846 231.146C343.94 226.954 341.663 222.937 339.042 219.142C333.738 211.441 327.282 204.585 319.896 198.81C315.156 195.093 310.1 191.789 304.786 188.934C323.912 168.061 345.496 149.538 369.074 133.765C372.202 131.671 375.366 129.636 378.565 127.658C381.675 125.577 384.924 123.708 388.29 122.064C390.988 120.9 394.367 119.9 397.147 121.377C398.079 121.934 398.876 122.685 399.484 123.579C400.092 124.473 400.496 125.488 400.666 126.553C401.219 129.176 401.357 131.868 401.077 134.533C400.796 138.464 400.221 142.384 399.775 146.304L396.819 171.975C394.613 190.993 392.126 210.011 390.319 229.076C390.326 229.894 390.656 230.678 391.24 231.257C391.824 231.836 392.614 232.164 393.44 232.17C394.261 232.149 395.043 231.816 395.624 231.241C396.204 230.665 396.54 229.89 396.561 229.076C397.206 224.318 397.734 219.549 398.355 214.78C398.508 215.036 398.649 215.292 398.801 215.571C399.529 216.92 400.232 218.293 400.831 219.712C401.95 222.391 402.799 225.173 403.365 228.017C405.121 236.411 404.28 245.135 400.951 253.046C397.623 260.958 391.963 267.689 384.712 272.357C379.347 275.734 373.37 278.041 367.115 279.15C364.299 279.72 364.886 284.466 367.807 284.187C370.71 283.904 373.573 283.311 376.347 282.419C376.371 282.729 376.451 283.032 376.582 283.314C377.725 285.658 378.652 288.099 379.351 290.608C379.96 293.193 380.267 295.839 380.266 298.494C380.215 304.015 379.357 309.501 377.72 314.778C374.47 325.956 369.285 336.716 363.642 346.87C362 349.825 360.264 352.686 358.539 355.617C357.624 357.168 356.694 358.68 355.747 360.154C354.616 361.579 353.841 363.249 353.483 365.027C353.272 366.772 355.454 367.575 356.768 366.9C358.158 365.984 359.299 364.741 360.088 363.283C361.003 361.968 361.906 360.654 362.798 359.316C364.581 356.653 366.223 353.908 367.807 351.174C368.464 350.011 369.109 348.848 369.743 347.685C370.994 353.338 372.273 358.975 373.579 364.597C373.188 364.831 372.868 365.164 372.652 365.563C342.549 387.058 298.322 405.308 234.445 406.576C232.099 406.576 229.389 406.727 226.386 406.832C200.319 407.774 151.552 409.519 104.943 385.499C105.236 384.743 105.471 384.022 105.694 383.417C106.879 380.096 107.644 376.643 107.97 373.135C108.234 370.323 108.187 367.491 107.829 364.69ZM127.772 532.362C106.195 521.951 86.5618 507.976 69.7138 491.034C68.4348 489.731 67.1917 488.417 65.9597 487.079C67.4257 484.735 68.6558 482.253 69.6318 479.67L73.8548 470.167C76.7178 463.746 79.5567 457.314 82.3717 450.87C87.8977 438.319 93.8567 425.85 98.6077 412.974C98.9017 412.194 99.1707 411.415 99.4527 410.647C116.191 418.439 133.65 424.606 151.587 429.06C170.815 433.799 190.457 436.697 210.244 437.714C219.112 438.164 227.981 438.234 236.85 437.924C236.764 469.965 236.725 502.007 236.733 534.048C236.733 541.803 236.733 549.557 236.733 557.312C223.222 557.261 209.736 556.152 196.401 553.997C172.572 550.169 149.444 542.879 127.761 532.362H127.772ZM247.76 542.83C247.561 547.262 247.186 551.717 247.197 556.16C247.202 556.523 247.273 556.882 247.408 557.219C245.93 557.219 244.464 557.3 242.986 557.323C242.907 525.778 242.794 494.237 242.646 462.699L242.505 437.703C246.008 437.517 249.508 437.28 253.004 436.993C251.28 467.817 249.86 498.641 248.394 529.489L247.76 542.83ZM394.59 419.639C401.025 437.369 406.527 455.418 411.072 473.715C413.489 483.462 415.46 493.279 417.513 503.096C395.997 516.151 373.309 527.205 349.741 536.119C324.667 545.641 298.517 552.102 271.868 555.358C265.612 556.079 259.335 556.61 253.039 556.951C253.128 556.683 253.187 556.406 253.215 556.125C253.99 548.251 254.025 540.248 254.389 532.35L255.48 509.156C256.207 493.5 256.907 477.844 257.579 462.187C257.971 453.603 258.326 445.015 258.647 436.423C262.284 436.051 265.932 435.632 269.557 435.144C289.018 432.502 308.177 428.011 326.771 421.732C345.523 415.41 363.583 407.226 380.676 397.306C382.084 396.48 383.48 395.631 384.876 394.781C388.325 402.978 391.563 411.264 394.59 419.639ZM378.506 380.533C379.82 383.417 381.11 386.348 382.389 389.233C366.365 398.984 349.409 407.143 331.768 413.59C313.511 420.233 294.655 425.133 275.458 428.223C256.419 431.267 237.135 432.541 217.857 432.026C198.515 431.525 179.266 429.188 160.374 425.047C141.443 420.923 122.973 414.942 105.236 407.193C103.876 406.599 102.538 406.029 101.189 405.355C102.276 401.744 103.15 398.074 103.805 394.363C140.571 412.532 178.24 415.567 205.633 415.567C213.599 415.567 220.708 415.311 226.667 415.102C229.612 414.997 232.263 414.893 234.586 414.846C245.731 414.625 275.317 414.044 309.08 404.564C332.762 398.118 355.173 387.743 375.362 373.879C376.394 376.054 377.509 378.206 378.506 380.533ZM446.43 253.386C439.521 283.452 425.545 311.474 405.641 335.169C397.496 344.764 388.363 353.489 378.389 361.201C376.817 354.745 375.245 348.289 373.602 341.845C373.518 341.518 373.37 341.21 373.168 340.938C374.341 338.612 375.397 336.285 376.43 333.959C381.239 323.06 385.639 311.475 385.721 299.424C385.721 293.248 384.618 285.943 380.887 280.814L380.817 280.721C388.24 277.451 394.753 272.446 399.798 266.134C403.858 260.986 406.818 255.072 408.496 248.753C410.174 242.433 410.536 235.841 409.559 229.378C409.053 225.719 408.116 222.131 406.767 218.688C406.061 216.879 405.25 215.112 404.338 213.396C403.4 211.675 402.426 209.813 400.62 208.895C400.153 208.673 399.631 208.592 399.118 208.662C400.361 197.763 401.523 186.852 402.766 175.953L405.793 149.421C406.298 145.071 406.825 140.721 407.295 136.359C407.658 133.266 407.635 130.141 407.224 127.054C406.251 120.272 401.722 114.549 394.39 114.34C390.343 114.212 386.378 115.875 382.882 117.76C379.386 119.644 376.136 121.761 372.84 123.855C359.505 132.316 346.763 141.662 334.701 151.829C322.136 162.42 310.373 173.912 299.507 186.213C298.099 185.55 296.668 184.91 295.225 184.305C286.469 180.844 277.359 178.34 268.056 176.837C247.849 173.103 227.193 172.382 206.771 174.697C196.978 175.756 187.346 177.962 178.076 181.269C175.894 182.072 173.736 182.944 171.601 183.863C167.985 178.049 163.934 172.512 159.482 167.299C155.064 162.012 150.311 157.008 145.252 152.318C134.947 142.762 123.45 134.553 111.043 127.891C104.697 124.506 97.8107 120.668 90.5717 119.749C87.0117 119.224 83.3767 119.873 80.2247 121.596C77.0727 123.319 74.5797 126.021 73.1277 129.287C69.6077 136.731 70.9218 144.92 72.3418 152.713C73.7958 160.762 75.6497 168.742 77.0337 176.803C79.8497 193.18 80.3778 210.872 71.6608 225.656C71.3768 226.108 71.2567 226.644 71.3227 227.174C71.3897 227.703 71.6367 228.194 72.0247 228.564C70.7577 231.965 69.9678 235.523 69.6788 239.137C69.1328 247.213 71.1867 255.253 75.5437 262.098C76.7687 264.032 78.1537 265.861 79.6857 267.565C81.1227 269.322 82.8437 270.831 84.7767 272.032C80.5597 286.284 79.7828 301.32 82.5098 315.925C85.2368 330.53 91.3897 344.295 100.474 356.106C102.398 361.45 103.095 367.152 102.515 372.797C102.198 375.825 101.505 378.802 100.45 381.661C100.309 382.033 100.145 382.405 100.004 382.824C76.5417 369.727 53.7707 349.778 35.0477 319.524C-2.21125 259.318 9.43775 192.447 12.1597 179.652C25.0647 118.632 64.3637 83.5966 81.1287 68.6266C129.685 25.2756 181.748 16.3426 201.363 12.9686C217.47 9.97864 233.814 8.42165 250.2 8.31665C282.192 8.31665 323.416 14.8186 362.211 41.6646C396.115 65.1376 420.985 98.1247 436.119 139.709C442.125 156.168 458.044 199.857 446.43 253.386Z" fill="black"/>
<path d="M364.417 427.06C363.056 427.444 361.799 428.127 360.739 429.057C359.68 429.987 358.844 431.141 358.293 432.433C358.359 432.584 358.381 432.75 358.356 432.913C358.331 433.076 358.261 433.228 358.152 433.352C357.862 433.702 357.629 434.095 357.46 434.515C357.366 434.771 357.272 435.039 357.19 435.306C357.082 435.752 357.039 436.21 357.061 436.667C359.736 435.655 362.411 434.69 365.074 433.666C367.091 432.891 369.094 432.077 371.08 431.224L372.629 430.514C371.825 429.131 370.588 428.046 369.106 427.423C367.625 426.799 365.978 426.672 364.417 427.06Z" fill="#083A90"/>
<path d="M357.425 438.331C357.519 438.54 357.613 438.738 357.718 438.924L359.971 438.075L363.021 436.83C364.018 436.377 365.027 435.946 366 435.458C367.98 434.526 369.893 433.461 371.725 432.271C372.195 431.968 372.64 431.654 373.074 431.328C373.074 431.247 373.016 431.165 372.981 431.096C372.476 431.386 371.972 431.677 371.456 431.945C369.515 432.958 367.517 433.859 365.473 434.643C363.42 435.411 361.343 436.109 359.243 436.714C358.551 436.912 357.835 437.086 357.132 437.272C357.188 437.635 357.286 437.99 357.425 438.331Z" fill="#083A90"/>
<path d="M361.414 441.809C362.943 442.311 364.573 442.435 366.162 442.169C367.751 441.904 369.25 441.257 370.529 440.285V440.203L370.67 440.134C370.81 440.017 370.963 439.913 371.092 439.785L371.326 439.54C372.36 438.517 373.079 437.224 373.399 435.811C373.719 434.398 373.627 432.924 373.133 431.561C372.723 431.898 372.3 432.212 371.854 432.515C370.037 433.754 368.127 434.855 366.141 435.807C364.147 436.749 362.106 437.598 360.041 438.354L357.8 439.11C358.646 440.404 359.926 441.36 361.414 441.809ZM370.048 436.865L370.142 436.714L370.071 436.888L370.048 436.865Z" fill="#083A90"/>
<path d="M373.168 431.561C373.662 432.924 373.754 434.398 373.434 435.811C373.114 437.224 372.395 438.517 371.362 439.54L371.186 439.738H371.127C370.998 439.866 370.846 439.971 370.705 440.087L370.529 440.238C369.25 441.21 367.751 441.857 366.162 442.123C364.573 442.388 362.943 442.265 361.414 441.762C359.961 441.294 358.717 440.34 357.894 439.064L357.014 439.366L356.217 439.599C356.797 440.701 357.643 441.644 358.68 442.344C360.505 443.473 362.612 444.072 364.763 444.072C366.914 444.072 369.021 443.473 370.846 442.344C372.589 441.27 373.954 439.687 374.753 437.812C375.551 435.937 375.743 433.863 375.303 431.875C375.152 431.337 374.956 430.811 374.717 430.305L374.541 430.468C374.06 430.84 373.626 431.212 373.168 431.561Z" fill="black"/>
<path d="M357.061 436.621C357.039 436.163 357.082 435.705 357.19 435.26C357.272 434.992 357.366 434.725 357.46 434.469C357.629 434.048 357.862 433.656 358.152 433.306C358.261 433.181 358.331 433.029 358.356 432.866C358.381 432.704 358.359 432.538 358.293 432.387C358.844 431.094 359.68 429.941 360.739 429.011C361.799 428.081 363.056 427.398 364.417 427.013C365.972 426.62 367.614 426.739 369.095 427.351C370.576 427.964 371.816 429.037 372.629 430.409C373.192 430.154 373.802 429.874 374.306 429.595C373.502 428.212 372.351 427.058 370.967 426.243C369.582 425.428 368.009 424.98 366.399 424.943C360.627 424.943 356.662 429.665 355.384 434.841C355.33 435.012 355.33 435.194 355.384 435.365C355.296 435.982 355.296 436.608 355.384 437.226L357.061 436.621Z" fill="black"/>
<path d="M374.365 430.328C374.435 430.328 374.494 430.2 374.576 430.142C374.072 430.491 373.544 430.84 373.016 431.154C373.016 431.224 373.074 431.305 373.11 431.387L374.365 430.328Z" fill="black"/>
<path d="M357.718 438.924C357.612 438.738 357.519 438.54 357.425 438.331C357.286 437.99 357.188 437.635 357.132 437.272L355.466 437.679C355.593 438.317 355.806 438.935 356.099 439.517L357.718 438.924Z" fill="black"/>
<path d="M376.465 428.386C375.77 428.848 375.049 429.271 374.306 429.653C373.755 429.933 373.192 430.212 372.629 430.468L371.08 431.177C369.101 432.038 367.099 432.852 365.074 433.62C362.411 434.643 359.736 435.609 357.061 436.621L355.407 437.249C354.562 437.575 353.718 437.9 352.873 438.249C353.741 438.075 354.609 437.877 355.466 437.679L357.131 437.272C357.835 437.086 358.551 436.912 359.243 436.714C361.343 436.109 363.419 435.411 365.472 434.643C367.517 433.859 369.515 432.958 371.455 431.945C371.972 431.677 372.476 431.386 372.981 431.096C373.485 430.805 374.036 430.433 374.541 430.084L375.139 429.63L374.576 430.142C374.494 430.2 374.435 430.27 374.365 430.328L373.074 431.328C372.64 431.654 372.195 431.968 371.725 432.271C369.893 433.461 367.98 434.526 366 435.458C365.027 435.946 364.018 436.377 363.021 436.83L359.97 438.075L357.718 438.924L356.099 439.517L353.753 440.343L356.099 439.645L356.897 439.412L357.777 439.11L360.017 438.354C362.082 437.598 364.123 436.749 366.118 435.807C368.104 434.855 370.014 433.754 371.831 432.515C372.277 432.212 372.699 431.898 373.11 431.561C373.52 431.224 374.001 430.84 374.423 430.468L374.599 430.305C374.94 429.979 375.268 429.642 375.597 429.304C375.726 429.176 375.843 429.037 375.96 428.909C376.078 428.781 376.5 428.42 376.758 428.165C376.651 428.225 376.552 428.299 376.465 428.386Z" fill="#663399"/>
<path d="M119.654 454.627C114.809 454.627 107.923 462.129 107.923 466.863C107.923 469.004 109.565 470.272 112.31 470.272C115.29 470.272 117.261 468.748 119.642 468.748C122.024 468.748 124.03 470.272 126.986 470.272C129.731 470.272 131.362 469.004 131.362 466.863C131.374 462.129 124.511 454.627 119.654 454.627ZM110.668 453.859C110.035 451.742 108.075 450.37 106.304 450.788C104.533 451.207 103.594 453.278 104.227 455.441C104.861 457.605 106.82 458.931 108.603 458.512C110.386 458.093 111.302 456.023 110.668 453.859ZM115.842 452.649C117.73 452.149 118.669 449.59 117.953 446.938C117.238 444.286 115.114 442.53 113.261 443.03C111.407 443.53 110.422 446.089 111.149 448.741C111.876 451.393 113.953 453.08 115.842 452.649ZM133.016 450.846C131.245 450.428 129.286 451.8 128.652 453.917C128.019 456.034 128.945 458.093 130.717 458.57C132.488 459.047 134.447 457.616 135.081 455.499C135.714 453.382 134.799 451.323 133.016 450.846ZM123.479 452.649C125.367 453.138 127.479 451.393 128.171 448.741C128.863 446.089 127.948 443.53 126.06 443.03C124.171 442.53 122.059 444.286 121.367 446.938C120.675 449.59 121.59 452.149 123.479 452.649Z" fill="#60219F"/>
<path d="M145.522 465.293C143.703 463.886 138.882 464.758 137.451 466.573C136.817 467.387 137.04 468.341 138.072 469.143C139.105 469.946 140.419 469.992 141.275 470.679C142.131 471.365 142.448 472.54 143.563 473.389C144.677 474.238 145.58 474.168 146.214 473.389C147.645 471.551 147.281 466.701 145.522 465.293ZM142.39 462.397C142.602 461.975 142.647 461.489 142.514 461.037C142.382 460.584 142.081 460.197 141.674 459.954C141.455 459.887 141.225 459.863 140.997 459.885C140.769 459.908 140.548 459.975 140.347 460.083C140.145 460.192 139.968 460.339 139.825 460.517C139.683 460.694 139.577 460.899 139.515 461.117C139.303 461.537 139.259 462.021 139.392 462.472C139.525 462.923 139.824 463.307 140.231 463.548C140.45 463.618 140.68 463.642 140.909 463.621C141.137 463.599 141.359 463.532 141.561 463.424C141.762 463.315 141.94 463.167 142.082 462.988C142.225 462.81 142.329 462.605 142.39 462.385V462.397ZM144.736 463.409C145.592 463.769 146.718 463.06 147.246 461.838C147.774 460.617 147.504 459.338 146.648 458.977C145.792 458.616 144.677 459.326 144.149 460.547C143.621 461.769 143.844 463.048 144.701 463.409H144.736ZM151.704 467.701C151.369 467.368 150.92 467.173 150.446 467.153C149.972 467.134 149.508 467.292 149.147 467.596C148.951 467.708 148.78 467.857 148.644 468.035C148.507 468.213 148.407 468.416 148.35 468.633C148.294 468.849 148.281 469.075 148.313 469.296C148.345 469.518 148.421 469.73 148.537 469.922C148.873 470.253 149.323 470.447 149.797 470.464C150.271 470.481 150.734 470.321 151.094 470.016C151.29 469.904 151.461 469.755 151.597 469.577C151.734 469.399 151.834 469.196 151.89 468.979C151.947 468.763 151.96 468.537 151.928 468.316C151.896 468.094 151.82 467.881 151.704 467.689V467.701ZM147.598 465.619C148.15 466.352 149.475 466.305 150.543 465.502C151.61 464.7 152.021 463.444 151.47 462.711C150.918 461.978 149.593 462.025 148.525 462.827C147.457 463.63 147.035 464.886 147.598 465.619Z" fill="#60219F"/>
</svg>
