<svg width="80" height="81" viewBox="0 0 80 81" fill="none" xmlns="http://www.w3.org/2000/svg">
<path fill-rule="evenodd" clip-rule="evenodd" d="M40 81C62.0914 81 80 62.8675 80 40.5C80 18.1325 62.0914 0 40 0C17.9086 0 0 18.1325 0 40.5C0 62.8675 17.9086 81 40 81Z" fill="#663399"/>
<mask id="mask0" mask-type="alpha" maskUnits="userSpaceOnUse" x="0" y="0" width="80" height="81">
<path fill-rule="evenodd" clip-rule="evenodd" d="M40 81C62.0914 81 80 62.8675 80 40.5C80 18.1325 62.0914 0 40 0C17.9086 0 0 18.1325 0 40.5C0 62.8675 17.9086 81 40 81Z" fill="white"/>
</mask>
<g mask="url(#mask0)">
<path fill-rule="evenodd" clip-rule="evenodd" d="M69.103 71.6029C66.7448 68.149 63.2681 65.6384 59.2748 64.5058L49.9999 61.8751V55.1253C53.9208 52.1431 56.4957 47.4503 56.6539 42.1419C57.2019 42.3865 57.8068 42.5251 58.4446 42.5251C60.899 42.5251 62.889 40.5104 62.889 38.0251C62.889 35.5397 60.899 33.5251 58.4446 33.5251C57.8119 33.5251 57.2115 33.6607 56.6668 33.9019V32.6251C56.6668 23.3051 49.2048 15.7501 40.0001 15.7501H39.9999C30.7952 15.7501 23.3335 23.3051 23.3335 32.6251V33.9019C22.7886 33.6607 22.1881 33.5251 21.5557 33.5251C19.101 33.5251 17.1112 35.5397 17.1112 38.0251C17.1112 40.5104 19.101 42.5251 21.5557 42.5251C22.1932 42.5251 22.7981 42.3867 23.3464 42.1419C23.5044 47.4503 26.0792 52.1431 29.9999 55.1253V61.8751L20.7252 64.5058C16.7319 65.6384 13.2552 68.149 10.897 71.6029L4.44458 81.0541V87.7501H75.5557V81.0541L69.103 71.6029Z" fill="#844123"/>
<path fill-rule="evenodd" clip-rule="evenodd" d="M40 58.5C37.9449 58.5 35.9778 58.1211 34.16 57.4323C36.7454 59.1045 39.8156 60.075 43.1111 60.075C45.5689 60.075 47.8998 59.532 50 58.5652V55.1252C47.2145 57.2438 43.7523 58.5 40 58.5Z" fill="#A3420B"/>
<path d="M23.9132 38.6817C23.9699 38.4727 24.0003 38.2524 24.0003 38.0252C24.0003 36.6583 22.9059 35.5502 21.5559 35.5502C21.2183 35.5502 20.8968 35.6195 20.6043 35.7446" stroke="#100F0F" stroke-width="2" stroke-linecap="round" stroke-linejoin="round"/>
<path d="M56.0871 38.6817C56.0305 38.4727 56.0002 38.2524 56.0002 38.0252C56.0002 36.6583 57.0947 35.5502 58.4447 35.5502C58.782 35.5502 59.1036 35.6195 59.3962 35.7446" stroke="#100F0F" stroke-width="2" stroke-linecap="round" stroke-linejoin="round"/>
<path fill-rule="evenodd" clip-rule="evenodd" d="M44.4445 48.1521C44.4445 50.6374 42.4547 52.6521 40 52.6521C37.5454 52.6521 35.5556 50.6374 35.5556 48.1521H44.4445Z" fill="white"/>
<path fill-rule="evenodd" clip-rule="evenodd" d="M49.1113 38.7C49.1113 39.694 48.3153 40.5 47.3335 40.5C46.3517 40.5 45.5557 39.694 45.5557 38.7C45.5557 37.7059 46.3517 36.9 47.3335 36.9C48.3153 36.9 49.1113 37.7059 49.1113 38.7Z" fill="#100F0F"/>
<path fill-rule="evenodd" clip-rule="evenodd" d="M34.4445 38.7C34.4445 39.694 33.6485 40.5 32.6667 40.5C31.6849 40.5 30.8889 39.694 30.8889 38.7C30.8889 37.7059 31.6849 36.9 32.6667 36.9C33.6485 36.9 34.4445 37.7059 34.4445 38.7Z" fill="#100F0F"/>
<path d="M40 36.9L42.2222 44.55L39.1111 45" stroke="#100F0F" stroke-width="2" stroke-linecap="round" stroke-linejoin="round"/>
<path fill-rule="evenodd" clip-rule="evenodd" d="M57.7778 33.581V32.625C57.7778 29.1721 56.8158 25.9474 55.1511 23.2076C53.6082 20.6685 51.4593 18.5499 48.91 17.0514C46.2898 15.511 43.2478 14.625 40 14.625C36.752 14.625 33.7102 15.511 31.09 17.0514C28.5407 18.5499 26.3918 20.6685 24.8489 23.2076C23.1842 25.9474 22.2222 29.1721 22.2222 32.625V33.581C23.1493 33.7228 23.982 34.1514 24.6285 34.7787C26.676 32.6979 28.3249 30.2152 29.4467 27.4552C32.5862 29.1739 36.1805 30.15 40 30.15C43.8196 30.15 47.4138 29.1739 50.5533 27.4552C51.6749 30.2152 53.3242 32.6979 55.3716 34.7787C56.018 34.1514 56.8507 33.7228 57.7778 33.581Z" fill="#100F0F"/>
<path fill-rule="evenodd" clip-rule="evenodd" d="M75.5555 81.054L69.1028 71.6029C66.7448 68.1491 63.2681 65.6384 59.2746 64.5057L49.9999 61.875C49.9999 67.4669 45.5228 72 39.9999 72C34.477 72 29.9999 67.4669 29.9999 61.875L20.725 64.5057C16.7317 65.6384 13.255 68.1491 10.8968 71.6029L4.44434 81.054V87.75H75.5555V81.054Z" fill="black"/>
</g>
</svg>
