<svg width="29" height="32" viewBox="0 0 29 32" fill="none" xmlns="http://www.w3.org/2000/svg">
<path d="M14.1667 0C12.6012 0 11.3333 1.10154 11.3333 2.46154C11.3333 2.56738 11.3617 2.66831 11.3772 2.76923C6.47983 3.856 2.83333 7.72062 2.83333 12.3077V23.3846C2.83333 24.0812 2.2185 24.6154 1.41667 24.6154H0V27.0769H10.183C10.0128 27.4707 9.92272 27.8871 9.91667 28.3077C9.91667 30.3323 11.8362 32 14.1667 32C16.4971 32 18.4167 30.3323 18.4167 28.3077C18.4106 27.8871 18.3205 27.4707 18.1503 27.0769H28.3333V24.6154H26.9167C26.1148 24.6154 25.5 24.0812 25.5 23.3846V12.6535C25.5 8.02831 21.9413 3.90277 16.9561 2.76923C16.9717 2.66831 17 2.56738 17 2.46154C17 1.10154 15.7321 0 14.1667 0ZM13.5462 4.92308C13.7516 4.90831 13.957 4.92308 14.1667 4.92308H14.433C19.0584 5.04369 22.6667 8.56615 22.6667 12.6535V23.3846C22.6667 23.8178 22.7715 24.2265 22.933 24.6154H5.40175C5.57143 24.2216 5.66107 23.8051 5.66667 23.3846V12.3077C5.66262 10.4393 6.47325 8.63893 7.93543 7.26883C9.39761 5.89873 11.4028 5.0606 13.5476 4.92308H13.5462ZM14.1667 27.0769C14.9642 27.0769 15.5833 27.616 15.5833 28.3077C15.5833 29.0006 14.9628 29.5385 14.1667 29.5385C13.3691 29.5385 12.75 28.9994 12.75 28.3077C12.75 27.6148 13.3705 27.0769 14.1667 27.0769Z" fill="#181818"/>
</svg>
