<svg width="125" height="153" viewBox="0 0 125 153" fill="none" xmlns="http://www.w3.org/2000/svg">
<path d="M48.873 70.5173C48.8774 70.5173 48.8815 70.5156 48.8845 70.5126C48.8875 70.5096 48.8891 70.5055 48.8891 70.5015C48.8891 70.4971 48.8875 70.493 48.8845 70.49C48.8815 70.487 48.8774 70.4854 48.873 70.4854C48.8687 70.4854 48.8648 70.487 48.8616 70.49C48.8586 70.493 48.8569 70.4971 48.8569 70.5015C48.8569 70.5055 48.8586 70.5096 48.8616 70.5126C48.8648 70.5156 48.8687 70.5173 48.873 70.5173Z" fill="#CDCBCB"/>
<path d="M61.0131 47.8845C62.3612 47.2562 63.9683 48.0226 64.4668 48.2615C72.8467 52.2853 68.3932 73.2874 76.2874 78.3761C76.492 78.5081 76.5653 80.4305 78.1372 81.2409C82.8465 83.6595 84.2073 83.1854 86.4119 84.6648C90.2136 87.206 90.5459 88.0008 91.9676 92.0969C93.2457 95.7846 98.2997 91.6539 100.67 93.8717C102.134 95.2383 102.772 97.7638 101.948 99.4442C101.194 100.974 99.7374 100.76 93.8015 103.214C91.2072 104.285 91.0828 104.492 88.7791 105.353C88.1051 105.607 85.8815 106.427 82.8497 107.237C80.4598 107.87 78.0379 108.38 75.5941 108.764C72.3994 109.276 69.9459 109.462 67.997 109.6C65.2079 109.804 63.1314 109.841 60.1729 109.895C56.8375 109.955 55.0805 109.983 53.058 109.917C48.2115 109.754 44.7865 109.122 39.496 108.123C31.2343 106.553 29.9116 105.645 29.1385 104.37C27.8286 102.196 28.1801 99.0296 29.3621 98.4863C30.7359 97.8579 32.9627 100.974 33.8987 100.371C34.6463 99.9029 33.4035 97.8203 33.3523 94.4465C33.3364 93.5765 33.2725 89.4582 35.8156 86.6375C36.937 85.3811 38.084 84.9414 39.6495 84.2156C40.4385 83.8514 48.0229 80.3049 51.9718 76.6767C55.0994 73.8056 56.3328 70.5324 57.3135 67.9255C61.1027 57.883 57.5435 49.5054 61.0131 47.8845Z" fill="#CBC6C7"/>
<path d="M61.0131 47.8846C61.3997 50.7116 60.093 54.8328 59.4157 59.7299C58.681 65.0355 56.2624 73.2842 50.2115 79.0453C44.2212 84.7496 38.9659 82.7268 35.6816 88.2709C32.2472 94.0666 35.7165 100.113 33.6656 100.946C31.2056 101.942 24.5412 93.9126 22.618 86.0314C21.6914 82.2368 20.7426 78.351 22.5508 75.6152C22.9183 75.0621 23.7425 74.0443 23.5444 72.788C23.3304 71.4279 22.1291 71.2425 21.0333 69.6907C19.2059 67.1118 19.8608 63.8543 19.9375 63.4993C20.3017 61.8064 20.9183 61.8879 21.8544 59.3248C22.4024 57.8105 22.7576 56.2351 22.9119 54.635C23.1802 52.1219 22.2729 50.2372 21.8831 47.7715C21.1419 42.9686 21.1994 40.8168 21.1994 40.8168C21.0014 40.0881 20.011 38.8566 20.241 37.286C20.372 36.3781 21.1835 34.5565 22.1866 33.815C23.4837 32.8571 26.7936 34.0066 27.0364 34.0851" fill="#726E6F"/>
<path d="M32.3974 52.4612C34.2023 51.8989 34.4612 51.9365 34.9978 51.5187C35.5393 51.0798 35.9696 50.5226 36.2548 49.8919C36.5397 49.2614 36.6715 48.574 36.6398 47.8846C36.2534 43.9893 27.8256 41.6524 26.6466 43.1726C26.3431 43.5623 26.7744 43.8732 26.9182 45.5945C27.1193 47.9598 26.4006 48.5221 26.6466 50.7115C26.7968 52.0653 26.9277 53.2246 27.7425 53.6705C28.4869 54.0759 29.1034 53.4852 32.3974 52.4612Z" fill="#F2D0D5" stroke="#F2D0D5" stroke-miterlimit="10"/>
<path d="M64.2909 48.4218C62.8151 49.9515 64.8757 53.2214 68.5434 62.1612C73.3514 73.8874 72.5112 74.9179 75.3068 77.9083C80.15 83.0881 83.6131 82.7583 87.9868 86.1256C94.0348 90.7715 93.923 98.8568 96.2518 98.5868C96.9131 98.5113 97.3253 97.88 97.8494 97.0162C102.903 88.7391 105.431 84.5989 104.15 80.3237C103.36 77.7007 102.427 75.4926 103.207 74.6979C103.577 74.3177 103.207 74.6979 104.012 74.6695C106.971 74.5723 109.443 70.3472 110.309 67.5359C110.517 66.8732 112.178 61.3099 109.351 57.8422C108.44 56.7208 107.335 56.1615 107.162 54.7449C106.993 53.3849 107.859 52.6434 108.529 51.1105C109.523 48.8488 108.644 48.1609 108.942 44.1119C109.207 40.4588 110.057 39.4254 109.9 35.7626C109.808 33.6454 109.485 32.7535 108.804 32.2634C107.638 31.4246 105.804 32.0372 104.558 32.5335C96.6065 35.6998 89.9103 42.8994 89.9103 42.8994C85.2043 47.9569 84.7475 49.8102 81.9424 50.3536C79.7858 50.7776 78.9553 49.9044 73.0673 48.8239C67.8693 47.8689 65.2751 47.3913 64.2909 48.4218Z" fill="#726E6F"/>
<path d="M91.4086 53.6706C91.7982 56.2746 99.5009 58.5614 102.089 55.9604C102.38 55.6684 102.555 55.2725 102.91 54.481C103.507 53.1429 103.97 51.5786 104.28 47.4792C104.549 43.9108 104.322 43.4649 104.006 43.1726C102.894 42.1425 100.594 42.934 99.897 43.1726C97.3125 44.0586 95.5363 46.6907 92.0921 51.9209C91.5969 52.678 91.3255 53.1145 91.4086 53.6706Z" fill="#F2D0D5" stroke="#F2D0D5" stroke-miterlimit="10"/>
<path d="M75.4096 97.2581C75.3581 97.2581 75.2999 97.2834 75.3646 97.2581H75.387H75.4096Z" fill="#60219F"/>
<path d="M75.0259 98.3672C75.0153 98.3476 75.0035 98.3285 74.9904 98.3102L75.0259 98.3672Z" fill="#60219F"/>
<path d="M70.8022 93.6555L70.7861 93.6299L70.8022 93.6555Z" fill="#60219F"/>
<path d="M75.614 98.6433H75.5433C75.5662 98.651 75.591 98.651 75.614 98.6433Z" fill="#60219F"/>
<path d="M76.2715 97.9936C76.2715 97.9936 76.2715 97.9745 76.2715 97.9429C76.2715 97.9112 76.2715 97.9587 76.2715 97.9682C76.2701 97.9767 76.2701 97.9852 76.2715 97.9936Z" fill="#60219F"/>
<path d="M72.147 93.2631C72.147 93.2314 72.1628 93.2027 72.147 93.1902C72.1508 93.2145 72.1508 93.239 72.147 93.2631Z" fill="#60219F"/>
<path d="M70.7317 93.5608L70.7767 93.6271C70.7511 93.5766 70.735 93.5608 70.7317 93.5608Z" fill="#60219F"/>
<path d="M74.9011 97.503C74.8713 97.572 74.8478 97.6434 74.8307 97.7165C74.8307 97.7416 74.8307 97.7668 74.8307 97.7887C74.8307 97.8109 74.8307 97.858 74.8307 97.8924C74.8424 97.9598 74.8594 98.0258 74.8819 98.0904C74.883 98.0956 74.883 98.101 74.8819 98.1061L74.9171 98.1722C74.9382 98.2111 74.9615 98.2487 74.9872 98.285C74.9872 98.2601 74.9872 98.2601 75.0288 98.3481L75.0959 98.4203L75.1758 98.4926L75.3419 98.5897L75.4345 98.6181H75.4602C75.5879 98.6181 75.524 98.6181 75.4602 98.6181H75.4123H75.5143H75.5335C75.5335 98.6181 75.5592 98.6181 75.6263 98.6181L75.7381 98.5897L75.8019 98.5553C75.8404 98.5396 75.8769 98.5196 75.9104 98.4955L75.9713 98.4422C76.0065 98.4108 76.0384 98.3762 76.0671 98.3448L76.1085 98.282C76.135 98.2471 76.1586 98.2106 76.1789 98.1722C76.1629 98.1941 76.1597 98.1722 76.2076 98.1029C76.2555 98.0339 76.2333 98.0212 76.246 97.9803C76.2444 97.9565 76.2444 97.9321 76.246 97.9081C76.246 97.8704 76.246 97.8328 76.246 97.7952C76.2349 97.769 76.2273 97.7416 76.2235 97.7135C76.2197 97.6921 76.2146 97.671 76.2076 97.6507C76.1994 97.6331 76.1897 97.6164 76.1789 97.6004L76.1469 97.5471L76.0287 97.4307L75.9586 97.3836C75.9202 97.3617 75.8818 97.3395 75.8404 97.3209L75.7573 97.2924L75.5974 97.2516H75.3803H75.3162C75.2523 97.2516 75.195 97.2895 75.1341 97.3081C75.0548 97.3333 74.9717 97.346 74.8881 97.346C74.9014 97.3972 74.9057 97.4502 74.9011 97.503Z" fill="white"/>
<path d="M72.1248 93.3408V93.376L72.1441 93.3375L72.1248 93.3408Z" fill="#60219F"/>
<path d="M72.144 93.2813C72.144 93.2561 72.144 93.2342 72.144 93.209C72.144 93.1839 72.144 93.1398 72.144 93.1054C72.144 93.0708 72.1215 93.0204 72.1088 92.9828C72.1101 92.9734 72.1101 92.9639 72.1088 92.9544C72.0896 92.92 72.0736 92.8822 72.0512 92.8478C72.029 92.8132 72.0098 92.7818 71.9873 92.7471L71.8723 92.631L71.8052 92.5712H71.7797L71.6677 92.5052H71.6423C71.6125 92.492 71.5814 92.4814 71.5497 92.4738C71.5338 92.4738 71.4569 92.4581 71.4217 92.4457H71.3038L71.195 92.4771L71.0894 92.5336L71.0608 92.5555L70.9809 92.631L70.9458 92.6749L70.9203 92.7095C70.8862 92.7634 70.8554 92.8188 70.8275 92.8759C70.8275 92.8759 70.8275 92.8759 70.8275 92.8916C70.8275 92.9073 70.8053 92.9639 70.7956 92.9985L70.7796 93.0267C70.7796 93.0802 70.7796 93.2247 70.7796 93.2529V93.3094C70.7964 93.4136 70.7964 93.5194 70.7796 93.6236L70.7988 93.6455C70.8251 93.6734 70.8527 93.6996 70.8819 93.724L70.9842 93.7806L71.0321 93.809H71.0705C71.1041 93.8201 71.1381 93.8295 71.1725 93.8371H71.3836L71.5879 93.787L71.6582 93.7619L71.6967 93.7397C71.757 93.7072 71.8157 93.6715 71.8723 93.6331L71.9681 93.5419C71.9846 93.5267 71.9997 93.5097 72.013 93.4916L72.0798 93.3784C72.0785 93.366 72.0785 93.3533 72.0798 93.3408L72.144 93.2813Z" fill="white"/>
<path d="M75.7094 98.631L75.7544 98.6056L75.7094 98.631Z" fill="#60219F"/>
<path d="M76.2842 97.7825C76.2842 97.7321 76.262 97.7007 76.262 97.7229L76.2842 97.8014V97.7825Z" fill="#60219F"/>
<path d="M76.0611 97.4249C76.0289 97.3962 75.9869 97.3774 76.003 97.3899L76.0289 97.4058L76.0611 97.4249Z" fill="#60219F"/>
<path d="M76.2936 97.8333C76.2925 97.8227 76.2925 97.812 76.2936 97.8014C76.2923 97.812 76.2923 97.8227 76.2936 97.8333Z" fill="#60219F"/>
<path d="M76.1027 97.4626L76.0607 97.434L76.1027 97.4626Z" fill="#60219F"/>
<path d="M75.9173 97.3399L75.869 97.3241L75.9173 97.3399Z" fill="#60219F"/>
<path d="M76.1313 98.2946L76.0925 98.3549C76.1185 98.3232 76.1441 98.2787 76.1313 98.2946Z" fill="#60219F"/>
<path d="M76.0895 98.3668L76.0704 98.3987L76.0928 98.3638L76.0895 98.3668Z" fill="#60219F"/>
<path d="M75.8119 98.574L75.754 98.6059C75.7895 98.5934 75.8247 98.571 75.8119 98.574Z" fill="#60219F"/>
<path d="M76.2496 98.0934L76.233 98.1165L76.2496 98.0934Z" fill="#60219F"/>
<path d="M76.2969 97.8672C76.2969 97.8896 76.2969 97.9054 76.2969 97.9212C76.2985 97.9286 76.2985 97.936 76.2969 97.9433C76.2876 97.918 76.2906 97.8926 76.2969 97.8672Z" fill="#60219F"/>
<path d="M76.2302 98.1313L76.2046 98.1884C76.2152 98.1704 76.2237 98.151 76.2302 98.1313Z" fill="#60219F"/>
<path d="M100.776 117.978L100.795 117.93L100.776 117.978Z" fill="#60219F"/>
<path d="M101.086 118.754L101.134 118.7L101.07 118.767L101.086 118.754Z" fill="#60219F"/>
<path d="M100.907 118.901L100.955 118.86L100.916 118.879L100.907 118.901Z" fill="#60219F"/>
<path d="M70.7796 93.7966C70.781 93.7829 70.781 93.769 70.7796 93.7554V93.7966Z" fill="#60219F"/>
<path d="M102.162 116.023L101.999 116.146L102.162 116.023Z" fill="#60219F"/>
<path d="M75.8697 97.3243C75.8309 97.3052 75.7826 97.2924 75.8052 97.3052H75.8375L75.8697 97.3243Z" fill="#60219F"/>
<path d="M71.0161 92.5373C71.0161 92.5373 71.045 92.5182 71.071 92.4961C71.0505 92.5065 71.0319 92.5204 71.0161 92.5373Z" fill="#60219F"/>
<path d="M71.5784 92.433L71.6267 92.4554C71.6131 92.4434 71.5964 92.4357 71.5784 92.433Z" fill="#60219F"/>
<path d="M98.6415 11.2548C88.0764 4.00493 76.8497 2.24585 68.1375 2.24585C63.675 2.27428 59.2239 2.69478 54.8375 3.50232C49.4958 4.41013 35.311 6.82259 22.0939 18.5204C17.5286 22.5632 6.83554 32.0276 3.31168 48.5034C2.57047 51.9587 -0.601979 70.0175 9.54474 86.2762C14.6564 94.4435 20.832 99.8336 27.2343 103.371C27.2728 103.273 27.3174 103.173 27.3558 103.057C27.643 102.285 27.8318 101.481 27.9182 100.663C28.0743 99.1427 27.8843 97.6071 27.3621 96.168C24.8871 92.9766 23.2107 89.2572 22.4687 85.3107C21.7266 81.364 21.9397 77.3012 23.0907 73.4506C22.5642 73.1264 22.0957 72.7189 21.7042 72.2445C21.287 71.7842 20.9098 71.2904 20.5764 70.7681C19.3898 68.9196 18.8305 66.7483 18.979 64.5673C19.0579 63.5912 19.2729 62.6306 19.618 61.7119C19.5124 61.6121 19.4449 61.4795 19.4269 61.3366C19.4089 61.1937 19.4414 61.049 19.5189 60.9266C21.8927 56.9247 21.7553 52.147 20.9822 47.7335C20.602 45.5568 20.0972 43.402 19.7042 41.2283C19.3177 39.1236 18.963 36.9122 19.9183 34.9019C20.3167 34.0265 20.9954 33.3029 21.8507 32.8421C22.7061 32.381 23.6913 32.2076 24.6562 32.348C26.6274 32.5961 28.4899 33.6328 30.2312 34.5469C33.61 36.3461 36.7408 38.5629 39.5472 41.1433C40.9248 42.41 42.2191 43.7614 43.4225 45.1893C44.6345 46.6021 45.7364 48.1026 46.7195 49.6781C47.301 49.4299 47.8887 49.1942 48.483 48.9775C51.0074 48.0845 53.6306 47.4886 56.2976 47.2029C61.859 46.5775 67.4843 46.7724 72.9872 47.7809C75.5208 48.1865 78.002 48.8627 80.3865 49.7974C80.7794 49.9608 81.1691 50.1335 81.5525 50.3126C84.5115 46.9907 87.7151 43.8872 91.1369 41.0272C94.4217 38.2815 97.8919 35.7576 101.523 33.4726C102.421 32.9071 103.322 32.3291 104.258 31.8265C105.194 31.324 106.29 30.8686 107.392 30.903C109.389 30.9595 110.622 32.5052 110.887 34.3364C110.999 35.1701 111.005 36.0141 110.906 36.8494C110.779 38.0274 110.635 39.202 110.498 40.377L109.673 47.5419C109.334 50.4853 109.034 53.4318 108.68 56.3751C108.819 56.3565 108.961 56.3781 109.089 56.4379C109.58 56.6861 109.846 57.1886 110.101 57.6535C110.35 58.117 110.571 58.5943 110.763 59.0828C111.13 60.0126 111.385 60.9813 111.523 61.9695C111.789 63.7149 111.691 65.4952 111.234 67.2019C110.777 68.9085 109.971 70.5056 108.865 71.8957C107.487 73.5959 105.71 74.9421 103.686 75.8191L103.705 75.8443C104.721 77.2328 105.034 79.2054 105.022 80.8702C104.999 84.1244 103.801 87.2531 102.491 90.1964C102.21 90.8247 101.913 91.4531 101.603 92.0811C101.658 92.1547 101.698 92.2378 101.721 92.3263C102.169 94.0665 102.597 95.8097 103.025 97.5532C105.749 95.4688 108.244 93.1094 110.469 90.5138C115.889 84.1149 119.696 76.5473 121.577 68.428C124.75 53.9784 120.414 42.1738 118.782 37.7321C114.647 26.5022 107.875 17.5938 98.6415 11.2548Z" fill="#60219F"/>
<path d="M103.654 107.297C98.9992 109.976 94.0807 112.187 88.974 113.894C83.9162 115.593 78.7039 116.81 73.409 117.528C72.4219 117.66 71.4282 117.773 70.4379 117.874C70.3483 120.192 70.2514 122.511 70.147 124.831C69.9597 129.06 69.7689 133.288 69.5752 137.516L69.2781 143.779C69.179 145.912 69.1695 148.073 68.9587 150.2C68.9509 150.276 68.9349 150.35 68.9106 150.423C70.6273 150.333 72.3367 150.189 74.0385 149.992C81.2957 149.113 88.4171 147.369 95.2454 144.797C101.664 142.39 107.842 139.405 113.702 135.879C113.143 133.228 112.606 130.577 111.948 127.944C110.71 123.003 109.212 118.129 107.459 113.341C106.633 111.081 105.746 108.845 104.798 106.631C104.418 106.848 104.038 107.074 103.654 107.297ZM102.303 115.936C102.213 116.027 102.124 116.118 102.031 116.206C102.096 116.342 102.15 116.484 102.191 116.63C102.311 117.167 102.258 117.727 102.041 118.233C101.823 118.739 101.452 119.167 100.977 119.457C100.48 119.762 99.9062 119.924 99.3204 119.924C98.7348 119.924 98.1609 119.762 97.664 119.457C97.3815 119.268 97.1512 119.013 96.9929 118.716L96.3541 118.904L96.9929 118.681C96.9134 118.524 96.8552 118.357 96.8206 118.185C96.5873 118.238 96.3508 118.292 96.1146 118.339C96.3446 118.244 96.5746 118.156 96.8046 118.069C96.7805 117.902 96.7805 117.732 96.8046 117.566C96.79 117.52 96.79 117.471 96.8046 117.425C97.1529 116.027 98.2326 114.739 99.8045 114.751C100.243 114.762 100.671 114.882 101.048 115.102C101.425 115.322 101.739 115.634 101.958 116.008C102.16 115.905 102.357 115.79 102.546 115.665C102.574 115.641 102.607 115.621 102.641 115.606C102.571 115.675 102.498 115.741 102.424 115.807C102.351 115.873 102.338 115.901 102.303 115.936Z" fill="#CDCBCB"/>
<path d="M63.879 112.019C63.2399 112.019 62.5244 112.059 61.7223 112.088C60.0996 112.144 58.1634 112.213 55.9943 112.213C48.5344 112.213 38.2756 111.393 28.2632 106.487C28.0848 107.489 27.847 108.48 27.5507 109.455C27.9181 109.622 28.2824 109.792 28.6531 109.952C33.4833 112.044 38.5132 113.659 43.6687 114.773C48.8136 115.891 54.0557 116.523 59.3232 116.658C64.5731 116.797 69.8249 116.453 75.0096 115.631C80.2376 114.797 85.3726 113.473 90.3448 111.679C95.1491 109.938 99.7666 107.735 104.13 105.102C103.782 104.316 103.431 103.531 103.073 102.752C102.801 102.149 102.498 101.555 102.21 100.955C96.7121 104.699 90.6089 107.501 84.1597 109.242C74.9712 111.802 66.9141 111.959 63.879 112.019Z" fill="#663399"/>
<path d="M71.0128 93.8122H71.0385L70.9906 93.7838C70.9363 93.7679 70.9649 93.7995 71.0128 93.8122Z" fill="#60219F"/>
<path d="M43.3843 100.628L43.4322 100.704L43.5312 100.801C43.5688 100.826 43.6083 100.848 43.6495 100.867C43.7058 100.887 43.7634 100.902 43.8219 100.914H43.9433L44.0105 100.898L44.0903 100.851L44.1222 100.82C44.1422 100.791 44.1604 100.76 44.1766 100.729C44.1858 100.699 44.1934 100.668 44.1988 100.638C44.202 100.583 44.202 100.529 44.1988 100.474C44.1988 100.431 44.1766 100.383 44.1636 100.339C44.1509 100.296 44.1157 100.255 44.0903 100.214L44.0232 100.148L43.9785 100.12H43.9209H43.8156L43.758 100.135C43.7047 100.161 43.6535 100.19 43.6046 100.223C43.5518 100.267 43.5025 100.316 43.4576 100.368C43.4354 100.402 43.4162 100.437 43.397 100.471L43.3586 100.587C43.3681 100.6 43.3767 100.614 43.3843 100.628Z" fill="white"/>
<path d="M49.2752 95.1723L49.2371 95.1344L49.1507 95.0843L49.0582 95.0621H48.9048C48.8512 95.0721 48.799 95.0868 48.7481 95.1062C48.7159 95.1206 48.685 95.1374 48.6555 95.1566L48.563 95.2475V95.2851V95.3731C48.5716 95.4104 48.5822 95.4469 48.5949 95.4832C48.6174 95.5268 48.6428 95.5687 48.6715 95.6088C48.7034 95.6464 48.7386 95.681 48.777 95.7124C48.8098 95.734 48.8439 95.7541 48.879 95.7719L48.9591 95.7938H49.0133H49.0742L49.1315 95.7625C49.1634 95.7311 49.1986 95.6997 49.2306 95.6653C49.2625 95.6307 49.2722 95.5931 49.2912 95.5584C49.3082 95.5089 49.322 95.4586 49.3328 95.4077C49.3328 95.3825 49.3328 95.3544 49.3328 95.3292L49.3042 95.2256L49.2752 95.1723Z" fill="white"/>
<path d="M43.1033 100.977L43.0839 100.997C43.0984 100.986 43.1112 100.973 43.1224 100.958L43.1033 100.977Z" fill="#60219F"/>
<path d="M71.0737 93.8406L71.0385 93.8215L71.0737 93.8406Z" fill="#60219F"/>
<path d="M72.0162 93.5261L71.9938 93.5518C71.9938 93.5518 72.0066 93.5389 72.0162 93.5261Z" fill="#60219F"/>
<path d="M64.47 144.228C64.47 135.574 64.4806 126.921 64.502 118.269C62.0887 118.351 59.6734 118.333 57.2561 118.213C51.8676 117.938 46.5184 117.156 41.282 115.876C36.3971 114.673 31.6424 113.008 27.0841 110.903C27.0076 111.114 26.9341 111.324 26.8542 111.532C25.5603 115.009 23.9374 118.376 22.4326 121.766C21.6616 123.506 20.8885 125.243 20.1132 126.977L18.9631 129.543C18.6972 130.241 18.3623 130.911 17.9631 131.544C18.2985 131.906 18.6372 132.261 18.9854 132.612C23.5725 137.188 28.918 140.963 34.7933 143.776C40.6994 146.617 46.999 148.585 53.4893 149.619C57.1211 150.2 60.7936 150.498 64.473 150.511C64.4711 148.417 64.47 146.323 64.47 144.228Z" fill="#CDCBCB"/>
<path d="M71.5816 93.822C71.6045 93.8157 71.6261 93.8062 71.646 93.7933C71.6106 93.8059 71.5721 93.822 71.5816 93.822Z" fill="#60219F"/>
<path d="M66.0387 118.194L66.0769 124.945C66.128 133.464 66.1588 141.982 66.1697 150.498C66.5721 150.498 66.9715 150.482 67.3741 150.47C67.337 150.379 67.3176 150.282 67.3165 150.184C67.3165 148.984 67.4155 147.781 67.4699 146.584L67.6423 142.981C68.0417 134.654 68.4284 126.333 68.8979 118.003C67.9459 118.082 66.9928 118.146 66.0387 118.194Z" fill="#848484"/>
<path d="M71.253 93.8718C71.253 93.8718 71.2271 93.8718 71.1982 93.8718C71.2162 93.874 71.2348 93.874 71.253 93.8718Z" fill="#60219F"/>
<path d="M42.2597 104.649C43.5126 105.508 44.9917 105.992 46.5184 106.041C49.63 106.173 52.5501 104.7 55.0166 102.755C56.2657 101.769 57.4382 100.679 58.598 99.5731C59.7673 98.5269 60.821 97.3623 61.7416 96.0988C64.1123 92.6844 65.2177 87.5392 64.0068 86.5434C63.3679 86.022 61.9748 86.5245 61.2783 87.514C59.9588 89.3988 62.4156 92.1253 60.7671 94.6979C59.9905 95.8426 59.0837 96.8963 58.0644 97.8391C57.0228 98.8506 55.9686 99.8526 54.8697 100.782C52.7482 102.57 50.2819 104.134 47.5472 104.354C46.2351 104.49 44.911 104.249 43.7358 103.66C42.6372 103.043 41.7009 102.182 41.0009 101.147C39.0585 98.3919 38.5985 94.9366 37.9498 91.6448C37.7997 90.8781 36.573 91.0354 36.6721 91.8331C37.0682 95.1439 37.6752 98.6244 39.3875 101.464C40.1092 102.711 41.0874 103.795 42.2597 104.649Z" fill="black"/>
<path d="M89.7953 91.4247C89.5704 90.9844 89.2416 90.6032 88.8368 90.3128C88.3543 89.9545 87.5588 90.5577 87.7985 91.1671C88.038 91.7765 88.3768 92.4235 88.5716 93.1022C88.7594 93.7478 88.8382 94.4197 88.8049 95.0905C88.7353 96.4849 88.3043 97.8388 87.5525 99.0232C85.8624 101.734 82.6931 102.862 79.8274 103.324C78.2182 103.569 76.5889 103.662 74.9618 103.603C73.2188 103.548 71.4951 103.23 69.8501 102.661C67.2751 101.677 65.2591 99.6077 64.029 97.0067C63.366 95.6133 62.9571 94.1164 62.8216 92.5837C62.7206 90.989 62.8738 89.3887 63.2751 87.8406C63.4604 87.0553 62.3485 86.4741 61.9973 87.2659C60.7193 90.1775 60.9972 93.8057 62.0899 96.7333C63.2207 99.7584 65.2846 102.416 68.0707 103.833C71.5048 105.591 75.5655 105.717 79.2908 105.265C82.6612 104.85 86.3194 103.694 88.5332 100.72C89.6811 99.1788 90.3725 97.3555 90.5299 95.4518C90.6063 94.5493 90.5308 93.6409 90.3064 92.7628C90.1866 92.2998 90.015 91.8509 89.7953 91.4247Z" fill="black"/>
<path d="M71.039 93.822L70.9907 93.7933L71.039 93.822Z" fill="black"/>
<path d="M70.2782 91.293L70.2365 91.3244C70.0804 91.3366 69.9335 91.402 69.8212 91.5097C69.4607 91.8829 69.238 92.3648 69.1893 92.8776C69.1406 93.3901 69.2689 93.904 69.553 94.3367C69.8423 94.7878 70.302 95.1074 70.8308 95.2256C71.376 95.3276 71.9405 95.2411 72.4281 94.9807C72.9109 94.7256 73.2813 94.3053 73.4697 93.7996C73.5644 93.5211 73.596 93.2256 73.563 92.9339C73.5297 92.6419 73.4326 92.3608 73.2781 92.1097C72.6966 91.1106 71.294 90.5862 70.2782 91.293ZM71.6263 92.4552L71.5784 92.433C71.5963 92.4357 71.6128 92.4433 71.6263 92.4552ZM71.0705 92.4961C71.0448 92.518 71.0194 92.5399 71.0161 92.5369C71.0316 92.5202 71.05 92.5064 71.0705 92.4961ZM70.7509 93.8028V93.762C70.7626 93.7741 70.7721 93.7879 70.7796 93.8028H70.7509ZM71.1823 93.8623C71.211 93.8623 71.2396 93.8623 71.2367 93.8623C71.2237 93.8634 71.211 93.8634 71.1982 93.8623H71.1823ZM71.5657 93.8215C71.5657 93.8215 71.5944 93.8215 71.6296 93.7933C71.615 93.8047 71.5987 93.8142 71.5817 93.8215H71.5657ZM71.9778 93.5514L72 93.5263C72 93.5263 71.9971 93.5514 71.9938 93.5514H71.9778ZM72.0864 93.385L72.0192 93.4981C72.0063 93.5162 71.9911 93.533 71.9746 93.5482L71.8788 93.6394C71.822 93.6778 71.7635 93.7135 71.7029 93.7463L71.6648 93.7682L71.5944 93.7933L71.3898 93.8437H71.179C71.1444 93.8361 71.1103 93.8266 71.0767 93.8153H71.0386L71.0738 93.8342L71.0386 93.8153H71.0129C70.965 93.8153 70.9363 93.7714 70.9907 93.7963L70.8884 93.74C70.8592 93.7154 70.8313 93.6892 70.8053 93.6613L70.7861 93.6394L70.8021 93.6645L70.7767 93.6299L70.7317 93.5639C70.7317 93.5639 70.7509 93.5639 70.7767 93.6269C70.7932 93.5227 70.7932 93.4167 70.7767 93.3128V93.2562C70.7767 93.2278 70.7767 93.0833 70.7767 93.03L70.7956 92.9515C70.7956 92.9169 70.8181 92.8822 70.8275 92.8446C70.8373 92.807 70.8275 92.8446 70.8275 92.8289C70.8554 92.7718 70.8862 92.7164 70.9203 92.6625L70.9458 92.6279L70.981 92.584L71.0608 92.5085L71.0897 92.4866L71.195 92.4301L71.3038 92.3987H71.4188C71.4537 92.3987 71.5305 92.4206 71.5465 92.4268C71.5782 92.4344 71.6093 92.4449 71.6391 92.4582H71.6648L71.7765 92.5242H71.802L71.8691 92.584L71.9841 92.7001C72.0065 92.7348 72.029 92.7661 72.0479 92.8008C72.0671 92.8351 72.0864 92.873 72.1056 92.9074C72.1069 92.9169 72.1069 92.9263 72.1056 92.9358C72.1056 92.9734 72.131 93.0175 72.1407 93.0581C72.1502 93.099 72.1407 93.1274 72.1407 93.162C72.1407 93.1964 72.1407 93.2091 72.1407 93.2343L72.1215 93.2876L72.1023 93.3252L72.0864 93.385ZM72.131 93.2624C72.1348 93.2386 72.1348 93.2143 72.131 93.1902C72.131 93.1902 72.1567 93.231 72.147 93.2624H72.131Z" fill="black"/>
<path d="M72.1085 93.3727V93.3375C72.1074 93.3493 72.1074 93.361 72.1085 93.3727Z" fill="black"/>
<path d="M76.2842 97.8044L76.262 97.726C76.2658 97.753 76.2733 97.7795 76.2842 97.8044Z" fill="black"/>
<path d="M75.7476 98.6092L75.8057 98.5773L75.7476 98.6092Z" fill="black"/>
<path d="M74.9904 98.2945C75.0035 98.3128 75.0152 98.3319 75.0259 98.3516C74.9809 98.2692 74.9776 98.2692 74.9904 98.2945Z" fill="black"/>
<path d="M76.0926 98.3672L76.1313 98.3071L76.0893 98.3704L76.0926 98.3672Z" fill="black"/>
<path d="M76.2717 97.9936C76.2701 97.9852 76.2701 97.9767 76.2717 97.9683C76.2717 97.9683 76.2717 97.9524 76.2717 97.9429C76.2731 97.9355 76.2731 97.9281 76.2717 97.9208C76.2701 97.9451 76.2701 97.9694 76.2717 97.9936Z" fill="black"/>
<path d="M76.2109 98.1851L76.2369 98.1281C76.1853 98.1979 76.1886 98.2072 76.2109 98.1851Z" fill="black"/>
<path d="M75.9488 99.969C76.3217 99.884 76.6665 99.7076 76.9509 99.4559C77.2353 99.2043 77.4501 98.8858 77.5749 98.5302C77.7042 98.1803 77.7286 97.8015 77.6455 97.4386C77.5622 97.0754 77.3746 96.7434 77.1054 96.482C76.8386 96.2363 76.5171 96.055 76.1667 95.9525C75.8162 95.8499 75.4463 95.8291 75.0862 95.8916C74.9766 95.9089 74.8694 95.9384 74.7669 95.9795C74.5672 96.0512 74.3975 96.186 74.2844 96.3627C74.2092 96.4663 74.1599 96.5857 74.1407 96.7115C74.0495 96.7234 73.9629 96.757 73.8879 96.8089C73.8127 96.8609 73.7516 96.9296 73.7094 97.01C73.5505 97.3404 73.4826 97.7062 73.5129 98.0707C73.5432 98.4352 73.6704 98.7854 73.8817 99.0863C74.1014 99.4153 74.414 99.6743 74.7812 99.831C75.1484 99.9879 75.5543 100.036 75.9488 99.969ZM75.1725 97.3271C75.2331 97.3082 75.2907 97.2862 75.3546 97.2706C75.2907 97.2706 75.3546 97.2706 75.3992 97.2706H75.4569H75.409H75.5719C75.5272 97.2706 75.5719 97.2706 75.6293 97.2706H75.6837H75.639L75.7987 97.3114C75.7762 97.3114 75.8244 97.3114 75.8625 97.3304L75.9104 97.346H75.8723C75.9137 97.3647 75.9521 97.3869 75.9902 97.4088C75.9743 97.4088 76.0159 97.4088 76.0479 97.4432L76.0893 97.4716L76.0544 97.4497L76.1724 97.5658L76.2043 97.6194C76.2151 97.6353 76.2249 97.6521 76.2332 97.6694C76.24 97.69 76.2454 97.7111 76.2492 97.7322C76.2492 97.7103 76.2684 97.7322 76.2714 97.792V97.8109C76.27 97.8212 76.27 97.8318 76.2714 97.8423C76.27 97.8329 76.27 97.8234 76.2714 97.8139C76.2714 97.8518 76.2714 97.8894 76.2714 97.927C76.2714 97.9113 76.2714 97.8956 76.2714 97.8737C76.2714 97.8989 76.2714 97.924 76.2714 97.9489C76.2714 97.9741 76.2714 98.0087 76.2714 97.9993C76.2714 98.0401 76.2492 98.081 76.2332 98.1219L76.2492 98.0999L76.23 98.1343C76.2232 98.153 76.2148 98.1708 76.2043 98.1879C76.184 98.2263 76.1604 98.2631 76.1342 98.2977C76.1342 98.2977 76.1342 98.3259 76.0958 98.3573L76.0733 98.3919L76.0925 98.3605C76.0638 98.3919 76.0319 98.4266 75.9967 98.4579L75.9361 98.5113C75.9023 98.5353 75.866 98.5554 75.8273 98.5711C75.8273 98.5711 75.8052 98.59 75.77 98.6024L75.7253 98.6276L75.7635 98.6057L75.6517 98.6338H75.6293C75.6065 98.6411 75.5819 98.6411 75.5592 98.6338H75.54H75.4377H75.4601L75.3673 98.6057L75.2012 98.5083L75.1213 98.436L75.0542 98.3638V98.3416L75.0191 98.285C74.9933 98.2488 74.9698 98.2112 74.949 98.1722L74.9138 98.1062C74.9149 98.101 74.9149 98.0956 74.9138 98.0905C74.8913 98.0258 74.8743 97.9598 74.8626 97.8924C74.8626 97.858 74.8626 97.8234 74.8626 97.7888C74.8626 97.7544 74.8626 97.7417 74.8626 97.7165C74.8797 97.6434 74.9032 97.572 74.933 97.503C74.9484 97.4584 74.9571 97.4118 74.9584 97.3647C75.0312 97.3617 75.1032 97.349 75.1725 97.3271Z" fill="black"/>
<path d="M76.0612 97.4248L76.0227 97.3994L75.9968 97.3835L76.0677 97.431L76.0612 97.4248Z" fill="black"/>
<path d="M75.5433 98.6433H75.6358C75.572 98.6338 75.5433 98.6371 75.5433 98.6433Z" fill="black"/>
<path d="M75.869 97.3241H75.8273H75.7954L75.8785 97.3525L75.869 97.3241Z" fill="black"/>
<path d="M42.0264 100.88C42.0927 101.129 42.2096 101.362 42.3703 101.566C42.5308 101.769 42.7319 101.939 42.9608 102.064C43.1897 102.189 43.4422 102.267 43.7028 102.293C43.9634 102.32 44.2267 102.294 44.4767 102.218C44.8561 102.091 45.1781 101.838 45.3873 101.502C45.5599 101.2 45.6484 100.858 45.6438 100.512C45.6395 100.166 45.542 99.8266 45.3618 99.5292C45.1597 99.1899 44.8434 98.9306 44.4672 98.7972C44.1076 98.6649 43.7122 98.6592 43.3491 98.7815C42.8964 98.9268 42.5092 99.2223 42.2532 99.6172C42.1449 99.789 42.0681 99.9781 42.0264 100.176C42.001 100.315 42.001 100.458 42.0264 100.597C42.0137 100.691 42.0137 100.786 42.0264 100.88ZM43.4801 100.365C43.525 100.313 43.574 100.264 43.627 100.22C43.6757 100.187 43.7271 100.158 43.7802 100.132L43.8378 100.116H43.9433H44.0007L44.0454 100.145L44.1125 100.211C44.1382 100.251 44.1636 100.292 44.1861 100.336C44.2085 100.38 44.2115 100.428 44.2212 100.471C44.2245 100.526 44.2245 100.58 44.2212 100.635C44.2156 100.665 44.2083 100.696 44.1988 100.726C44.1825 100.757 44.1644 100.788 44.1444 100.817L44.1125 100.848L44.0326 100.895L43.9655 100.911H43.8346C43.7761 100.899 43.7185 100.884 43.6622 100.864C43.6211 100.845 43.5815 100.823 43.5439 100.798L43.4449 100.701L43.397 100.625C43.3929 100.607 43.3878 100.589 43.381 100.572L43.4192 100.456C43.4257 100.424 43.4449 100.39 43.4671 100.355L43.4801 100.365ZM43.0966 100.993L43.1158 100.974H43.1351C43.1191 100.984 43.102 100.993 43.0839 100.999L43.0966 100.993Z" fill="black"/>
<path d="M49.4606 93.7022C49.1051 93.6148 48.7319 93.6234 48.3809 93.7273C47.9856 93.8513 47.6468 94.1067 47.4225 94.4498C47.3781 94.5151 47.3486 94.5889 47.3362 94.6666C47.301 94.7196 47.272 94.7767 47.2498 94.8363C47.1502 95.1715 47.1516 95.5285 47.2544 95.8629C47.357 96.1977 47.5564 96.4956 47.8281 96.721C48.1377 96.9835 48.5257 97.1402 48.9335 97.1669C49.2745 97.1813 49.6108 97.0866 49.892 96.8969C50.1653 96.7107 50.3853 96.4588 50.5309 96.1649C50.6791 95.8729 50.7495 95.5485 50.7354 95.2224C50.7081 94.8382 50.552 94.4737 50.2914 94.186C50.0676 93.9495 49.7791 93.7815 49.4606 93.7022ZM49.3234 95.3891C49.3123 95.44 49.2985 95.4903 49.2818 95.5398C49.2626 95.5745 49.2433 95.6121 49.2212 95.6467C49.1987 95.6811 49.154 95.7125 49.1221 95.7439L49.0645 95.7755H49.0039H48.9495L48.8696 95.7533C48.8345 95.7355 48.8004 95.7154 48.7674 95.6938C48.7292 95.6624 48.6938 95.6278 48.6621 95.5902C48.6334 95.5501 48.6077 95.5082 48.5852 95.4643C48.5728 95.4283 48.5622 95.3915 48.5533 95.3545V95.2665V95.2289L48.6461 95.1377C48.6756 95.1185 48.7065 95.1017 48.7387 95.0874C48.7893 95.0682 48.8418 95.0533 48.8953 95.0435H49.055L49.1475 95.0655L49.2339 95.1158L49.2723 95.1534L49.2945 95.188L49.3234 95.2917C49.3264 95.3355 49.3234 95.3639 49.3234 95.3891Z" fill="black"/>
<path d="M58.7257 70.6802C59.3803 69.9558 60.1745 69.3664 61.0623 68.9457C61.9502 68.5251 62.914 68.2819 63.8979 68.2299C64.8764 68.1696 65.8579 68.2878 66.7926 68.5787C67.2577 68.7219 67.7056 68.9145 68.128 69.1535C68.6232 69.4395 69.0226 69.7566 69.6103 69.7377C69.7313 69.7369 69.8471 69.6895 69.9326 69.6054C70.0178 69.5212 70.0663 69.4076 70.0671 69.2885C69.9553 68.2992 68.9522 67.8311 68.1088 67.4698C67.2523 67.1039 66.3442 66.8688 65.4155 66.7725C63.5886 66.5852 61.7464 66.9351 60.1217 67.7777C59.2022 68.2518 58.3928 68.9086 57.7448 69.7063C57.6208 69.8367 57.5518 70.0086 57.5518 70.1869C57.5518 70.3655 57.6208 70.5373 57.7448 70.6675C57.8741 70.7957 58.0492 70.8688 58.2326 70.8712C58.4161 70.8734 58.5931 70.8049 58.7257 70.6802Z" fill="black"/>
<path d="M29.3109 55.3542C30.5698 55.2097 31.9052 54.701 32.7262 53.7303C32.809 53.644 32.8612 53.5336 32.875 53.4159C32.8886 53.2979 32.8631 53.1788 32.8025 53.0766C32.7419 52.974 32.6491 52.8936 32.5379 52.8471C32.4269 52.8008 32.3035 52.7911 32.1863 52.8192C31.8486 52.8736 31.5177 52.9629 31.1992 53.0863C30.9597 53.1932 30.7294 53.3155 30.4835 53.4005C29.9682 53.6183 29.4176 53.7439 28.8574 53.7712C27.8032 53.7712 27.2601 53.0078 27.1001 52.0496C27.0294 51.5028 27.0112 50.9507 27.046 50.4006L27.1226 48.2363C27.1737 46.6939 27.2633 45.1423 27.1578 43.5999C27.1532 43.4456 27.0934 43.2979 26.9887 43.1829C26.884 43.0679 26.7413 42.9932 26.5859 42.9715C26.4282 42.9464 26.2666 42.9799 26.133 43.066C25.9993 43.152 25.9033 43.2843 25.8639 43.4364C25.6869 44.8011 25.5803 46.1733 25.5444 47.5485C25.4965 48.7859 25.391 50.0393 25.4166 51.28C25.439 52.37 25.6434 53.5009 26.3942 54.346C26.7605 54.7343 27.2176 55.0289 27.7258 55.2048C28.234 55.3805 28.7781 55.4319 29.3109 55.3542Z" fill="black"/>
<path d="M97.8396 45.3183C98.6073 44.7768 99.4269 44.3108 100.287 43.9266C100.99 43.6124 101.843 43.3234 102.629 43.4492C103.354 43.5653 103.689 44.1466 103.696 44.8534C103.696 45.8741 103.376 46.914 103.146 47.9033C102.867 49.2311 102.579 50.5557 102.28 51.8771C102.127 52.5649 101.961 53.2561 101.827 53.9439C101.757 54.2768 101.68 54.6099 101.616 54.9427C101.57 55.3207 101.592 55.7036 101.683 56.0735C101.76 56.5888 102.498 56.5763 102.734 56.2088C102.935 55.9566 103.09 55.6731 103.194 55.37C103.284 55.015 103.354 54.6537 103.43 54.2989L103.843 52.3828L104.686 48.4718C105.101 46.537 106.2 43.38 103.839 42.1896C101.951 41.2471 99.6542 42.3436 98.0152 43.3142C96.2309 44.3847 94.6687 45.7777 93.4117 47.4197C92.0206 49.2206 91.0518 51.3015 90.5745 53.5137C90.3734 54.4559 91.8174 54.8485 92.0347 53.9093C92.8438 50.4472 94.9074 47.3932 97.8396 45.3183Z" fill="black"/>
<path d="M99.9449 9.41729C81.415 -3.2983 61.1183 0.157024 54.4475 1.29414C48.9302 2.2365 34.2724 4.72749 20.5826 16.8557C15.8511 21.0429 4.7715 30.8498 1.09427 48.0448C0.324316 51.6446 -2.98231 70.4697 7.61806 87.4542C13.1611 96.3375 19.9117 102.07 26.8508 105.758C26.6291 106.976 26.3195 108.177 25.9243 109.351C25.9083 109.377 25.886 109.399 25.87 109.427C25.8059 109.543 25.7729 109.672 25.7742 109.804C25.1352 111.689 24.3269 113.507 23.5154 115.314C21.9723 118.753 20.4165 122.183 18.8893 125.626L17.6114 128.485C17.2701 129.162 16.9714 129.86 16.7169 130.574C16.5754 130.594 16.4421 130.652 16.3307 130.74C16.2193 130.828 16.1339 130.944 16.0831 131.076C16.0323 131.207 16.0181 131.349 16.0419 131.488C16.0657 131.627 16.1267 131.757 16.2185 131.865C20.6596 136.797 25.9421 140.929 31.8283 144.074C37.7041 147.215 44.0256 149.471 50.582 150.768C55.1852 151.687 59.8684 152.164 64.5655 152.191C64.6443 152.321 64.756 152.429 64.8897 152.504C65.0237 152.579 65.1752 152.619 65.3292 152.619C65.4831 152.619 65.6344 152.579 65.7683 152.504C65.9023 152.429 66.014 152.321 66.0925 152.191C67.852 152.168 69.6111 152.085 71.3706 151.94C78.8037 151.298 86.1264 149.745 93.1688 147.319C100.242 144.886 107.048 141.756 113.481 137.977C114.28 137.513 115.079 137.035 115.861 136.554C116.644 136.074 116.104 134.836 115.302 134.984C114.913 132.785 114.405 130.586 113.874 128.387C113.27 125.912 112.596 123.456 111.855 121.018C110.34 116.077 108.555 111.22 106.507 106.468C105.941 105.153 105.355 103.846 104.75 102.548C104.453 101.919 104.143 101.291 103.833 100.644C103.731 100.44 103.632 100.233 103.514 100.016C106.716 97.6648 109.632 94.958 112.203 91.9494C117.865 85.2716 121.843 77.3741 123.813 68.8992C127.126 53.8213 122.628 41.5707 120.938 36.9688C116.631 25.2961 109.574 16.0264 99.9449 9.41729ZM29.365 98.4861C29.5312 98.6557 29.6846 98.8254 29.8635 98.9888C30.3024 99.4077 30.7537 99.815 31.2181 100.211C31.7293 100.638 32.2342 101.131 32.8953 101.298C33.0227 101.328 33.1561 101.321 33.2795 101.278C33.4026 101.235 33.5109 101.158 33.5907 101.056C33.6703 100.954 33.7184 100.831 33.7287 100.703C33.7393 100.575 33.7117 100.446 33.6494 100.333C33.3437 99.9181 32.9678 99.5579 32.5375 99.2684C32.1116 98.9228 31.6984 98.5648 31.2979 98.1941C28.9962 96.0701 27.1277 93.5338 25.7933 90.7212C24.3227 87.5773 23.5474 84.1626 23.5188 80.7025C23.4901 77.2423 24.2088 73.8157 25.6272 70.6489C25.7138 70.4895 25.736 70.3036 25.6892 70.129C25.6423 69.9542 25.5301 69.8032 25.3748 69.7064C25.2132 69.6176 25.0227 69.5943 24.8438 69.6411C24.6649 69.688 24.5116 69.8016 24.4164 69.9577C24.0969 70.6269 23.8317 71.3086 23.5825 71.9994C23.2822 71.7137 22.9659 71.4374 22.6944 71.1262C22.3014 70.6754 21.9566 70.1859 21.6657 69.6655C21.0659 68.6386 20.6844 67.5026 20.5443 66.3266C20.3427 64.4326 20.7469 62.5243 21.7008 60.8672C21.8509 60.6034 22.0203 60.3457 22.1864 60.0976C22.4223 59.8183 22.5472 59.4647 22.5378 59.1018C22.5384 58.9854 22.4985 58.8723 22.4247 58.7817C22.3508 58.6908 22.2476 58.6274 22.1321 58.6023C23.0011 55.9764 23.1193 53.0988 22.8573 50.3693C22.6171 48.2077 22.2663 46.0597 21.8062 43.9328C21.5985 42.8993 21.3845 41.8659 21.196 40.8263C20.974 39.7931 20.8573 38.7407 20.8478 37.6851C20.8797 36.1365 21.5538 34.3113 23.2535 33.9157C24.1895 33.6924 25.1704 33.9752 26.0553 34.2988C26.896 34.6271 27.7173 35.0013 28.5153 35.4202C31.7777 37.0592 34.8149 39.0996 37.5534 41.4922C39.0898 42.8368 40.5289 44.2853 41.86 45.827C43.0696 47.2633 44.198 48.764 45.2401 50.3222C43.7929 51.0038 42.3809 51.7577 41.0133 52.5681C36.2791 55.3434 32.1368 58.9949 28.8157 63.3205C28.413 63.8481 28.0266 64.3885 27.6527 64.9349C27.1382 65.6796 28.3557 66.3642 28.8731 65.6354C31.9078 61.3873 35.7347 57.7442 40.1509 54.8988C42.4207 53.4417 44.8101 52.1736 47.2945 51.1074C49.6097 50.1222 52.0386 49.4186 54.5273 49.0122C59.7894 48.1233 65.2907 48.2269 70.5653 48.9713C73.0629 49.2901 75.527 49.824 77.9294 50.5671C78.91 50.8869 79.8701 51.2647 80.8048 51.6979C80.8392 51.8167 80.9041 51.9249 80.9931 52.0121C81.1003 52.1119 81.2329 52.1815 81.3768 52.2128C81.5211 52.2445 81.671 52.2369 81.8111 52.1912C82.7496 52.6707 83.6594 53.2024 84.5364 53.7837C88.5042 56.4318 91.7982 60.2294 93.3444 64.7308C93.4435 65.0166 93.52 65.315 93.6191 65.5978C93.7181 65.8803 93.9129 66.1945 94.0537 66.4835C94.341 67.0804 95.3314 66.7977 95.3027 66.1536C95.3052 65.8222 95.2784 65.4912 95.2229 65.1643C95.1412 64.8523 95.0422 64.5449 94.9258 64.244C94.7053 63.6157 94.4563 63.0187 94.1846 62.4221C93.6653 61.2899 93.0454 60.205 92.3316 59.1803C90.8871 57.1004 89.129 55.249 87.1176 53.6895C85.8266 52.6859 84.4498 51.7934 83.0029 51.0225C88.2114 45.3856 94.0894 40.3836 100.51 36.1238C101.362 35.5585 102.224 35.0086 103.095 34.4747C103.942 33.9127 104.827 33.4077 105.743 32.9637C106.478 32.6495 107.398 32.3795 108.155 32.7783C108.409 32.9288 108.627 33.1317 108.792 33.3731C108.958 33.6145 109.067 33.8886 109.114 34.1763C109.264 34.8847 109.302 35.6115 109.226 36.331C109.149 37.3929 108.992 38.4515 108.871 39.5101L108.066 46.4426C107.465 51.5786 106.788 56.7146 106.296 61.863C106.298 62.0841 106.388 62.2954 106.547 62.4518C106.706 62.6082 106.921 62.6967 107.146 62.6983C107.37 62.6929 107.582 62.6031 107.741 62.4475C107.899 62.2919 107.99 62.0827 107.996 61.863C108.171 60.5782 108.315 59.2901 108.485 58.0023C108.526 58.0714 108.564 58.1406 108.606 58.2159C108.804 58.5803 108.996 58.9511 109.159 59.3342C109.464 60.0576 109.695 60.8087 109.849 61.577C110.327 63.8438 110.098 66.1996 109.192 68.3363C108.285 70.473 106.744 72.2906 104.769 73.5513C103.308 74.463 101.68 75.0862 99.9768 75.3857C99.2099 75.5397 99.3699 76.8213 100.165 76.746C100.956 76.6694 101.735 76.5095 102.491 76.2684C102.498 76.352 102.519 76.434 102.555 76.5103C102.866 77.143 103.119 77.8022 103.309 78.4798C103.475 79.1779 103.558 79.8926 103.558 80.6097C103.544 82.1007 103.311 83.5819 102.865 85.0072C101.98 88.026 100.568 90.9317 99.0311 93.674C98.5838 94.4717 98.111 95.2445 97.6413 96.036C97.3923 96.4549 97.1388 96.8633 96.8812 97.261C96.5729 97.6461 96.3619 98.0969 96.2645 98.5772C96.2068 99.0484 96.8011 99.2651 97.1591 99.083C97.5376 98.8357 97.8483 98.4999 98.0631 98.1061C98.3124 97.7511 98.5583 97.3961 98.8011 97.0348C99.2868 96.3156 99.7341 95.5744 100.165 94.8362C100.344 94.522 100.52 94.2079 100.693 93.8937C101.033 95.4204 101.382 96.9428 101.737 98.4612C101.631 98.5242 101.544 98.6143 101.485 98.7218C93.2868 104.527 81.2423 109.455 63.8468 109.798C63.2076 109.798 62.4697 109.839 61.652 109.867C54.553 110.121 41.2722 110.592 28.5792 104.106C28.659 103.902 28.7229 103.707 28.7838 103.544C29.1063 102.647 29.3147 101.714 29.4034 100.767C29.4754 100.007 29.4627 99.2427 29.365 98.4861ZM34.7962 143.767C28.9201 140.955 23.5735 137.181 18.9852 132.606C18.637 132.254 18.2983 131.899 17.9629 131.538C18.3621 130.905 18.697 130.235 18.9628 129.537L20.113 126.971C20.8925 125.237 21.6657 123.5 22.4324 121.759C23.9372 118.37 25.5601 115.003 26.854 111.525C26.9339 111.315 27.0074 111.104 27.0841 110.897C31.6424 113.001 36.3971 114.667 41.2817 115.87C46.5181 117.149 51.8673 117.932 57.2558 118.207C59.6712 118.328 62.0863 118.347 64.5017 118.263C64.4781 126.916 64.4676 135.569 64.4697 144.222C64.4697 146.316 64.4697 148.41 64.4697 150.505C60.7901 150.491 57.1175 150.191 53.4861 149.609C46.9968 148.576 40.698 146.607 34.793 143.767H34.7962ZM67.4728 146.594C67.4185 147.791 67.3162 148.994 67.3194 150.193C67.3205 150.291 67.34 150.388 67.3771 150.479C66.9744 150.479 66.575 150.501 66.1726 150.508C66.1512 141.989 66.1204 133.471 66.0798 124.954L66.0416 118.204C66.9958 118.153 67.9488 118.089 68.9008 118.012C68.4313 126.336 68.0446 134.66 67.6452 142.991L67.4728 146.594ZM107.459 113.325C109.212 118.113 110.71 122.988 111.948 127.929C112.606 130.561 113.143 133.212 113.702 135.863C107.842 139.389 101.664 142.374 95.2454 144.781C88.4168 147.353 81.2954 149.098 74.0382 149.977C72.3342 150.172 70.6251 150.315 68.9105 150.407C68.9346 150.335 68.9509 150.26 68.9584 150.184C69.1692 148.058 69.1787 145.896 69.2778 143.763L69.5749 137.5C69.773 133.272 69.9637 129.044 70.1469 124.816C70.2533 122.498 70.3501 120.178 70.4375 117.858C71.4279 117.757 72.4216 117.644 73.4087 117.513C78.7085 116.799 83.9262 115.586 88.9899 113.891C94.0967 112.183 99.0148 109.973 103.67 107.294C104.053 107.071 104.434 106.842 104.814 106.612C105.753 108.826 106.635 111.064 107.459 113.325ZM103.079 102.765C103.437 103.544 103.788 104.335 104.136 105.114C99.7725 107.748 95.155 109.951 90.3508 111.692C85.3788 113.486 80.2436 114.809 75.0158 115.643C69.8309 116.466 64.5793 116.809 59.3291 116.671C54.0619 116.535 48.8198 115.904 43.6746 114.786C38.5192 113.672 33.4892 112.057 28.659 109.964C28.2886 109.804 27.9243 109.65 27.5569 109.468C27.8529 108.493 28.0908 107.502 28.2694 106.499C38.2818 111.406 48.5403 112.226 56.0002 112.226C58.1696 112.226 60.1055 112.157 61.7285 112.1C62.5303 112.072 63.2526 112.044 63.885 112.031C66.92 111.971 74.9774 111.814 84.1721 109.254C90.6216 107.514 96.7247 104.712 102.223 100.968C102.504 101.555 102.807 102.136 103.079 102.765ZM121.577 68.428C119.695 76.5474 115.889 84.115 110.469 90.5139C108.251 93.1049 105.763 95.4613 103.047 97.5438C102.619 95.8003 102.191 94.0571 101.744 92.3169C101.721 92.2284 101.68 92.1453 101.625 92.0717C101.945 91.4437 102.232 90.8153 102.513 90.187C103.823 87.2437 105.021 84.1153 105.044 80.8608C105.044 79.1928 104.743 77.2201 103.728 75.8349L103.708 75.8097C105.73 74.9268 107.504 73.5754 108.877 71.8706C109.983 70.4805 110.789 68.8835 111.246 67.1768C111.703 65.4701 111.802 63.6898 111.536 61.9445C111.398 60.9565 111.143 59.9875 110.775 59.0577C110.583 58.5693 110.362 58.0919 110.114 57.6286C109.858 57.1638 109.593 56.661 109.101 56.4128C108.974 56.353 108.832 56.3314 108.692 56.3501C109.031 53.4067 109.347 50.4602 109.686 47.5169L110.51 40.3519C110.647 39.1769 110.791 38.0023 110.919 36.8243C111.018 35.989 111.012 35.145 110.9 34.3113C110.635 32.4801 109.402 30.9345 107.405 30.8779C106.303 30.8435 105.223 31.2927 104.271 31.8015C103.318 32.3105 102.434 32.882 101.536 33.4475C97.9046 35.7325 94.4344 38.2564 91.1496 41.0021C87.7276 43.8621 84.5242 46.9656 81.5652 50.2875C81.1817 50.1084 80.7921 49.9357 80.3989 49.7723C78.0146 48.8377 75.5335 48.1614 72.9999 47.7558C67.4969 46.7473 61.8717 46.5524 56.31 47.1778C53.643 47.4635 51.0201 48.0594 48.4956 48.9524C47.9014 49.1691 47.3137 49.4048 46.7321 49.653C45.7474 48.083 44.6442 46.5876 43.4319 45.18C42.2285 43.752 40.9343 42.4006 39.5566 41.1339C36.75 38.5535 33.6194 36.3367 30.2404 34.5375C28.5121 33.6234 26.6368 32.5867 24.6656 32.3386C23.696 32.1968 22.706 32.3722 21.8477 32.8376C20.9894 33.303 20.3103 34.0326 19.9149 34.9145C18.9565 36.9247 19.3143 39.1364 19.7008 41.2408C20.097 43.4146 20.6018 45.5693 20.9788 47.7463C21.7455 52.169 21.8893 56.947 19.5155 60.9394C19.438 61.0615 19.4055 61.2063 19.4235 61.3491C19.4415 61.4923 19.509 61.6249 19.6146 61.7247C19.2695 62.6431 19.0545 63.604 18.9756 64.5801C18.8271 66.7611 19.3864 68.9322 20.573 70.7806C20.9064 71.3029 21.2836 71.7967 21.7008 72.257C22.0923 72.7314 22.5608 73.1389 23.0873 73.4634C21.9389 77.3124 21.7274 81.3727 22.47 85.317C23.2125 89.2613 24.8884 92.9783 27.362 96.1681C27.8859 97.6112 28.0759 99.1512 27.9178 100.675C27.8315 101.493 27.6426 102.297 27.3555 103.069C27.3174 103.17 27.2725 103.27 27.2343 103.383C20.8446 99.8464 14.6434 94.4593 9.54454 86.2887C-0.602183 70.03 2.57027 51.9712 3.31145 48.5159C6.82577 32.0372 17.5284 22.5758 22.0937 18.5331C35.3171 6.82581 49.4955 4.41335 54.8374 3.5024C59.2239 2.69486 63.6747 2.27436 68.1374 2.24592C76.8497 2.24592 88.0761 4.00187 98.6414 11.2518C107.874 17.5907 114.647 26.4992 118.769 37.729C120.404 42.1738 124.74 53.9723 121.577 68.428Z" fill="black"/>
<path d="M99.2424 115.329C98.8717 115.433 98.5294 115.617 98.2409 115.869C97.9522 116.12 97.7246 116.431 97.5747 116.781C97.5926 116.821 97.5985 116.866 97.5917 116.91C97.585 116.954 97.5658 116.995 97.5363 117.029C97.4573 117.123 97.3937 117.229 97.3477 117.343C97.3222 117.412 97.2965 117.484 97.2743 117.556C97.2448 117.677 97.2329 117.8 97.2392 117.924C97.9676 117.651 98.6961 117.39 99.4213 117.114C99.9706 116.904 100.516 116.684 101.057 116.454L101.479 116.262C101.26 115.889 100.923 115.596 100.519 115.427C100.116 115.259 99.6675 115.225 99.2424 115.329Z" fill="#083A90"/>
<path d="M97.3382 118.373C97.3636 118.43 97.3893 118.483 97.418 118.533L98.0315 118.304L98.8619 117.968C99.1336 117.845 99.4083 117.729 99.6735 117.597C100.213 117.346 100.733 117.058 101.233 116.737C101.36 116.655 101.482 116.57 101.6 116.482C101.6 116.46 101.584 116.438 101.574 116.419C101.437 116.498 101.3 116.577 101.159 116.649C100.631 116.922 100.087 117.165 99.5298 117.378C98.9707 117.585 98.4052 117.773 97.8334 117.937C97.6448 117.99 97.4499 118.037 97.2584 118.087C97.2735 118.185 97.3003 118.281 97.3382 118.373Z" fill="#083A90"/>
<path d="M98.4245 119.313C98.8409 119.448 99.285 119.481 99.7177 119.41C100.15 119.338 100.558 119.163 100.907 118.901V118.879L100.945 118.86C100.984 118.829 101.025 118.8 101.06 118.766L101.124 118.7C101.406 118.424 101.601 118.074 101.688 117.693C101.776 117.311 101.75 116.913 101.616 116.545C101.504 116.636 101.389 116.721 101.268 116.803C100.773 117.138 100.253 117.435 99.712 117.692C99.1689 117.946 98.6128 118.175 98.0508 118.38L97.4406 118.584C97.6708 118.933 98.0194 119.191 98.4245 119.313ZM100.776 117.977L100.801 117.937L100.782 117.984L100.776 117.977Z" fill="#083A90"/>
<path d="M101.626 116.545C101.76 116.913 101.785 117.311 101.698 117.693C101.611 118.074 101.415 118.424 101.134 118.7L101.086 118.753H101.07C101.035 118.788 100.993 118.816 100.955 118.847L100.907 118.888C100.558 119.151 100.15 119.326 99.7176 119.397C99.2849 119.469 98.8409 119.435 98.4244 119.3C98.0288 119.173 97.69 118.916 97.4659 118.571L97.2262 118.653L97.0092 118.716C97.1672 119.013 97.3977 119.268 97.68 119.457C98.1768 119.762 98.7507 119.924 99.3366 119.924C99.9222 119.924 100.496 119.762 100.993 119.457C101.468 119.167 101.84 118.739 102.057 118.233C102.274 117.727 102.327 117.167 102.207 116.63C102.166 116.485 102.112 116.342 102.047 116.206L101.999 116.25C101.868 116.35 101.75 116.451 101.626 116.545Z" fill="black"/>
<path d="M97.2392 117.911C97.233 117.788 97.2449 117.664 97.2744 117.544C97.2966 117.472 97.3223 117.399 97.3477 117.33C97.3937 117.217 97.4573 117.111 97.5363 117.016C97.5658 116.982 97.585 116.942 97.5918 116.897C97.5985 116.854 97.5926 116.809 97.5745 116.768C97.7246 116.419 97.9522 116.107 98.2409 115.856C98.5294 115.605 98.8717 115.421 99.2422 115.317C99.6657 115.211 100.113 115.243 100.516 115.408C100.92 115.574 101.257 115.864 101.479 116.234C101.632 116.165 101.798 116.089 101.935 116.014C101.716 115.641 101.403 115.329 101.026 115.109C100.649 114.889 100.221 114.768 99.7823 114.758C98.2104 114.758 97.1304 116.033 96.7821 117.431C96.7675 117.477 96.7675 117.526 96.7821 117.572C96.7583 117.739 96.7583 117.908 96.7821 118.075L97.2392 117.911Z" fill="black"/>
<path d="M101.951 116.212C101.971 116.212 101.987 116.177 102.009 116.162C101.872 116.256 101.728 116.35 101.584 116.435C101.584 116.454 101.6 116.476 101.61 116.498L101.951 116.212Z" fill="black"/>
<path d="M97.418 118.533C97.3891 118.483 97.3636 118.43 97.3379 118.373C97.3003 118.281 97.2735 118.185 97.2581 118.087L96.8046 118.197C96.8392 118.37 96.8974 118.536 96.9769 118.693L97.418 118.533Z" fill="black"/>
<path d="M102.523 115.687C102.334 115.812 102.138 115.927 101.935 116.03C101.785 116.105 101.632 116.181 101.479 116.25L101.057 116.441C100.518 116.674 99.9728 116.894 99.421 117.101C98.6958 117.378 97.9676 117.638 97.2392 117.911L96.7886 118.081C96.5586 118.169 96.3286 118.257 96.0986 118.351C96.3348 118.304 96.5713 118.251 96.8046 118.197L97.2584 118.087C97.4499 118.037 97.6448 117.99 97.8334 117.937C98.4052 117.773 98.9707 117.585 99.5298 117.378C100.087 117.165 100.631 116.922 101.159 116.649C101.3 116.576 101.437 116.498 101.574 116.419C101.712 116.341 101.862 116.24 101.999 116.146L102.162 116.023L102.009 116.162C101.987 116.177 101.971 116.196 101.951 116.212L101.6 116.482C101.482 116.57 101.36 116.655 101.233 116.736C100.733 117.058 100.213 117.346 99.6735 117.597C99.4083 117.729 99.1336 117.845 98.8619 117.968L98.0315 118.304L97.418 118.533L96.9772 118.693L96.338 118.917L96.9772 118.728L97.1942 118.665L97.434 118.584L98.0442 118.38C98.6065 118.175 99.1623 117.946 99.7054 117.691C100.246 117.435 100.766 117.137 101.261 116.802C101.383 116.721 101.498 116.636 101.61 116.545C101.721 116.454 101.852 116.35 101.967 116.25L102.015 116.206C102.108 116.118 102.197 116.027 102.287 115.935C102.322 115.901 102.354 115.863 102.386 115.829C102.418 115.794 102.533 115.697 102.603 115.628C102.574 115.644 102.547 115.664 102.523 115.687Z" fill="#663399"/>
<path d="M32.5857 122.774C31.2662 122.774 29.391 124.8 29.391 126.079C29.391 126.656 29.8383 126.999 30.5857 126.999C31.3972 126.999 31.9341 126.587 32.5824 126.587C33.231 126.587 33.7774 126.999 34.5824 126.999C35.3301 126.999 35.7741 126.656 35.7741 126.079C35.7774 124.8 33.9084 122.774 32.5857 122.774ZM30.1384 122.567C29.966 121.995 29.4324 121.624 28.9501 121.737C28.4677 121.85 28.2119 122.41 28.3846 122.994C28.557 123.578 29.0906 123.936 29.5763 123.823C30.0618 123.71 30.311 123.151 30.1384 122.567ZM31.5474 122.24C32.0618 122.105 32.3172 121.414 32.1224 120.698C31.9276 119.981 31.3493 119.507 30.8446 119.642C30.3397 119.777 30.0715 120.468 30.2696 121.185C30.4677 121.901 31.033 122.356 31.5474 122.24ZM36.2247 121.753C35.7422 121.64 35.2086 122.011 35.0362 122.582C34.8636 123.154 35.116 123.71 35.5985 123.839C36.0807 123.968 36.6144 123.581 36.787 123.009C36.9594 122.438 36.7102 121.882 36.2247 121.753ZM33.6272 122.24C34.1416 122.372 34.7166 121.901 34.9052 121.185C35.0936 120.468 34.8444 119.777 34.33 119.642C33.8158 119.507 33.2405 119.981 33.0522 120.698C32.8636 121.414 33.1128 122.105 33.6272 122.24Z" fill="#60219F"/>
<path d="M39.6302 125.654C39.135 125.274 37.8221 125.51 37.4322 126C37.2598 126.22 37.3204 126.478 37.6016 126.694C37.8827 126.911 38.2404 126.923 38.4737 127.109C38.707 127.294 38.7933 127.611 39.0966 127.841C39.4002 128.07 39.6462 128.051 39.8189 127.841C40.2085 127.345 40.1095 126.035 39.6302 125.654ZM38.7773 124.872C38.8352 124.758 38.8474 124.627 38.8111 124.505C38.7752 124.383 38.6934 124.278 38.5825 124.213C38.523 124.194 38.4602 124.188 38.3979 124.194C38.336 124.2 38.2759 124.218 38.221 124.247C38.166 124.277 38.1179 124.317 38.0789 124.365C38.0402 124.413 38.0112 124.468 37.9945 124.527C37.9368 124.64 37.9247 124.771 37.9609 124.893C37.9972 125.014 38.0786 125.118 38.1893 125.183C38.2491 125.202 38.3119 125.209 38.3738 125.203C38.4361 125.197 38.4967 125.179 38.5516 125.15C38.6066 125.12 38.6547 125.08 38.6934 125.032C38.7324 124.984 38.7608 124.929 38.7773 124.869V124.872ZM39.4162 125.146C39.6495 125.243 39.9561 125.051 40.1 124.722C40.2437 124.392 40.1701 124.046 39.9371 123.949C39.7039 123.851 39.4002 124.043 39.2565 124.373C39.1126 124.703 39.1735 125.048 39.4067 125.146H39.4162ZM41.3139 126.305C41.2227 126.215 41.1004 126.162 40.9713 126.157C40.8423 126.152 40.7159 126.194 40.6174 126.276C40.5644 126.306 40.5175 126.347 40.4805 126.395C40.4431 126.443 40.4161 126.498 40.4006 126.556C40.3852 126.615 40.3817 126.676 40.3904 126.736C40.399 126.795 40.4199 126.853 40.4512 126.905C40.543 126.994 40.6656 127.046 40.7946 127.051C40.9237 127.056 41.0498 127.012 41.1478 126.93C41.2011 126.9 41.2476 126.859 41.285 126.811C41.322 126.763 41.3491 126.708 41.3648 126.65C41.3802 126.591 41.3837 126.531 41.3748 126.471C41.3662 126.411 41.3456 126.353 41.3139 126.302V126.305ZM40.1958 125.743C40.346 125.94 40.707 125.928 40.9976 125.711C41.2885 125.494 41.4002 125.155 41.2501 124.957C41.0999 124.759 40.7389 124.772 40.4483 124.989C40.1574 125.205 40.0424 125.544 40.1958 125.743Z" fill="#60219F"/>
<path d="M40.0649 70.7682L44.5823 70.5011L40.0649 70.7682Z" fill="black"/>
<path d="M49.4257 76.5511C47.758 80.2232 46.2308 84.0617 42.1991 84.2817C38.0456 84.5109 33.6849 81.1781 34.212 77.4495C34.9852 71.9366 38.1544 67.9818 42.8602 68.6006C46.4448 69.0688 51.2306 72.5806 49.4257 76.5511Z" fill="black" stroke="black" stroke-width="0.82" stroke-miterlimit="10" stroke-linecap="round"/>
<path d="M92.1562 76.6173C92.0826 80.6378 88.9612 84.1245 84.9263 84.3445C80.7731 84.5737 78.7155 80.8484 76.9393 77.5124C72.1629 68.5474 80.8817 68.0449 85.5909 68.6635C89.1723 69.1349 92.2328 72.5493 92.1562 76.6173Z" fill="black" stroke="black" stroke-width="0.82" stroke-miterlimit="10" stroke-linecap="round"/>
<path d="M41.2565 90.9599C44.0838 84.6365 49.7707 79.7613 56.3966 77.6255C59.7883 76.5109 63.3935 76.1694 66.9395 76.6264C70.4302 77.1005 73.7819 78.2858 76.7796 80.1069C80.2035 82.1718 83.0567 85.0353 85.086 88.4438C85.7027 89.4897 87.3606 88.5442 86.741 87.5013C84.7813 84.2555 82.1383 81.4594 78.9891 79.3005C75.8401 77.1414 72.2579 75.6696 68.4827 74.9836C64.7474 74.309 60.9065 74.4584 57.2368 75.4204C53.5764 76.4054 50.1593 78.1155 47.1957 80.4462C43.9114 82.9882 41.3034 86.276 39.5951 90.0268C39.4746 90.2444 39.4435 90.4988 39.5077 90.7382C39.5718 90.9777 39.7266 91.1839 39.9401 91.3149C40.346 91.5503 41.0425 91.4467 41.2501 90.9788L41.2565 90.9599Z" fill="black"/>
<path d="M39.7899 74.1293C39.6471 74.3504 39.5537 74.599 39.5161 74.8586C39.4787 75.1181 39.4979 75.3824 39.5729 75.6338C39.6427 75.8882 39.7821 76.119 39.9758 76.3011C40.1696 76.4835 40.4101 76.6099 40.6718 76.6672C40.9186 76.7187 41.1749 76.7089 41.4168 76.6386C41.659 76.5685 41.8792 76.4402 42.0584 76.2651C42.2532 76.0584 42.3663 75.79 42.378 75.5083C42.3844 75.2563 42.3071 75.0093 42.1574 74.8047C41.9769 74.5525 41.718 74.365 41.4195 74.2705C41.2707 74.2256 41.1134 74.2137 40.9595 74.2354C40.8055 74.2573 40.658 74.3122 40.5281 74.3964C40.4229 74.4602 40.3444 74.5595 40.3076 74.6759C40.2748 74.7987 40.2922 74.9294 40.3555 75.0401C40.4212 75.1462 40.5262 75.223 40.6483 75.2547C40.7703 75.2861 40.9002 75.2701 41.0103 75.2098L41.0615 75.1751C41.0807 75.1751 41.1638 75.1281 41.0615 75.1751C40.9595 75.2225 41.0455 75.1751 41.0615 75.1751H41.1253L40.9976 75.1941C41.0528 75.1862 41.1088 75.1862 41.1638 75.1941L41.0393 75.1784C41.0793 75.1849 41.1188 75.1944 41.1575 75.2065C41.2022 75.2065 41.2596 75.2601 41.1253 75.1879L41.1765 75.213L41.2788 75.2758C41.3459 75.3167 41.1862 75.1973 41.2436 75.2474L41.2947 75.2945L41.3364 75.3386C41.3683 75.37 41.3938 75.436 41.3172 75.3104C41.3397 75.3448 41.3618 75.3762 41.3811 75.4108C41.4003 75.4455 41.397 75.4455 41.4065 75.4612C41.3364 75.3324 41.3746 75.3795 41.3876 75.4203C41.403 75.4631 41.4135 75.5072 41.4195 75.5521L41.4003 75.4265C41.4065 75.4766 41.4065 75.5272 41.4003 75.5773L41.4195 75.4517C41.4195 75.4988 41.397 75.5396 41.3843 75.5867C41.3716 75.6338 41.4417 75.4736 41.4035 75.5429L41.3746 75.593C41.3746 75.6087 41.3364 75.6371 41.3332 75.6528C41.3299 75.6685 41.4227 75.5521 41.3618 75.6151C41.3356 75.6446 41.3066 75.672 41.2755 75.6966C41.2468 75.725 41.3876 75.6181 41.3045 75.6747L41.2566 75.7031L41.2054 75.7312C41.1862 75.7312 41.1032 75.7753 41.2054 75.7312C41.3075 75.6874 41.2054 75.7312 41.1895 75.7312L41.1351 75.7502L41.0009 75.7753L41.1286 75.7596C41.0312 75.7721 40.9324 75.7721 40.8347 75.7596L40.9624 75.7783C40.9108 75.7716 40.8593 75.761 40.8093 75.7469L40.7422 75.725C40.6494 75.6966 40.8474 75.7753 40.7773 75.7407L40.7102 75.7031C40.7102 75.7031 40.6526 75.659 40.6431 75.6622C40.6334 75.6652 40.7516 75.7502 40.6783 75.6842L40.6112 75.6214L40.5536 75.5553C40.6464 75.6557 40.5982 75.6151 40.576 75.5805C40.5536 75.5459 40.5184 75.4769 40.4897 75.4265C40.5601 75.5491 40.5184 75.4988 40.5057 75.4579C40.4932 75.4317 40.4837 75.4043 40.477 75.3762C40.461 75.3183 40.4483 75.2596 40.4386 75.2003L40.4578 75.3261C40.4402 75.2 40.4402 75.0721 40.4578 74.946V75.0715C40.4729 74.9746 40.4965 74.8788 40.5281 74.7858C40.5281 74.7481 40.5793 74.6851 40.5281 74.8139C40.5362 74.7936 40.546 74.7736 40.5568 74.7544C40.5804 74.7065 40.6069 74.6605 40.6366 74.6161C40.6954 74.5087 40.7092 74.3828 40.6753 74.2654C40.6415 74.1479 40.5628 74.0481 40.4556 73.9867C40.3484 73.9252 40.221 73.9071 40.1006 73.9361C39.9799 73.965 39.8754 74.0386 39.8091 74.1417L39.7899 74.1293Z" fill="black"/>
<path d="M41.1286 77.1449L41.167 76.6297C41.1665 76.5374 41.1383 76.4473 41.0861 76.3707C41.0339 76.2944 40.9598 76.2346 40.8732 76.1994C40.7855 76.164 40.6894 76.1542 40.5963 76.1715C40.5035 76.1889 40.4175 76.2324 40.349 76.2966C39.5505 77.0066 40.0297 78.3415 40.9625 78.6684C41.2268 78.7482 41.5072 78.7628 41.7786 78.7109C42.05 78.6586 42.3041 78.5417 42.5184 78.3699C42.7498 78.1951 42.9416 77.9751 43.0818 77.7237C43.222 77.4723 43.3075 77.195 43.3332 76.9092C43.3792 76.2281 43.1925 75.5516 42.8028 74.9869C42.7365 74.8838 42.6321 74.8099 42.5114 74.7809C42.391 74.752 42.2635 74.7701 42.1563 74.8315C42.0492 74.8932 41.9704 74.9931 41.9366 75.1105C41.9028 75.228 41.9166 75.3535 41.9753 75.4612C42.0327 75.5492 42.0838 75.6371 42.1317 75.728C42.1788 75.813 42.2191 75.9012 42.2532 75.9919C42.2879 76.0877 42.3165 76.1851 42.3395 76.2841C42.3552 76.342 42.3682 76.4007 42.3777 76.46C42.3777 76.5166 42.3777 76.46 42.3777 76.46C42.3777 76.46 42.3777 76.526 42.3777 76.5607C42.4015 76.7493 42.3796 76.9409 42.3138 77.1197C42.3138 77.1479 42.2627 77.2358 42.2979 77.1668C42.2787 77.2044 42.2597 77.2453 42.2373 77.2829C42.2148 77.3208 42.1926 77.3551 42.1669 77.3898C42.1415 77.4244 42.1223 77.4526 42.1669 77.4117C42.2118 77.3711 42.119 77.4653 42.1223 77.4653C42.0622 77.5278 41.9983 77.5865 41.9307 77.6412C41.9913 77.5941 41.9082 77.6412 41.8857 77.6631C41.8441 77.6901 41.8002 77.7145 41.7548 77.7353C41.6909 77.77 41.8219 77.7134 41.7548 77.7353L41.6942 77.7573L41.5727 77.7887C41.4834 77.8138 41.6271 77.7887 41.5345 77.7887H41.3873C41.3364 77.7887 41.3873 77.7887 41.4098 77.7887L41.3267 77.773L41.2244 77.7416C41.3013 77.7638 41.2596 77.7573 41.2244 77.7416C41.1892 77.7259 41.1094 77.6631 41.1573 77.7007C41.2052 77.7386 41.1286 77.6693 41.1159 77.6569C41.1032 77.6441 41.0296 77.5594 41.0872 77.6349C41.0423 77.5751 41.0104 77.5061 40.969 77.4434C40.9273 77.3803 40.969 77.4715 40.969 77.4777C40.969 77.4839 40.953 77.4339 40.9465 77.4117C40.9403 77.3898 40.9243 77.3238 40.9113 77.2799C40.8986 77.2358 40.9113 77.3646 40.9113 77.2547V77.1387C40.9113 77.0632 40.8859 77.2201 40.9113 77.1197C40.9113 77.104 40.9113 77.0883 40.9113 77.0726C40.9113 77.0569 40.9113 77.0726 40.9113 77.0946L40.9784 76.9814C40.9243 77.0664 40.9784 76.9814 41.0201 76.9533L40.2021 76.6202L40.1639 77.1354C40.1647 77.2602 40.2153 77.3795 40.3052 77.4677C40.3947 77.5559 40.5162 77.6057 40.6431 77.6065C40.7692 77.6033 40.8891 77.5527 40.9784 77.465C41.0674 77.3773 41.1191 77.2594 41.1224 77.1354L41.1286 77.1449Z" fill="black"/>
<path d="M85.5977 77.1855C87.4399 77.1855 88.9331 75.7172 88.9331 73.9061C88.9331 72.095 87.4399 70.6267 85.5977 70.6267C83.7557 70.6267 82.2625 72.095 82.2625 73.9061C82.2625 75.7172 83.7557 77.1855 85.5977 77.1855Z" fill="#E5E5E5" stroke="black" stroke-width="2.15" stroke-miterlimit="10" stroke-linecap="round"/>
<path d="M41.4901 77.1855C43.3323 77.1855 44.8255 75.7172 44.8255 73.9061C44.8255 72.095 43.3323 70.6267 41.4901 70.6267C39.6481 70.6267 38.1547 72.095 38.1547 73.9061C38.1547 75.7172 39.6481 77.1855 41.4901 77.1855Z" fill="#E5E5E5" stroke="black" stroke-width="2.15" stroke-miterlimit="10" stroke-linecap="round"/>
</svg>
