<svg width="119" height="119" viewBox="0 0 119 119" fill="none" xmlns="http://www.w3.org/2000/svg">
<circle cx="59.5" cy="59.5" r="59.5" fill="#60219F"/>
<path d="M83.9371 48.5394C83.9072 47.1509 83.8786 45.8391 83.8786 44.57C83.8786 43.5758 82.965 42.7698 81.8374 42.7698C73.1081 42.7698 66.4618 40.5571 60.9219 35.8064C60.1294 35.1266 58.8682 35.1268 58.076 35.8064C52.5365 40.5571 45.8914 42.7698 37.1626 42.7698C36.0353 42.7698 35.1214 43.5758 35.1214 44.57C35.1214 45.8393 35.0931 47.1516 35.0629 48.5404C34.7831 61.4629 34.4 79.1608 58.8304 86.6295C59.047 86.6957 59.2729 86.7288 59.4988 86.7288C59.7247 86.7288 59.9508 86.6957 60.1672 86.6295C84.5995 79.1606 84.2169 61.4622 83.9371 48.5394ZM59.4991 83.0182C38.5468 76.3051 38.8635 61.5995 39.1447 48.6091C39.1616 47.8294 39.1779 47.0738 39.1893 46.3331C47.3648 46.0287 53.9025 43.8437 59.4991 39.5437C65.0962 43.8437 71.6349 46.0289 79.811 46.3331C79.8224 47.0736 79.8387 47.8287 79.8556 48.6079C80.1365 61.5987 80.453 76.3049 59.4991 83.0182Z" fill="white"/>
<path d="M66.528 54.7589L56.6763 63.4474L52.4724 59.7396C51.6752 59.0367 50.3828 59.0367 49.5859 59.7396C48.7888 60.4429 48.7888 61.5825 49.5859 62.2856L55.2331 67.2663C55.6315 67.6177 56.1541 67.7934 56.6763 67.7934C57.1986 67.7934 57.7211 67.6177 58.1195 67.2663L69.4142 57.3049C70.2116 56.6018 70.2116 55.4619 69.4145 54.7591C68.6176 54.056 67.3251 54.0558 66.528 54.7589Z" fill="white"/>
</svg>
