<svg width="119" height="119" viewBox="0 0 119 119" fill="none" xmlns="http://www.w3.org/2000/svg">
<circle cx="59.5" cy="59.5" r="59.5" fill="#60219F"/>
<path d="M75.8636 39H43.1364C39.7473 39 37 41.8084 37 45.2727V78.7273C37 82.1916 39.7473 85 43.1364 85H75.8636C79.2527 85 82 82.1916 82 78.7273V45.2727C82 41.8084 79.2527 39 75.8636 39Z" stroke="white" stroke-width="3" stroke-linecap="round" stroke-linejoin="round"/>
<path d="M39.0455 82.9091L57.4545 64.0909L77.9091 85" stroke="white" stroke-width="3" stroke-linecap="round" stroke-linejoin="round"/>
<path d="M65.6364 72.4546L73.8182 64.0909L82 72.4546" stroke="white" stroke-width="3" stroke-linecap="round" stroke-linejoin="round"/>
<path d="M63.5909 55.7273C65.8503 55.7273 67.6818 53.855 67.6818 51.5455C67.6818 49.2359 65.8503 47.3636 63.5909 47.3636C61.3316 47.3636 59.5 49.2359 59.5 51.5455C59.5 53.855 61.3316 55.7273 63.5909 55.7273Z" stroke="white" stroke-width="3" stroke-linecap="round" stroke-linejoin="round"/>
</svg>
