<svg width="119" height="119" viewBox="0 0 119 119" fill="none" xmlns="http://www.w3.org/2000/svg">
<circle cx="59.5" cy="59.5" r="59.5" fill="#60219F"/>
<path d="M87.8808 39H54.3174C53.8158 39 53.4091 39.4146 53.4091 39.9262C53.4091 40.4379 53.8158 40.8525 54.3174 40.8525H87.8808C88.0477 40.8525 88.1835 40.9909 88.1835 41.1612V80.0953C88.1835 81.7783 86.841 83.1475 85.1907 83.1475H77.8094C77.3078 83.1475 76.9012 83.5621 76.9012 84.0738C76.9012 84.5854 77.3078 85 77.8094 85H85.1907C87.8425 85 89.9999 82.7998 89.9999 80.0953V41.1612C89.9999 39.9696 89.0492 39 87.8808 39Z" fill="white"/>
<path d="M73.8544 83.1475H36.5703C37.226 82.3091 37.6182 81.2478 37.6182 80.0953V64.8225C37.6182 64.3109 37.2116 63.8963 36.71 63.8963C36.2085 63.8963 35.8018 64.3109 35.8018 64.8225V80.0953C35.8018 81.7747 34.4627 83.143 32.816 83.1474C32.8136 83.1474 32.8112 83.147 32.8088 83.147C31.1587 83.147 29.8164 81.7781 29.8164 80.0953V50.3989C29.8164 50.2286 29.9523 50.0902 30.1191 50.0902H35.8019V60.7891C35.8019 61.3008 36.2086 61.7153 36.7102 61.7153C37.2117 61.7153 37.6184 61.3008 37.6184 60.7891V41.1612C37.6184 40.9909 37.7542 40.8525 37.9211 40.8525H50.3624C50.864 40.8525 51.2706 40.4379 51.2706 39.9262C51.2706 39.4146 50.864 39 50.3624 39H37.9211C36.7527 39 35.8019 39.9696 35.8019 41.1612V48.2377H30.1191C28.9507 48.2377 28 49.2073 28 50.3989V80.0953C28 82.7961 30.1518 84.9937 32.7989 84.9993C32.8038 84.9993 73.8546 85 73.8546 85C74.3561 85 74.7628 84.5854 74.7628 84.0738C74.7628 83.5621 74.3561 83.1475 73.8544 83.1475Z" fill="white"/>
<path d="M62.9783 44.6708H43.3909C42.2225 44.6708 41.2718 45.6404 41.2718 46.832V57.0584C41.2718 57.0593 41.2718 57.0601 41.2718 57.0601V59.4234C41.2718 60.615 42.2225 61.5846 43.3909 61.5846H62.9783C64.1467 61.5846 65.0974 60.615 65.0974 59.4234V54.5958C65.0974 54.5949 65.0974 54.594 65.0974 54.5932V46.832C65.0974 45.6404 64.1467 44.6708 62.9783 44.6708ZM43.3909 46.5232H62.9783C63.1452 46.5232 63.281 46.6617 63.281 46.832V52.8253L58.9741 49.8049C58.3046 49.3356 57.4017 49.4201 56.8273 50.006L51.2595 55.6844L48.6931 53.0667C48.1186 52.4809 47.2159 52.3961 46.5462 52.8657L43.0882 55.2905V46.8319C43.0882 46.6617 43.2239 46.5232 43.3909 46.5232ZM43.3909 59.7321C43.224 59.7321 43.0882 59.5937 43.0882 59.4234V57.5387L47.4856 54.4551L52.6594 59.7321H43.3909ZM62.9783 59.7321H55.2279L52.5438 56.9943L58.0346 51.3945L63.2809 55.0734V59.4234C63.281 59.5937 63.1452 59.7321 62.9783 59.7321Z" fill="white"/>
<path d="M41.2718 66.5755C41.2718 67.0872 41.6784 67.5018 42.18 67.5018H81.9981C82.4997 67.5018 82.9063 67.0872 82.9063 66.5755C82.9063 66.0639 82.4997 65.6493 81.9981 65.6493H42.18C41.6784 65.6493 41.2718 66.064 41.2718 66.5755Z" fill="white"/>
<path d="M81.9981 69.2396H42.18C41.6784 69.2396 41.2718 69.6542 41.2718 70.1659C41.2718 70.6775 41.6784 71.0921 42.18 71.0921H81.9981C82.4997 71.0921 82.9063 70.6775 82.9063 70.1659C82.9063 69.6542 82.4997 69.2396 81.9981 69.2396Z" fill="white"/>
<path d="M82.9063 73.7559C82.9063 73.2443 82.4997 72.8297 81.9981 72.8297H42.18C41.6784 72.8297 41.2718 73.2443 41.2718 73.7559C41.2718 74.2676 41.6784 74.6822 42.18 74.6822H81.9981C82.4997 74.6822 82.9063 74.2675 82.9063 73.7559Z" fill="white"/>
<path d="M74.9372 76.4197H72.3493C71.8477 76.4197 71.4411 76.8343 71.4411 77.3459C71.4411 77.8576 71.8477 78.2721 72.3493 78.2721H74.9372C75.4387 78.2721 75.8454 77.8576 75.8454 77.3459C75.8454 76.8343 75.4387 76.4197 74.9372 76.4197Z" fill="white"/>
<path d="M42.18 76.4197C41.6784 76.4197 41.2718 76.8343 41.2718 77.3459C41.2718 77.8576 41.6784 78.2721 42.18 78.2721H68.7617C69.2633 78.2721 69.6699 77.8576 69.6699 77.3459C69.6699 76.8343 69.2633 76.4197 68.7617 76.4197H42.18Z" fill="white"/>
<path d="M69.9727 51.3549H82.9895C84.1579 51.3549 85.1086 50.3854 85.1086 49.1937V46.832C85.1086 45.6404 84.1579 44.6708 82.9895 44.6708H69.9727C68.8042 44.6708 67.8535 45.6404 67.8535 46.832V49.1937C67.8535 50.3855 68.8041 51.3549 69.9727 51.3549ZM69.6699 46.832C69.6699 46.6617 69.8058 46.5232 69.9727 46.5232H82.9895C83.1564 46.5232 83.2922 46.6617 83.2922 46.832V49.1937C83.2922 49.364 83.1564 49.5025 82.9895 49.5025H69.9727C69.8058 49.5025 69.6699 49.364 69.6699 49.1937V46.832Z" fill="white"/>
<path d="M67.8535 59.4233C67.8535 60.6149 68.8042 61.5845 69.9727 61.5845H82.9895C84.1579 61.5845 85.1086 60.6149 85.1086 59.4233V54.3625C85.1086 53.1709 84.1579 52.2013 82.9895 52.2013H69.9727C68.8042 52.2013 67.8535 53.1709 67.8535 54.3625V59.4233ZM69.6699 54.3626C69.6699 54.1923 69.8058 54.0539 69.9727 54.0539H82.9895C83.1564 54.0539 83.2922 54.1923 83.2922 54.3626V59.4234C83.2922 59.5937 83.1564 59.7322 82.9895 59.7322H69.9727C69.8058 59.7322 69.6699 59.5937 69.6699 59.4234V54.3626Z" fill="white"/>
</svg>
