<svg width="36" height="35" viewBox="0 0 36 35" fill="none" xmlns="http://www.w3.org/2000/svg">
<path d="M18 0.000732422C8.05481 0.000732422 0 7.95088 0 17.7668C0 26.1162 5.80442 33.0457 13.6356 34.9992C13.5452 34.777 13.5008 34.4655 13.5008 34.1555V31.1345H11.2504C10.0356 31.1345 8.90962 30.6023 8.41481 29.624C7.82962 28.5581 7.73923 26.9145 6.25481 25.8924C5.80443 25.5371 6.16443 25.1817 6.65923 25.2256C7.60443 25.4917 8.36885 26.1147 9.08885 27.046C9.80885 27.979 10.1244 28.2012 11.474 28.2012C12.1037 28.2012 13.0933 28.1574 13.994 28.0228C14.4889 26.7784 15.3437 25.6686 16.3792 25.1364C10.3496 24.4257 7.46962 21.494 7.46962 17.4962C7.46962 15.7634 8.23404 14.1199 9.49481 12.6986C9.09038 11.3211 8.54962 8.47857 9.67557 7.36876C12.3763 7.36876 13.9956 9.10152 14.4 9.54454C15.7496 9.10001 17.2356 8.83389 18.7644 8.83389C20.3392 8.83389 21.7792 9.10001 23.1289 9.54454C23.5333 9.10001 25.154 7.36876 27.8533 7.36876C28.9333 8.43472 28.4385 11.3211 27.9881 12.6986C29.2489 14.076 29.9689 15.7634 29.9689 17.4962C29.9689 21.494 27.1333 24.4257 21.1496 25.0472C22.8148 25.8909 23.9852 28.2889 23.9852 30.0655V34.1117C23.9852 34.2447 23.9408 34.3778 23.9408 34.5108C30.96 32.1128 36 25.5401 36 17.7668C36 7.95088 27.9452 0.000732422 18 0.000732422Z" fill="white"/>
</svg>
