<svg width="34" height="34" viewBox="0 0 34 34" fill="none" xmlns="http://www.w3.org/2000/svg">
<path d="M11.3342 17.0005C11.3342 13.871 13.8705 11.3334 17 11.3334C20.1295 11.3334 22.6671 13.871 22.6671 17.0005C22.6671 20.13 20.1295 22.6676 17 22.6676C13.8705 22.6676 11.3342 20.13 11.3342 17.0005ZM8.2707 17.0005C8.2707 21.8217 12.1788 25.7298 17 25.7298C21.8212 25.7298 25.7293 21.8217 25.7293 17.0005C25.7293 12.1793 21.8212 8.27119 17 8.27119C12.1788 8.27119 8.2707 12.1793 8.2707 17.0005ZM24.0349 7.92507C24.0347 8.32855 24.1542 8.72301 24.3782 9.05857C24.6022 9.39414 24.9207 9.65574 25.2934 9.81029C25.6661 9.96484 26.0763 10.0054 26.4721 9.92685C26.8678 9.84829 27.2314 9.65415 27.5168 9.36896C27.8022 9.08378 27.9966 8.72036 28.0755 8.32467C28.1544 7.92898 28.1142 7.51879 27.9599 7.14597C27.8056 6.77314 27.5443 6.45444 27.2089 6.23014C26.8735 6.00585 26.4792 5.88605 26.0757 5.88589C25.5349 5.88614 25.0154 6.10104 24.6329 6.48338C24.2504 6.86572 24.0353 7.38425 24.0349 7.92507ZM10.132 30.8381C8.47457 30.7626 7.5737 30.4865 6.97503 30.2533C6.18134 29.9443 5.61503 29.5763 5.01962 28.9817C4.42422 28.3871 4.05566 27.8213 3.74802 27.0276C3.51465 26.4292 3.23857 25.5281 3.16322 23.8707C3.08081 22.0787 3.06435 21.5404 3.06435 17.0006C3.06435 12.4608 3.08217 11.924 3.16322 10.1306C3.2387 8.47315 3.51682 7.57378 3.74802 6.97362C4.05702 6.17992 4.42503 5.61362 5.01962 5.01821C5.61422 4.4228 6.17998 4.05424 6.97503 3.74661C7.57343 3.51323 8.47457 3.23715 10.132 3.16181C11.9239 3.07939 12.4622 3.06294 17 3.06294C21.5378 3.06294 22.0766 3.08075 23.87 3.16181C25.5275 3.23729 26.4268 3.51541 27.027 3.74661C27.8207 4.05424 28.387 4.42362 28.9824 5.01821C29.5778 5.6128 29.945 6.17992 30.254 6.97362C30.4874 7.57202 30.7635 8.47315 30.8388 10.1306C30.9212 11.924 30.9377 12.4608 30.9377 17.0006C30.9377 21.5404 30.9212 22.0772 30.8388 23.8707C30.7633 25.5281 30.4859 26.429 30.254 27.0276C29.945 27.8213 29.577 28.3876 28.9824 28.9817C28.3878 29.5757 27.8207 29.9443 27.027 30.2533C26.4286 30.4867 25.5275 30.7627 23.87 30.8381C22.0781 30.9205 21.5398 30.937 17 30.937C12.4602 30.937 11.9234 30.9205 10.132 30.8381ZM9.99124 0.10344C8.18149 0.185856 6.94484 0.472816 5.86486 0.893056C4.7464 1.32703 3.79957 1.90925 2.85342 2.8539C1.90726 3.79856 1.32654 4.74689 0.892568 5.86535C0.472328 6.94601 0.185368 8.18198 0.102952 9.99173C0.019176 11.8043 0 12.3838 0 17.0005C0 21.6171 0.019176 22.1966 0.102952 24.0092C0.185368 25.8191 0.472328 27.055 0.892568 28.1356C1.32654 29.2534 1.9074 30.2028 2.85342 31.1471C3.79943 32.0913 4.7464 32.6727 5.86486 33.1079C6.94688 33.5282 8.18149 33.8151 9.99124 33.8975C11.8048 33.98 12.3833 34.0005 17 34.0005C21.6167 34.0005 22.1962 33.9813 24.0088 33.8975C25.8186 33.8151 27.0545 33.5282 28.1351 33.1079C29.2529 32.6727 30.2004 32.0917 31.1466 31.1471C32.0927 30.2024 32.6722 29.2534 33.1074 28.1356C33.5277 27.055 33.816 25.819 33.897 24.0092C33.9795 22.1953 33.9986 21.6171 33.9986 17.0005C33.9986 12.3838 33.9795 11.8043 33.897 9.99173C33.8146 8.18184 33.5277 6.94533 33.1074 5.86535C32.6722 4.74757 32.0912 3.80006 31.1466 2.8539C30.2019 1.90775 29.2529 1.32703 28.1365 0.893056C27.0545 0.472816 25.8185 0.184496 24.0101 0.10344C22.1975 0.0210243 21.618 0.000488281 17.0014 0.000488281C12.3847 0.000488281 11.8048 0.0196643 9.99124 0.10344Z" fill="white"/>
</svg>
