<svg width="158" height="63" viewBox="0 0 158 63" fill="none" xmlns="http://www.w3.org/2000/svg">
<path d="M22.9435 13.9456V15.5034C22.9435 18.3221 22.5495 20.6711 21.7616 22.5503C20.9736 24.4295 19.9771 25.9378 18.7719 27.0752C17.6132 28.1632 16.3154 28.9297 14.8785 29.3748C13.4416 29.8199 12.0743 30.0424 10.7765 30.0424C9.29327 30.0424 7.90276 29.8446 6.60494 29.449C5.35348 29.0533 4.4033 28.5835 3.75439 28.0396L4.3106 44.6556L0 45.1007V4.74744L0.417154 1.33522C3.84709 0.494525 6.81352 0.0741787 9.31645 0.0741787C13.627 0.0741787 16.9179 1.23631 19.1891 3.56058C21.5066 5.83539 22.7581 9.29707 22.9435 13.9456ZM3.05913 6.52773L3.33723 21.2151C3.38359 21.4624 3.61534 21.7591 4.03249 22.1053C4.496 22.4514 5.07538 22.7976 5.77064 23.1438C6.51224 23.4405 7.32338 23.7125 8.20404 23.9597C9.08469 24.1575 9.98853 24.2564 10.9155 24.2564C11.7962 24.2564 12.6769 24.1081 13.5575 23.8114C14.4845 23.4652 15.2957 22.8965 15.9909 22.1053C16.7325 21.314 17.3351 20.2508 17.7986 18.9156C18.2621 17.5804 18.4938 15.9237 18.4938 13.9456C18.4938 12.4126 18.2157 11.0774 17.6595 9.93995C17.1497 8.75309 16.4312 7.78877 15.5042 7.04698C14.6236 6.25574 13.6039 5.68704 12.4451 5.34087C11.3327 4.94525 10.1739 4.74744 8.96882 4.74744C7.90276 4.74744 6.85987 4.8958 5.84016 5.19251C4.82045 5.48923 3.89344 5.9343 3.05913 6.52773Z" fill="#663399"/>
<path d="M51.7271 9.64324L56.1768 29.8199L52.0052 31.4518L49.5023 18.8414C49.1779 20.2261 48.668 21.6602 47.9728 23.1438C47.3238 24.6273 46.4895 25.9873 45.4698 27.2236C44.4965 28.4105 43.3145 29.3995 41.924 30.1907C40.5798 30.9325 39.0503 31.3034 37.3353 31.3034C34.2762 31.3034 31.9355 30.2649 30.3132 28.1879C28.7373 26.0615 27.9493 23.1438 27.9493 19.4348C27.9493 17.3084 28.2506 15.1077 28.8532 12.8329C29.4557 10.5087 30.3596 8.40692 31.5647 6.52773C32.7698 4.64853 34.2762 3.09078 36.0839 1.85447C37.9379 0.618156 40.0932 0 42.5497 0C43.9866 0 45.2381 0.346167 46.3041 1.0385C47.4165 1.68138 48.3436 2.49735 49.0852 3.4864C49.8268 4.47545 50.4062 5.53868 50.8233 6.67609C51.2405 7.76404 51.5417 8.75309 51.7271 9.64324ZM43.245 5.34087C42.9205 5.24196 42.5961 5.16779 42.2716 5.11833C41.9935 5.06888 41.6923 5.04415 41.3678 5.04415C39.9309 5.04415 38.6331 5.51395 37.4744 6.45355C36.362 7.3437 35.4118 8.4811 34.6238 9.86577C33.8822 11.2504 33.3028 12.7587 32.8857 14.3907C32.5149 16.0226 32.3295 17.5309 32.3295 18.9156C32.3295 21.0915 32.7698 22.8471 33.6505 24.1823C34.5311 25.5175 35.9216 26.1851 37.822 26.1851C39.1198 26.1851 40.3249 25.74 41.4373 24.8499C42.5497 23.9103 43.4999 22.7481 44.2879 21.3635C45.0758 19.9788 45.6784 18.4705 46.0956 16.8386C46.5591 15.1572 46.7908 13.5994 46.7908 12.1653C46.7908 10.5828 46.4895 9.19816 45.887 8.0113C45.3308 6.77499 44.4501 5.88485 43.245 5.34087Z" fill="#663399"/>
<path d="M81.067 10.9785L75.0878 31.4518L69.2476 32.0452L59.9312 2.077L63.9637 0.59343L72.0287 25.3691L79.1203 2.077H83.709L88.7148 24.479L95.1112 1.63193L99.2827 2.52208L90.8006 32.3419H86.0729L81.067 10.9785Z" fill="#663399"/>
<path d="M102.62 16.3193C102.62 13.5994 102.991 11.3246 103.732 9.49488C104.474 7.61568 105.401 6.13211 106.513 5.04415C107.672 3.90675 108.947 3.11551 110.337 2.67043C111.728 2.17591 113.072 1.92865 114.37 1.92865C116.224 1.92865 117.892 2.22536 119.376 2.81879C120.859 3.36277 122.11 4.30237 123.13 5.63758C124.196 6.92335 125.007 8.65419 125.563 10.8301C126.12 13.006 126.398 15.6764 126.398 18.8414L107.07 20.8442C107.209 22.2289 107.556 23.4158 108.113 24.4048C108.715 25.3444 109.457 26.1109 110.337 26.7043C111.218 27.2978 112.168 27.7181 113.188 27.9654C114.208 28.2126 115.25 28.3363 116.317 28.3363C118.078 28.3363 119.77 28.0643 121.392 27.5203C123.014 26.9763 124.219 26.3087 125.007 25.5175L126.259 29.0781C125.934 29.5726 125.448 30.0671 124.799 30.5616C124.15 31.0562 123.385 31.4765 122.504 31.8227C121.624 32.2183 120.627 32.515 119.515 32.7128C118.449 32.9601 117.336 33.0837 116.177 33.0837C114.555 33.0837 112.933 32.8117 111.311 32.2677C109.688 31.7238 108.228 30.8089 106.931 29.5231C105.633 28.2374 104.59 26.5313 103.802 24.4048C103.014 22.2289 102.62 19.5337 102.62 16.3193ZM106.652 16.4677L121.948 14.6874C121.948 12.2642 121.346 10.3356 120.14 8.90145C118.935 7.41787 116.989 6.67609 114.3 6.67609C113.002 6.72554 111.867 7.02225 110.894 7.56623C109.967 8.11021 109.179 8.80254 108.53 9.64324C107.881 10.4345 107.394 11.3493 107.07 12.3878C106.745 13.4264 106.583 14.4896 106.583 15.5775C106.583 15.9732 106.606 16.2699 106.652 16.4677Z" fill="#663399"/>
<path d="M130.708 16.3193C130.708 13.5994 131.079 11.3246 131.821 9.49488C132.562 7.61568 133.489 6.13211 134.602 5.04415C135.761 3.90675 137.035 3.11551 138.426 2.67043C139.816 2.17591 141.16 1.92865 142.458 1.92865C144.312 1.92865 145.981 2.22536 147.464 2.81879C148.947 3.36277 150.199 4.30237 151.218 5.63758C152.285 6.92335 153.096 8.65419 153.652 10.8301C154.208 13.006 154.486 15.6764 154.486 18.8414L135.158 20.8442C135.297 22.2289 135.645 23.4158 136.201 24.4048C136.803 25.3444 137.545 26.1109 138.426 26.7043C139.306 27.2978 140.257 27.7181 141.276 27.9654C142.296 28.2126 143.339 28.3363 144.405 28.3363C146.166 28.3363 147.858 28.0643 149.48 27.5203C151.103 26.9763 152.308 26.3087 153.096 25.5175L154.347 29.0781C154.023 29.5726 153.536 30.0671 152.887 30.5616C152.238 31.0562 151.473 31.4765 150.593 31.8227C149.712 32.2183 148.716 32.515 147.603 32.7128C146.537 32.9601 145.425 33.0837 144.266 33.0837C142.644 33.0837 141.021 32.8117 139.399 32.2677C137.777 31.7238 136.317 30.8089 135.019 29.5231C133.721 28.2374 132.678 26.5313 131.89 24.4048C131.102 22.2289 130.708 19.5337 130.708 16.3193ZM134.741 16.4677L150.037 14.6874C150.037 12.2642 149.434 10.3356 148.229 8.90145C147.024 7.41787 145.077 6.67609 142.389 6.67609C141.091 6.72554 139.955 7.02225 138.982 7.56623C138.055 8.11021 137.267 8.80254 136.618 9.64324C135.969 10.4345 135.482 11.3493 135.158 12.3878C134.834 13.4264 134.671 14.4896 134.671 15.5775C134.671 15.9732 134.695 16.2699 134.741 16.4677Z" fill="#663399"/>
<path d="M96.3307 42.0816L95.844 44.307C95.6586 44.2081 95.4037 44.1091 95.0792 44.0102C94.7779 43.8866 94.4303 43.7753 94.0363 43.6764C93.6655 43.5775 93.26 43.5034 92.8196 43.4539C92.4025 43.3797 92.0085 43.3426 91.6377 43.3426C90.9424 43.3426 90.3399 43.4539 89.83 43.6764C89.3433 43.899 89.1 44.2946 89.1 44.8633C89.1 45.2836 89.3086 45.6422 89.7257 45.9389C90.1429 46.2356 90.6296 46.4952 91.1858 46.7178C91.7652 46.9156 92.3329 47.0763 92.8892 47.1999C93.4685 47.3236 93.9204 47.4225 94.2449 47.4966C94.9402 47.7192 95.4964 48.0159 95.9135 48.3868C96.3539 48.733 96.6899 49.1162 96.9216 49.5366C97.1766 49.9322 97.3504 50.3525 97.4431 50.7976C97.5358 51.2427 97.5821 51.6754 97.5821 52.0957C97.5821 52.9859 97.3851 53.74 96.9912 54.3582C96.6204 54.9516 96.1337 55.4461 95.5311 55.8418C94.9518 56.2126 94.2913 56.4846 93.5496 56.6577C92.8312 56.8308 92.1128 56.9173 91.3943 56.9173C90.2819 56.9173 89.2159 56.7566 88.1962 56.4352C87.1996 56.1137 86.4117 55.681 85.8323 55.1371L86.6666 52.615C86.9447 52.8622 87.2692 53.0971 87.64 53.3197C88.0339 53.5175 88.4627 53.7029 88.9262 53.876C89.3897 54.0244 89.8764 54.148 90.3862 54.2469C90.8961 54.3211 91.3943 54.3582 91.881 54.3582C92.7153 54.3582 93.4569 54.1851 94.1059 53.8389C94.7548 53.4928 95.1487 52.887 95.2878 52.0215C95.2878 51.8732 95.2646 51.6877 95.2183 51.4652C95.1951 51.2179 95.114 50.983 94.9749 50.7605C94.859 50.538 94.6621 50.3278 94.384 50.13C94.129 49.9322 93.7582 49.7962 93.2715 49.722C92.3214 49.5737 91.4407 49.3758 90.6296 49.1286C89.8416 48.8813 89.1579 48.5722 88.5786 48.2013C87.9992 47.8304 87.5357 47.3854 87.188 46.8661C86.8636 46.3221 86.7014 45.6916 86.7014 44.9746C86.7014 43.5899 87.1301 42.5885 87.9876 41.9703C88.8451 41.3522 90.1081 41.0431 91.7767 41.0431C92.6574 41.0431 93.5033 41.142 94.3144 41.3398C95.1487 41.5376 95.8208 41.7849 96.3307 42.0816Z" fill="#663399"/>
<path d="M111.626 47.4225V48.2013C111.626 49.6107 111.429 50.7852 111.035 51.7248C110.641 52.6644 110.143 53.4186 109.541 53.9873C108.961 54.5313 108.312 54.9145 107.594 55.1371C106.875 55.3596 106.192 55.4709 105.543 55.4709C104.801 55.4709 104.106 55.372 103.457 55.1741C102.831 54.9763 102.356 54.7414 102.032 54.4694L102.31 62.7775L100.155 63V42.8234L100.363 41.1173C102.078 40.6969 103.561 40.4868 104.813 40.4868C106.968 40.4868 108.614 41.0678 109.749 42.23C110.908 43.3674 111.534 45.0982 111.626 47.4225ZM101.684 43.7135L101.823 51.0572C101.846 51.1809 101.962 51.3292 102.171 51.5023C102.403 51.6754 102.692 51.8485 103.04 52.0215C103.411 52.1699 103.816 52.3059 104.257 52.4295C104.697 52.5284 105.149 52.5779 105.612 52.5779C106.053 52.5779 106.493 52.5037 106.933 52.3554C107.397 52.1823 107.802 51.8979 108.15 51.5023C108.521 51.1067 108.822 50.5751 109.054 49.9075C109.286 49.2398 109.402 48.4115 109.402 47.4225C109.402 46.656 109.262 45.9883 108.984 45.4196C108.729 44.8262 108.37 44.344 107.907 43.9732C107.466 43.5775 106.957 43.2932 106.377 43.1201C105.821 42.9223 105.242 42.8234 104.639 42.8234C104.106 42.8234 103.585 42.8976 103.075 43.0459C102.565 43.1943 102.101 43.4168 101.684 43.7135Z" fill="#663399"/>
<path d="M126.018 45.2713L128.243 55.3596L126.157 56.1756L124.906 49.8704C124.744 50.5627 124.489 51.2798 124.141 52.0215C123.817 52.7633 123.399 53.4433 122.89 54.0615C122.403 54.6549 121.812 55.1494 121.117 55.545C120.445 55.9159 119.68 56.1014 118.822 56.1014C117.293 56.1014 116.122 55.5821 115.311 54.5436C114.523 53.4804 114.129 52.0215 114.129 50.1671C114.129 49.1039 114.28 48.0035 114.581 46.8661C114.882 45.704 115.334 44.6531 115.937 43.7135C116.539 42.7739 117.293 41.9951 118.197 41.3769C119.124 40.7587 120.201 40.4497 121.429 40.4497C122.148 40.4497 122.774 40.6227 123.307 40.9689C123.863 41.2904 124.326 41.6983 124.697 42.1929C125.068 42.6874 125.358 43.219 125.566 43.7877C125.775 44.3317 125.925 44.8262 126.018 45.2713ZM121.777 43.1201C121.615 43.0706 121.453 43.0336 121.29 43.0088C121.151 42.9841 121.001 42.9717 120.838 42.9717C120.12 42.9717 119.471 43.2066 118.892 43.6764C118.336 44.1215 117.86 44.6902 117.466 45.3826C117.096 46.0749 116.806 46.829 116.597 47.645C116.412 48.461 116.319 49.2151 116.319 49.9075C116.319 50.9954 116.539 51.8732 116.98 52.5408C117.42 53.2084 118.115 53.5422 119.066 53.5422C119.714 53.5422 120.317 53.3197 120.873 52.8746C121.429 52.4048 121.905 51.8237 122.299 51.1314C122.693 50.4391 122.994 49.6849 123.202 48.869C123.434 48.0283 123.55 47.2494 123.55 46.5323C123.55 45.7411 123.399 45.0487 123.098 44.4553C122.82 43.8372 122.38 43.3921 121.777 43.1201Z" fill="#663399"/>
<path d="M142.635 42.675L142.009 45.0487C141.337 44.4059 140.619 43.9361 139.854 43.6394C139.089 43.3179 138.336 43.1572 137.594 43.1572C136.968 43.1572 136.366 43.2808 135.787 43.5281C135.23 43.7506 134.744 44.0968 134.326 44.5666C133.909 45.0364 133.573 45.6175 133.318 46.3098C133.087 47.0021 132.971 47.7934 132.971 48.6835C132.971 49.7467 133.098 50.6369 133.353 51.3539C133.631 52.071 133.99 52.6521 134.431 53.0971C134.871 53.5422 135.369 53.8637 135.926 54.0615C136.505 54.2593 137.096 54.3582 137.698 54.3582C138.232 54.3335 138.753 54.2222 139.263 54.0244C139.796 53.8018 140.271 53.5051 140.688 53.1342C141.105 52.7386 141.453 52.2812 141.731 51.7619C142.009 51.2179 142.171 50.6122 142.218 49.9445L144.164 50.983C144.118 51.9721 143.898 52.8375 143.504 53.5793C143.133 54.3211 142.646 54.9392 142.044 55.4338C141.464 55.9283 140.792 56.2992 140.028 56.5465C139.263 56.7937 138.475 56.9173 137.664 56.9173C136.806 56.9173 135.96 56.7443 135.126 56.3981C134.292 56.0767 133.55 55.5821 132.901 54.9145C132.252 54.2469 131.731 53.4062 131.337 52.3924C130.943 51.3539 130.746 50.1424 130.746 48.7577C130.746 47.5956 130.908 46.5323 131.233 45.568C131.557 44.5789 132.009 43.7383 132.588 43.0459C133.168 42.3289 133.851 41.7725 134.639 41.3769C135.45 40.9813 136.331 40.7835 137.281 40.7835C138.092 40.7835 138.938 40.9442 139.819 41.2656C140.723 41.5623 141.661 42.0321 142.635 42.675Z" fill="#663399"/>
<path d="M146.111 48.6093C146.111 47.2494 146.296 46.112 146.667 45.1971C147.038 44.2575 147.502 43.5157 148.058 42.9717C148.637 42.403 149.275 42.0074 149.97 41.7849C150.665 41.5376 151.337 41.414 151.986 41.414C152.913 41.414 153.747 41.5623 154.489 41.8591C155.231 42.1311 155.856 42.6008 156.366 43.2685C156.899 43.9113 157.305 44.7768 157.583 45.8647C157.861 46.9527 158 48.2879 158 49.8704L148.336 50.8718C148.405 51.5641 148.579 52.1575 148.857 52.6521C149.159 53.1219 149.529 53.5051 149.97 53.8018C150.41 54.0986 150.885 54.3087 151.395 54.4324C151.905 54.556 152.426 54.6178 152.959 54.6178C153.84 54.6178 154.686 54.4818 155.497 54.2098C156.308 53.9378 156.911 53.604 157.305 53.2084L157.93 54.9887C157.768 55.236 157.525 55.4832 157.2 55.7305C156.876 55.9777 156.494 56.1879 156.053 56.361C155.613 56.5588 155.115 56.7072 154.558 56.8061C154.025 56.9297 153.469 56.9915 152.89 56.9915C152.079 56.9915 151.268 56.8555 150.456 56.5835C149.645 56.3116 148.915 55.8541 148.266 55.2112C147.617 54.5684 147.096 53.7153 146.702 52.6521C146.308 51.5641 146.111 50.2165 146.111 48.6093ZM148.127 48.6835L155.775 47.7934C155.775 46.5818 155.474 45.6175 154.871 44.9004C154.269 44.1586 153.295 43.7877 151.951 43.7877C151.302 43.8124 150.735 43.9608 150.248 44.2328C149.784 44.5048 149.39 44.8509 149.066 45.2713C148.741 45.6669 148.498 46.1243 148.336 46.6436C148.174 47.1628 148.093 47.6945 148.093 48.2384C148.093 48.4362 148.104 48.5846 148.127 48.6835Z" fill="#663399"/>
</svg>
