<svg width="98" height="35" viewBox="0 0 98 35" fill="none" xmlns="http://www.w3.org/2000/svg">
<path d="M14.2308 7.74756V8.61298C14.2308 10.179 13.9864 11.484 13.4977 12.528C13.0089 13.572 12.3908 14.4099 11.6434 15.0418C10.9246 15.6462 10.1197 16.0721 9.22844 16.3193C8.33722 16.5666 7.48912 16.6902 6.68415 16.6902C5.76418 16.6902 4.90171 16.5803 4.09674 16.3605C3.32051 16.1407 2.73116 15.8797 2.32867 15.5775L2.67366 24.8087L0 25.0559V2.63747L0.258741 0.741787C2.38617 0.274736 4.22611 0.0412104 5.77856 0.0412104C8.45222 0.0412104 10.4934 0.68684 11.9021 1.9781C13.3396 3.24189 14.1158 5.16504 14.2308 7.74756ZM1.89744 3.62652L2.06993 11.7862C2.09868 11.9235 2.24242 12.0884 2.50117 12.2807C2.78866 12.473 3.14802 12.6653 3.57925 12.8576C4.03924 13.0225 4.54235 13.1736 5.08858 13.311C5.63481 13.4209 6.19542 13.4758 6.7704 13.4758C7.31663 13.4758 7.86286 13.3934 8.40909 13.2285C8.98407 13.0362 9.48718 12.7203 9.91842 12.2807C10.3784 11.8411 10.7521 11.2504 11.0396 10.5087C11.3271 9.76687 11.4709 8.8465 11.4709 7.74756C11.4709 6.89587 11.2984 6.15409 10.9534 5.52219C10.6371 4.86283 10.1915 4.32709 9.61655 3.91499C9.07032 3.47541 8.43784 3.15946 7.71912 2.96715C7.02914 2.74736 6.31041 2.63747 5.56294 2.63747C4.90171 2.63747 4.25486 2.71989 3.62238 2.88473C2.9899 3.04957 2.41492 3.29683 1.89744 3.62652Z" fill="white"/>
<path d="M32.0839 5.35735L34.8438 16.5666L32.2564 17.4732L30.704 10.4674C30.5027 11.2367 30.1865 12.0334 29.7553 12.8576C29.3528 13.6819 28.8353 14.4374 28.2028 15.1242C27.5991 15.7836 26.866 16.3331 26.0035 16.7726C25.1698 17.1847 24.2211 17.3908 23.1573 17.3908C21.2599 17.3908 19.8081 16.8138 18.8019 15.66C17.8244 14.4786 17.3357 12.8576 17.3357 10.7971C17.3357 9.61576 17.5225 8.39319 17.8963 7.1294C18.27 5.83814 18.8306 4.67051 19.5781 3.62652C20.3256 2.58252 21.2599 1.7171 22.3811 1.03026C23.5311 0.34342 24.8679 0 26.3916 0C27.2828 0 28.0591 0.192315 28.7203 0.576946C29.4103 0.934103 29.9852 1.38742 30.4452 1.93689C30.9052 2.48636 31.2646 3.07704 31.5233 3.70894C31.7821 4.31336 31.9689 4.86283 32.0839 5.35735ZM26.8228 2.96715C26.6216 2.9122 26.4204 2.87099 26.2191 2.84352C26.0466 2.81604 25.8598 2.80231 25.6585 2.80231C24.7673 2.80231 23.9623 3.06331 23.2436 3.58531C22.5536 4.07983 21.9643 4.71172 21.4755 5.48098C21.0155 6.25025 20.6562 7.08819 20.3974 7.99482C20.1674 8.90145 20.0525 9.73939 20.0525 10.5087C20.0525 11.7175 20.3256 12.6928 20.8718 13.4346C21.418 14.1764 22.2805 14.5473 23.4592 14.5473C24.2642 14.5473 25.0117 14.3 25.7016 13.8055C26.3916 13.2835 26.981 12.6379 27.4697 11.8686C27.9584 11.0993 28.3322 10.2614 28.5909 9.35476C28.8784 8.42066 29.0222 7.55524 29.0222 6.75851C29.0222 5.87935 28.8353 5.11009 28.4615 4.45072C28.1166 3.76388 27.5703 3.26936 26.8228 2.96715Z" fill="white"/>
<path d="M50.2821 6.09914L46.5734 17.4732L42.9511 17.8029L37.1725 1.15389L39.6737 0.329683L44.676 14.094L49.0746 1.15389H51.9208L55.0257 13.5994L58.993 0.906629L61.5804 1.40115L56.3194 17.9677H53.387L50.2821 6.09914Z" fill="white"/>
<path d="M63.6504 9.06629C63.6504 7.55524 63.8804 6.29146 64.3403 5.27493C64.8003 4.23094 65.3753 3.40673 66.0653 2.80231C66.784 2.17041 67.5746 1.73084 68.4371 1.48357C69.2996 1.20884 70.1333 1.07147 70.9382 1.07147C72.0882 1.07147 73.1232 1.23631 74.0431 1.566C74.9631 1.86821 75.7393 2.3902 76.3718 3.13199C77.033 3.8463 77.5361 4.80788 77.8811 6.01672C78.2261 7.22556 78.3986 8.70913 78.3986 10.4674L66.4103 11.5801C66.4965 12.3494 66.7121 13.0088 67.0571 13.5582C67.4309 14.0802 67.8908 14.5061 68.4371 14.8357C68.9833 15.1654 69.5727 15.399 70.2051 15.5363C70.8376 15.6737 71.4845 15.7424 72.1457 15.7424C73.2382 15.7424 74.2875 15.5913 75.2937 15.2891C76.2999 14.9869 77.0474 14.616 77.5361 14.1764L78.3124 16.1545C78.1111 16.4292 77.8093 16.704 77.4068 16.9787C77.0043 17.2534 76.5299 17.4869 75.9837 17.6793C75.4375 17.8991 74.8194 18.0639 74.1294 18.1738C73.4682 18.3112 72.7782 18.3798 72.0595 18.3798C71.0532 18.3798 70.047 18.2287 69.0408 17.9265C68.0346 17.6243 67.129 17.1161 66.324 16.4017C65.5191 15.6874 64.8722 14.7396 64.3835 13.5582C63.8947 12.3494 63.6504 10.8521 63.6504 9.06629ZM66.1515 9.14871L75.6387 8.15966C75.6387 6.81345 75.265 5.74198 74.5175 4.94525C73.77 4.12104 72.5626 3.70894 70.8951 3.70894C70.0901 3.73641 69.3858 3.90125 68.7821 4.20346C68.2071 4.50567 67.7184 4.8903 67.3159 5.35735C66.9134 5.79693 66.6115 6.30519 66.4103 6.88214C66.209 7.45908 66.1084 8.04977 66.1084 8.65419C66.1084 8.87397 66.1228 9.03882 66.1515 9.14871Z" fill="white"/>
<path d="M81.0723 9.06629C81.0723 7.55524 81.3023 6.29146 81.7623 5.27493C82.2222 4.23094 82.7972 3.40673 83.4872 2.80231C84.2059 2.17041 84.9965 1.73084 85.859 1.48357C86.7215 1.20884 87.5552 1.07147 88.3602 1.07147C89.5101 1.07147 90.5451 1.23631 91.4651 1.566C92.385 1.86821 93.1612 2.3902 93.7937 3.13199C94.455 3.8463 94.9581 4.80788 95.3031 6.01672C95.648 7.22556 95.8205 8.70913 95.8205 10.4674L83.8322 11.5801C83.9184 12.3494 84.134 13.0088 84.479 13.5582C84.8528 14.0802 85.3128 14.5061 85.859 14.8357C86.4052 15.1654 86.9946 15.399 87.6271 15.5363C88.2595 15.6737 88.9064 15.7424 89.5676 15.7424C90.6601 15.7424 91.7094 15.5913 92.7156 15.2891C93.7219 14.9869 94.4693 14.616 94.9581 14.1764L95.7343 16.1545C95.533 16.4292 95.2312 16.704 94.8287 16.9787C94.4262 17.2534 93.9519 17.4869 93.4056 17.6793C92.8594 17.8991 92.2413 18.0639 91.5513 18.1738C90.8901 18.3112 90.2001 18.3798 89.4814 18.3798C88.4752 18.3798 87.4689 18.2287 86.4627 17.9265C85.4565 17.6243 84.5509 17.1161 83.7459 16.4017C82.941 15.6874 82.2941 14.7396 81.8054 13.5582C81.3166 12.3494 81.0723 10.8521 81.0723 9.06629ZM83.5734 9.14871L93.0606 8.15966C93.0606 6.81345 92.6869 5.74198 91.9394 4.94525C91.1919 4.12104 89.9845 3.70894 88.317 3.70894C87.5121 3.73641 86.8077 3.90125 86.204 4.20346C85.629 4.50567 85.1403 4.8903 84.7378 5.35735C84.3353 5.79693 84.0334 6.30519 83.8322 6.88214C83.6309 7.45908 83.5303 8.04977 83.5303 8.65419C83.5303 8.87397 83.5447 9.03882 83.5734 9.14871Z" fill="white"/>
<path d="M59.7494 23.3787L59.4475 24.615C59.3325 24.56 59.1744 24.5051 58.9732 24.4501C58.7863 24.3815 58.5707 24.3196 58.3263 24.2647C58.0963 24.2097 57.8448 24.1685 57.5717 24.1411C57.3129 24.0998 57.0686 24.0792 56.8386 24.0792C56.4073 24.0792 56.0336 24.1411 55.7174 24.2647C55.4155 24.3883 55.2646 24.6081 55.2646 24.9241C55.2646 25.1576 55.3939 25.3568 55.6527 25.5216C55.9114 25.6864 56.2133 25.8307 56.5583 25.9543C56.9176 26.0642 57.2698 26.1535 57.6148 26.2222C57.9742 26.2909 58.2545 26.3458 58.4557 26.387C58.8869 26.5107 59.2319 26.6755 59.4907 26.8815C59.7638 27.0739 59.9722 27.2868 60.116 27.5203C60.2741 27.7401 60.3819 27.9736 60.4394 28.2209C60.4969 28.4682 60.5256 28.7085 60.5256 28.9421C60.5256 29.4366 60.4035 29.8556 60.1591 30.199C59.9291 30.5287 59.6272 30.8034 59.2535 31.0232C58.8941 31.2292 58.4845 31.3804 58.0245 31.4765C57.5789 31.5727 57.1332 31.6207 56.6876 31.6207C55.9977 31.6207 55.3364 31.5315 54.704 31.3529C54.0858 31.1743 53.5971 30.9339 53.2378 30.6317L53.7552 29.2305C53.9277 29.3679 54.129 29.4984 54.359 29.622C54.6033 29.7319 54.8693 29.835 55.1567 29.9311C55.4442 30.0135 55.7461 30.0822 56.0623 30.1372C56.3786 30.1784 56.6876 30.199 56.9895 30.199C57.507 30.199 57.967 30.1028 58.3695 29.9105C58.7719 29.7182 59.0163 29.3816 59.1026 28.9009C59.1026 28.8184 59.0882 28.7154 59.0594 28.5918C59.0451 28.4544 58.9947 28.3239 58.9085 28.2003C58.8366 28.0767 58.7144 27.9599 58.5419 27.85C58.3838 27.7401 58.1538 27.6645 57.852 27.6233C57.2626 27.5409 56.7164 27.431 56.2133 27.2937C55.7245 27.1563 55.3005 26.9846 54.9411 26.7785C54.5818 26.5725 54.2943 26.3252 54.0787 26.0367C53.8774 25.7345 53.7768 25.3842 53.7768 24.9859C53.7768 24.2166 54.0427 23.6603 54.5746 23.3169C55.1064 22.9734 55.8899 22.8017 56.9248 22.8017C57.471 22.8017 57.9957 22.8567 58.4988 22.9666C59.0163 23.0765 59.4332 23.2138 59.7494 23.3787Z" fill="white"/>
<path d="M69.2366 26.3458V26.7785C69.2366 27.5615 69.1144 28.214 68.87 28.736C68.6257 29.258 68.3166 29.677 67.9429 29.9929C67.5835 30.2951 67.181 30.5081 66.7354 30.6317C66.2898 30.7553 65.8658 30.8171 65.4633 30.8171C65.0033 30.8171 64.5721 30.7622 64.1696 30.6523C63.7815 30.5424 63.4868 30.4119 63.2855 30.2608L63.458 34.8764L62.1212 35V23.7908L62.2506 22.8429C63.3143 22.6094 64.2343 22.4926 65.0105 22.4926C66.3473 22.4926 67.3679 22.8155 68.0723 23.4611C68.791 24.093 69.1791 25.0546 69.2366 26.3458ZM63.0699 24.2853L63.1562 28.3651C63.1705 28.4338 63.2424 28.5162 63.3718 28.6124C63.5155 28.7085 63.6952 28.8047 63.9108 28.9009C64.1408 28.9833 64.3924 29.0588 64.6655 29.1275C64.9386 29.1825 65.2189 29.2099 65.5064 29.2099C65.7795 29.2099 66.0526 29.1687 66.3258 29.0863C66.6132 28.9902 66.8648 28.8322 67.0804 28.6124C67.3104 28.3926 67.4973 28.0973 67.641 27.7264C67.7848 27.3555 67.8566 26.8953 67.8566 26.3458C67.8566 25.92 67.7704 25.5491 67.5979 25.2331C67.4398 24.9035 67.217 24.6356 66.9295 24.4295C66.6564 24.2097 66.3401 24.0518 65.9808 23.9556C65.6358 23.8457 65.2764 23.7908 64.9027 23.7908C64.5721 23.7908 64.2486 23.832 63.9324 23.9144C63.6162 23.9968 63.3287 24.1205 63.0699 24.2853Z" fill="white"/>
<path d="M78.1632 25.1507L79.5431 30.7553L78.2494 31.2086L77.4732 27.7058C77.3726 28.0904 77.2144 28.4888 76.9988 28.9009C76.7976 29.313 76.5388 29.6907 76.2226 30.0341C75.9207 30.3638 75.5542 30.6386 75.123 30.8584C74.7061 31.0644 74.2317 31.1674 73.6999 31.1674C72.7512 31.1674 72.0252 30.879 71.5221 30.302C71.0334 29.7113 70.789 28.9009 70.789 27.8706C70.789 27.2799 70.8825 26.6686 71.0693 26.0367C71.2562 25.3911 71.5365 24.8073 71.9102 24.2853C72.284 23.7633 72.7512 23.3306 73.3118 22.9872C73.8867 22.6437 74.5552 22.472 75.317 22.472C75.7626 22.472 76.1507 22.5682 76.4813 22.7605C76.8263 22.9391 77.1138 23.1657 77.3438 23.4405C77.5738 23.7152 77.7535 24.0106 77.8829 24.3265C78.0122 24.6287 78.1057 24.9035 78.1632 25.1507ZM75.5326 23.9556C75.432 23.9281 75.3314 23.9075 75.2308 23.8938C75.1445 23.8801 75.0511 23.8732 74.9505 23.8732C74.5049 23.8732 74.1024 24.0037 73.743 24.2647C73.398 24.512 73.1033 24.8279 72.859 25.2125C72.629 25.5972 72.4493 26.0161 72.3199 26.4694C72.2049 26.9228 72.1474 27.3417 72.1474 27.7264C72.1474 28.3308 72.284 28.8184 72.5571 29.1893C72.8302 29.5602 73.2615 29.7457 73.8508 29.7457C74.2533 29.7457 74.627 29.622 74.972 29.3748C75.317 29.1138 75.6117 28.791 75.8561 28.4063C76.1004 28.0217 76.2873 27.6027 76.4167 27.1494C76.5604 26.6824 76.6323 26.2497 76.6323 25.8513C76.6323 25.4117 76.5388 25.0271 76.352 24.6974C76.1795 24.354 75.9064 24.1067 75.5326 23.9556Z" fill="white"/>
<path d="M88.4697 23.7083L88.0816 25.0271C87.6647 24.6699 87.2191 24.4089 86.7448 24.2441C86.2704 24.0655 85.8032 23.9762 85.3432 23.9762C84.9551 23.9762 84.5814 24.0449 84.222 24.1823C83.877 24.3059 83.5752 24.4982 83.3164 24.7592C83.0577 25.0202 82.8493 25.343 82.6911 25.7277C82.5474 26.1123 82.4755 26.5519 82.4755 27.0464C82.4755 27.6371 82.5546 28.1316 82.7127 28.53C82.8852 28.9283 83.108 29.2511 83.3811 29.4984C83.6542 29.7457 83.9633 29.9243 84.3083 30.0341C84.6676 30.144 85.0342 30.199 85.4079 30.199C85.7385 30.1853 86.062 30.1234 86.3782 30.0135C86.7088 29.8899 87.0035 29.7251 87.2622 29.519C87.521 29.2992 87.7366 29.0451 87.9091 28.7566C88.0816 28.4544 88.1822 28.1179 88.211 27.747L89.4184 28.3239C89.3897 28.8734 89.2531 29.3542 89.0087 29.7663C88.7787 30.1784 88.4769 30.5218 88.1031 30.7965C87.7438 31.0713 87.3269 31.2773 86.8526 31.4147C86.3782 31.5521 85.8895 31.6207 85.3864 31.6207C84.8545 31.6207 84.3298 31.5246 83.8123 31.3323C83.2949 31.1537 82.8349 30.879 82.4324 30.5081C82.0299 30.1372 81.7065 29.6701 81.4621 29.1069C81.2178 28.53 81.0956 27.8569 81.0956 27.0876C81.0956 26.442 81.1962 25.8513 81.3974 25.3156C81.5987 24.7661 81.879 24.299 82.2383 23.9144C82.5977 23.516 83.0218 23.207 83.5105 22.9872C84.0136 22.7674 84.5598 22.6575 85.1492 22.6575C85.6523 22.6575 86.177 22.7468 86.7232 22.9254C87.2838 23.0902 87.866 23.3512 88.4697 23.7083Z" fill="white"/>
<path d="M90.6259 27.0052C90.6259 26.2497 90.7409 25.6178 90.9709 25.1095C91.2009 24.5875 91.4883 24.1754 91.8333 23.8732C92.1927 23.5572 92.588 23.3375 93.0192 23.2138C93.4505 23.0765 93.8673 23.0078 94.2698 23.0078C94.8448 23.0078 95.3623 23.0902 95.8223 23.255C96.2822 23.4061 96.6704 23.6671 96.9866 24.038C97.3172 24.3952 97.5688 24.876 97.7413 25.4804C97.9137 26.0848 98 26.8266 98 27.7058L92.0058 28.2621C92.049 28.6467 92.1568 28.9764 92.3293 29.2511C92.5161 29.5121 92.7461 29.7251 93.0192 29.8899C93.2923 30.0548 93.587 30.1715 93.9033 30.2402C94.2195 30.3089 94.5429 30.3432 94.8735 30.3432C95.4198 30.3432 95.9444 30.2677 96.4475 30.1166C96.9507 29.9655 97.3244 29.78 97.5688 29.5602L97.9569 30.5493C97.8563 30.6866 97.7053 30.824 97.5041 30.9614C97.3028 31.0987 97.0657 31.2155 96.7925 31.3117C96.5194 31.4216 96.2104 31.504 95.8654 31.5589C95.5348 31.6276 95.1898 31.662 94.8304 31.662C94.3273 31.662 93.8242 31.5864 93.3211 31.4353C92.818 31.2842 92.3652 31.0301 91.9627 30.6729C91.5602 30.3158 91.2368 29.8418 90.9924 29.2511C90.7481 28.6467 90.6259 27.8981 90.6259 27.0052ZM91.8765 27.0464L96.62 26.5519C96.62 25.8788 96.4332 25.343 96.0594 24.9447C95.6857 24.5326 95.082 24.3265 94.2483 24.3265C93.8458 24.3402 93.4936 24.4227 93.1917 24.5738C92.9042 24.7249 92.6599 24.9172 92.4586 25.1507C92.2574 25.3705 92.1064 25.6246 92.0058 25.9131C91.9052 26.2016 91.8549 26.4969 91.8549 26.7991C91.8549 26.909 91.8621 26.9914 91.8765 27.0464Z" fill="white"/>
</svg>
