<svg width="206" height="206" viewBox="0 0 206 206" fill="none" xmlns="http://www.w3.org/2000/svg">
<path fill-rule="evenodd" clip-rule="evenodd" d="M103 206C159.885 206 206 159.885 206 103C206 46.1147 159.885 0 103 0C46.1147 0 0 46.1147 0 103C0 159.885 46.1147 206 103 206Z" fill="#663399"/>
<mask id="mask0" mask-type="alpha" maskUnits="userSpaceOnUse" x="0" y="0" width="206" height="206">
<path fill-rule="evenodd" clip-rule="evenodd" d="M103 206C159.885 206 206 159.885 206 103C206 46.1147 159.885 0 103 0C46.1147 0 0 46.1147 0 103C0 159.885 46.1147 206 103 206Z" fill="white"/>
</mask>
<g mask="url(#mask0)">
<path fill-rule="evenodd" clip-rule="evenodd" d="M177.94 182.101C171.868 173.317 162.915 166.932 152.633 164.052L128.75 157.361V140.195C138.846 132.611 145.476 120.676 145.884 107.176C147.295 107.798 148.853 108.15 150.495 108.15C156.815 108.15 161.939 103.027 161.939 96.7058C161.939 90.3851 156.815 85.2614 150.495 85.2614C148.866 85.2614 147.32 85.6064 145.917 86.2198V82.9725C145.917 59.2699 126.702 40.0558 103 40.0558H103C79.2978 40.0558 60.0837 59.2699 60.0837 82.9725V86.2198C58.6806 85.6064 57.1345 85.2614 55.5059 85.2614C49.1851 85.2614 44.0615 90.3851 44.0615 96.7058C44.0615 103.027 49.1851 108.15 55.5059 108.15C57.1476 108.15 58.7052 107.798 60.1169 107.176C60.5237 120.676 67.1541 132.611 77.2498 140.195V157.361L53.3675 164.052C43.0847 166.932 34.1323 173.317 28.0598 182.101L11.4448 206.138V223.167H194.556V206.138L177.94 182.101Z" fill="#844123"/>
<path fill-rule="evenodd" clip-rule="evenodd" d="M103 148.778C97.7082 148.778 92.6429 147.814 87.9621 146.063C94.6193 150.315 102.525 152.783 111.011 152.783C117.34 152.783 123.342 151.403 128.75 148.944V140.195C121.577 145.583 112.662 148.778 103 148.778Z" fill="#A3420B"/>
<path d="M61.5766 98.376C61.7225 97.8444 61.8009 97.2841 61.8009 96.7062C61.8009 93.23 58.9827 90.4118 55.5065 90.4118C54.6373 90.4118 53.8093 90.588 53.0562 90.9062" stroke="#100F0F" stroke-width="2" stroke-linecap="round" stroke-linejoin="round"/>
<path d="M144.424 98.376C144.278 97.8444 144.201 97.2841 144.201 96.7062C144.201 93.23 147.019 90.4118 150.495 90.4118C151.364 90.4118 152.192 90.588 152.945 90.9062" stroke="#100F0F" stroke-width="2" stroke-linecap="round" stroke-linejoin="round"/>
<path fill-rule="evenodd" clip-rule="evenodd" d="M114.445 122.461C114.445 128.782 109.321 133.905 103 133.905C96.6794 133.905 91.5557 128.782 91.5557 122.461H114.445Z" fill="white"/>
<path fill-rule="evenodd" clip-rule="evenodd" d="M126.462 98.422C126.462 100.95 124.412 103 121.884 103C119.356 103 117.306 100.95 117.306 98.422C117.306 95.894 119.356 93.8443 121.884 93.8443C124.412 93.8443 126.462 95.894 126.462 98.422" fill="#100F0F"/>
<path fill-rule="evenodd" clip-rule="evenodd" d="M88.6945 98.422C88.6945 100.95 86.6448 103 84.1167 103C81.5887 103 79.539 100.95 79.539 98.422C79.539 95.894 81.5887 93.8443 84.1167 93.8443C86.6448 93.8443 88.6945 95.894 88.6945 98.422" fill="#100F0F"/>
<path d="M103 93.8443L108.722 113.3L100.711 114.444" stroke="#100F0F" stroke-width="2" stroke-linecap="round" stroke-linejoin="round"/>
<path fill-rule="evenodd" clip-rule="evenodd" d="M148.778 85.4035V82.9722C148.778 74.1909 146.301 65.9898 142.014 59.0218C138.041 52.5643 132.508 47.1763 125.943 43.3653C119.196 39.4478 111.363 37.1944 103 37.1944C94.6364 37.1944 86.8038 39.4478 80.0568 43.3653C73.4922 47.1763 67.9588 52.5643 63.9859 59.0218C59.6994 65.9898 57.2222 74.1909 57.2222 82.9722V85.4035C59.6095 85.764 61.7537 86.8541 63.4183 88.4495C68.6907 83.1576 72.9366 76.8437 75.8252 69.8242C83.9095 74.1954 93.1647 76.6777 103 76.6777C112.835 76.6777 122.09 74.1954 130.175 69.8242C133.063 76.8437 137.31 83.1576 142.582 88.4495C144.246 86.8541 146.39 85.764 148.778 85.4035" fill="#100F0F"/>
<path fill-rule="evenodd" clip-rule="evenodd" d="M194.555 206.137L177.94 182.101C171.868 173.318 162.915 166.932 152.632 164.052L128.75 157.361C128.75 171.583 117.221 183.111 103 183.111V183.111C88.7783 183.111 77.2497 171.583 77.2497 157.361L53.3669 164.052C43.084 166.932 34.1316 173.318 28.0592 182.101L11.4442 206.137V223.167H194.555V206.137Z" fill="black"/>
</g>
</svg>
