<svg width="181" height="181" viewBox="0 0 181 181" fill="none" xmlns="http://www.w3.org/2000/svg">
<path fill-rule="evenodd" clip-rule="evenodd" d="M90.5 181C140.482 181 181 140.482 181 90.5C181 40.5182 140.482 0 90.5 0C40.5182 0 0 40.5182 0 90.5C0 140.482 40.5182 181 90.5 181ZM53 69C48.0294 69 44 73.0294 44 78V86C44 90.9706 48.0294 95 53 95C57.9706 95 62 90.9706 62 86V78C62 73.0294 57.9706 69 53 69ZM117 78C117 73.0294 121.029 69 126 69C130.971 69 135 73.0294 135 78V86C135 90.9706 130.971 95 126 95C121.029 95 117 90.9706 117 86V78ZM120.231 122.255C119.702 119.353 116.921 117.428 114.019 117.957L79.2551 124.286C76.3528 124.815 74.4284 127.596 74.9568 130.498C75.4852 133.4 78.2664 135.325 81.1686 134.796L115.933 128.467C118.835 127.938 120.759 125.157 120.231 122.255Z" fill="#75777B"/>
</svg>
