<svg width="28" height="24" viewBox="0 0 28 24" fill="none" xmlns="http://www.w3.org/2000/svg">
<path d="M28 2.847C26.9516 3.3364 25.8394 3.65695 24.7007 3.79793C25.8995 3.04098 26.7967 1.85054 27.2253 0.448144C26.0978 1.15272 24.865 1.65022 23.5795 1.91944C22.792 1.03168 21.7693 0.41431 20.6446 0.147599C19.5198 -0.119112 18.345 -0.0228217 17.2728 0.42395C16.2007 0.870721 15.2808 1.6473 14.6328 2.65272C13.9848 3.65813 13.6387 4.84586 13.6395 6.06147C13.6395 6.53755 13.6897 6.99887 13.7912 7.4405C11.5063 7.32192 9.2707 6.69699 7.23017 5.60644C5.18963 4.5159 3.38993 2.98422 1.94833 1.11121C1.43614 2.0357 1.16749 3.0877 1.17017 4.15838C1.17017 6.2583 2.18167 8.11341 3.72633 9.19966C2.81395 9.16914 1.9218 8.90844 1.12467 8.43941V8.51691C1.12388 9.91584 1.5825 11.2719 2.4226 12.3546C3.26269 13.4374 4.43242 14.18 5.733 14.4562C4.88724 14.7008 3.99948 14.737 3.13833 14.562C3.50514 15.7655 4.2193 16.8182 5.18103 17.5729C6.14277 18.3276 7.30405 18.7467 8.50267 18.7717C7.31108 19.7579 5.94675 20.4867 4.48776 20.9162C3.02876 21.3458 1.50375 21.4678 0 21.2751C2.62561 23.0568 5.68253 24.0028 8.80483 24C19.3725 24 25.1522 14.7687 25.1522 6.76267C25.1522 6.50433 25.1428 6.23861 25.1335 5.97905C26.2565 5.12167 27.2269 4.06177 28 2.84823V2.847Z" fill="white"/>
</svg>
