<svg width="270" height="162" viewBox="0 0 270 162" fill="none" xmlns="http://www.w3.org/2000/svg">
<path d="M39.3745 77.1281V79.8233C39.3745 84.7002 38.7025 88.7644 37.3583 92.0157C36.0141 95.267 34.3142 97.8766 32.2584 99.8445C30.2817 101.727 28.0678 103.053 25.6167 103.823C23.1656 104.593 20.833 104.978 18.6191 104.978C16.089 104.978 13.7169 104.636 11.503 103.951C9.36816 103.267 7.74726 102.454 6.6403 101.513L7.58912 130.261L0.235779 131.031V61.2138L0.947393 55.3101C6.79844 53.8556 11.8588 53.1283 16.1285 53.1283C23.4818 53.1283 29.0957 55.139 32.97 59.1604C36.9234 63.0962 39.0583 69.0854 39.3745 77.1281ZM5.45428 64.294L5.92869 89.7055C6.00776 90.1333 6.4031 90.6467 7.11471 91.2456C7.90539 91.8445 8.89375 92.4435 10.0798 93.0424C11.3449 93.5558 12.7286 94.0263 14.2309 94.4541C15.7331 94.7964 17.275 94.9675 18.8563 94.9675C20.3586 94.9675 21.8609 94.7108 23.3632 94.1975C24.9446 93.5985 26.3283 92.6146 27.5143 91.2456C28.7794 89.8766 29.8073 88.0371 30.598 85.727C31.3886 83.4168 31.784 80.5505 31.784 77.1281C31.784 74.4757 31.3096 72.1656 30.3608 70.1977C29.491 68.1442 28.2655 66.4758 26.6841 65.1924C25.1818 63.8234 23.4423 62.8395 21.4656 62.2406C19.568 61.5561 17.5912 61.2138 15.5355 61.2138C13.7169 61.2138 11.9379 61.4705 10.1984 61.9839C8.45887 62.4972 6.87751 63.2673 5.45428 64.294Z" fill="#663399"/>
<path d="M88.4759 69.6843L96.0664 104.593L88.9503 107.417L84.6806 85.5986C84.1271 87.9943 83.2574 90.4756 82.0714 93.0424C80.9644 95.6092 79.5412 97.9621 77.8017 100.101C76.1413 102.155 74.125 103.866 71.753 105.235C69.46 106.518 66.8507 107.16 63.9252 107.16C58.7067 107.16 54.7138 105.363 51.9464 101.77C49.2581 98.0905 47.9139 93.0424 47.9139 86.6253C47.9139 82.9462 48.4278 79.1388 49.4557 75.203C50.4836 71.1816 52.0255 67.5453 54.0812 64.294C56.137 61.0427 58.7067 58.3475 61.7904 56.2085C64.9531 54.0695 68.6298 53 72.8204 53C75.2715 53 77.4063 53.5989 79.2249 54.7968C81.1226 55.9091 82.7039 57.3208 83.969 59.032C85.2341 60.7432 86.2224 62.5828 86.9341 64.5507C87.6457 66.433 88.1596 68.1442 88.4759 69.6843ZM74.0064 62.2406C73.4529 62.0694 72.8995 61.9411 72.346 61.8555C71.8716 61.77 71.3576 61.7272 70.8041 61.7272C68.353 61.7272 66.1391 62.54 64.1624 64.1657C62.2648 65.7058 60.6439 67.6737 59.2997 70.0694C58.0346 72.465 57.0463 75.0746 56.3347 77.8982C55.7021 80.7217 55.3858 83.3313 55.3858 85.727C55.3858 89.4916 56.137 92.529 57.6393 94.8392C59.1416 97.1493 61.5136 98.3044 64.7554 98.3044C66.9693 98.3044 69.0251 97.5343 70.9228 95.9942C72.8204 94.3686 74.4413 92.3579 75.7854 89.9622C77.1296 87.5665 78.1575 84.9569 78.8691 82.1334C79.6598 79.2243 80.0551 76.5292 80.0551 74.0479C80.0551 71.31 79.5412 68.9143 78.5133 66.8608C77.5645 64.7218 76.0622 63.1817 74.0064 62.2406Z" fill="#663399"/>
<path d="M138.526 71.9945L128.326 107.417L118.364 108.443L102.471 56.5935L109.35 54.0267L123.108 96.8926L135.205 56.5935H143.033L151.572 95.3525L162.484 55.8235L169.6 57.3636L155.13 108.957H147.065L138.526 71.9945Z" fill="#663399"/>
<path d="M175.293 81.235C175.293 76.5292 175.925 72.5934 177.19 69.4276C178.456 66.1763 180.037 63.6095 181.935 61.7272C183.911 59.7593 186.086 58.3903 188.458 57.6203C190.83 56.7647 193.123 56.3369 195.337 56.3369C198.499 56.3369 201.346 56.8502 203.876 57.877C206.406 58.8181 208.541 60.4438 210.28 62.7539C212.099 64.9785 213.483 67.9731 214.432 71.7378C215.38 75.5025 215.855 80.1227 215.855 85.5986L182.883 89.0638C183.121 91.4595 183.714 93.513 184.662 95.2242C185.69 96.8498 186.955 98.176 188.458 99.2028C189.96 100.229 191.581 100.957 193.32 101.385C195.06 101.812 196.839 102.026 198.657 102.026C201.662 102.026 204.548 101.556 207.315 100.615C210.083 99.6733 212.139 98.5183 213.483 97.1493L215.618 103.31C215.064 104.165 214.234 105.021 213.127 105.876C212.02 106.732 210.715 107.459 209.213 108.058C207.711 108.743 206.011 109.256 204.113 109.598C202.295 110.026 200.397 110.24 198.42 110.24C195.653 110.24 192.885 109.769 190.118 108.828C187.351 107.887 184.86 106.304 182.646 104.08C180.432 101.855 178.653 98.9033 177.309 95.2242C175.965 91.4595 175.293 86.7965 175.293 81.235ZM182.172 81.4917L208.264 78.4115C208.264 74.219 207.236 70.8822 205.181 68.4009C203.125 65.8341 199.804 64.5507 195.218 64.5507C193.004 64.6362 191.067 65.1496 189.406 66.0908C187.825 67.0319 186.481 68.2298 185.374 69.6843C184.267 71.0533 183.437 72.6362 182.883 74.4329C182.33 76.2297 182.053 78.0693 182.053 79.9516C182.053 80.6361 182.093 81.1495 182.172 81.4917Z" fill="#663399"/>
<path d="M223.208 81.235C223.208 76.5292 223.841 72.5934 225.106 69.4276C226.371 66.1763 227.952 63.6095 229.85 61.7272C231.827 59.7593 234.001 58.3903 236.373 57.6203C238.745 56.7647 241.038 56.3369 243.252 56.3369C246.415 56.3369 249.261 56.8502 251.791 57.877C254.321 58.8181 256.456 60.4438 258.196 62.7539C260.014 64.9785 261.398 67.9731 262.347 71.7378C263.296 75.5025 263.77 80.1227 263.77 85.5986L230.799 89.0638C231.036 91.4595 231.629 93.513 232.578 95.2242C233.606 96.8498 234.871 98.176 236.373 99.2028C237.875 100.229 239.496 100.957 241.236 101.385C242.975 101.812 244.754 102.026 246.573 102.026C249.577 102.026 252.463 101.556 255.231 100.615C257.998 99.6733 260.054 98.5183 261.398 97.1493L263.533 103.31C262.979 104.165 262.149 105.021 261.042 105.876C259.935 106.732 258.631 107.459 257.128 108.058C255.626 108.743 253.926 109.256 252.028 109.598C250.21 110.026 248.312 110.24 246.336 110.24C243.568 110.24 240.801 109.769 238.033 108.828C235.266 107.887 232.775 106.304 230.561 104.08C228.348 101.855 226.568 98.9033 225.224 95.2242C223.88 91.4595 223.208 86.7965 223.208 81.235ZM230.087 81.4917L256.18 78.4115C256.18 74.219 255.152 70.8822 253.096 68.4009C251.04 65.8341 247.719 64.5507 243.133 64.5507C240.919 64.6362 238.982 65.1496 237.322 66.0908C235.74 67.0319 234.396 68.2298 233.289 69.6843C232.182 71.0533 231.352 72.6362 230.799 74.4329C230.245 76.2297 229.968 78.0693 229.968 79.9516C229.968 80.6361 230.008 81.1495 230.087 81.4917Z" fill="#663399"/>
<path d="M164.564 125.808L163.734 129.658C163.418 129.487 162.983 129.316 162.429 129.145C161.915 128.931 161.322 128.738 160.65 128.567C160.018 128.396 159.326 128.268 158.575 128.182C157.863 128.054 157.191 127.99 156.558 127.99C155.372 127.99 154.344 128.182 153.475 128.567C152.644 128.952 152.229 129.637 152.229 130.621C152.229 131.348 152.585 131.968 153.297 132.482C154.008 132.995 154.839 133.444 155.787 133.829C156.776 134.171 157.744 134.449 158.693 134.663C159.682 134.877 160.452 135.048 161.006 135.177C162.192 135.562 163.141 136.075 163.852 136.717C164.604 137.316 165.177 137.979 165.572 138.706C166.007 139.391 166.304 140.118 166.462 140.888C166.62 141.658 166.699 142.407 166.699 143.134C166.699 144.674 166.363 145.979 165.691 147.048C165.058 148.075 164.228 148.931 163.2 149.615C162.212 150.257 161.085 150.727 159.82 151.027C158.594 151.326 157.369 151.476 156.143 151.476C154.246 151.476 152.427 151.198 150.688 150.642C148.988 150.086 147.643 149.337 146.655 148.396L148.078 144.032C148.553 144.46 149.106 144.866 149.739 145.252C150.411 145.594 151.142 145.915 151.933 146.214C152.724 146.471 153.554 146.685 154.424 146.856C155.293 146.984 156.143 147.048 156.973 147.048C158.397 147.048 159.662 146.749 160.769 146.15C161.876 145.551 162.548 144.503 162.785 143.006C162.785 142.749 162.745 142.428 162.666 142.043C162.627 141.615 162.488 141.209 162.251 140.824C162.054 140.439 161.718 140.075 161.243 139.733C160.808 139.391 160.176 139.155 159.346 139.027C157.725 138.77 156.222 138.428 154.839 138C153.494 137.572 152.328 137.038 151.34 136.396C150.352 135.754 149.561 134.984 148.968 134.086C148.414 133.145 148.138 132.054 148.138 130.813C148.138 128.417 148.869 126.685 150.332 125.615C151.794 124.546 153.949 124.011 156.796 124.011C158.298 124.011 159.741 124.182 161.125 124.524C162.548 124.867 163.694 125.294 164.564 125.808Z" fill="#663399"/>
<path d="M190.657 135.048V136.396C190.657 138.834 190.32 140.867 189.648 142.492C188.976 144.118 188.126 145.423 187.098 146.407C186.11 147.348 185.003 148.011 183.778 148.396C182.552 148.781 181.386 148.973 180.279 148.973C179.014 148.973 177.828 148.802 176.721 148.46C175.653 148.118 174.843 147.711 174.289 147.241L174.764 161.615L171.087 162V127.091L171.443 124.139C174.368 123.412 176.899 123.049 179.033 123.049C182.71 123.049 185.517 124.054 187.454 126.065C189.431 128.032 190.498 131.027 190.657 135.048ZM173.696 128.631L173.934 141.337C173.973 141.551 174.171 141.808 174.527 142.107C174.922 142.407 175.416 142.706 176.009 143.006C176.642 143.262 177.334 143.498 178.085 143.711C178.836 143.883 179.607 143.968 180.397 143.968C181.149 143.968 181.9 143.84 182.651 143.583C183.442 143.284 184.133 142.792 184.726 142.107C185.359 141.423 185.873 140.503 186.268 139.348C186.664 138.193 186.861 136.76 186.861 135.048C186.861 133.722 186.624 132.567 186.15 131.583C185.715 130.556 185.102 129.722 184.311 129.081C183.56 128.396 182.69 127.904 181.702 127.605C180.753 127.262 179.765 127.091 178.737 127.091C177.828 127.091 176.938 127.22 176.068 127.476C175.199 127.733 174.408 128.118 173.696 128.631Z" fill="#663399"/>
<path d="M215.207 131.327L219.002 148.781L215.444 150.193L213.31 139.284C213.033 140.481 212.598 141.722 212.005 143.006C211.451 144.289 210.74 145.465 209.87 146.535C209.04 147.562 208.032 148.417 206.846 149.102C205.699 149.743 204.395 150.064 202.932 150.064C200.323 150.064 198.326 149.166 196.942 147.369C195.598 145.53 194.926 143.006 194.926 139.797C194.926 137.957 195.183 136.054 195.697 134.086C196.211 132.075 196.982 130.257 198.01 128.631C199.038 127.006 200.323 125.658 201.864 124.589C203.446 123.519 205.284 122.984 207.379 122.984C208.605 122.984 209.672 123.284 210.582 123.883C211.531 124.439 212.321 125.145 212.954 126C213.586 126.856 214.08 127.776 214.436 128.76C214.792 129.701 215.049 130.556 215.207 131.327ZM207.972 127.605C207.696 127.519 207.419 127.455 207.142 127.412C206.905 127.369 206.648 127.348 206.371 127.348C205.146 127.348 204.039 127.754 203.05 128.567C202.102 129.337 201.291 130.321 200.619 131.519C199.987 132.717 199.492 134.022 199.137 135.433C198.82 136.845 198.662 138.15 198.662 139.348C198.662 141.23 199.038 142.749 199.789 143.904C200.54 145.059 201.726 145.637 203.347 145.637C204.454 145.637 205.482 145.252 206.431 144.481C207.379 143.669 208.19 142.663 208.862 141.465C209.534 140.268 210.048 138.963 210.404 137.551C210.799 136.097 210.997 134.749 210.997 133.508C210.997 132.139 210.74 130.941 210.226 129.915C209.751 128.845 209 128.075 207.972 127.605Z" fill="#663399"/>
<path d="M243.553 126.835L242.486 130.941C241.339 129.829 240.114 129.016 238.809 128.503C237.504 127.947 236.22 127.669 234.954 127.669C233.887 127.669 232.859 127.883 231.871 128.31C230.922 128.696 230.092 129.294 229.38 130.107C228.669 130.92 228.095 131.925 227.66 133.123C227.265 134.321 227.067 135.69 227.067 137.23C227.067 139.07 227.285 140.61 227.72 141.85C228.194 143.091 228.807 144.096 229.558 144.866C230.309 145.637 231.159 146.193 232.108 146.535C233.096 146.877 234.104 147.048 235.132 147.048C236.042 147.005 236.931 146.813 237.801 146.471C238.71 146.086 239.521 145.572 240.232 144.931C240.944 144.246 241.537 143.455 242.011 142.556C242.486 141.615 242.762 140.567 242.842 139.412L246.162 141.209C246.083 142.92 245.708 144.417 245.036 145.701C244.403 146.984 243.573 148.054 242.545 148.909C241.557 149.765 240.41 150.407 239.106 150.834C237.801 151.262 236.457 151.476 235.073 151.476C233.61 151.476 232.167 151.177 230.744 150.578C229.321 150.022 228.056 149.166 226.949 148.011C225.842 146.856 224.952 145.401 224.28 143.647C223.608 141.85 223.272 139.754 223.272 137.359C223.272 135.348 223.549 133.508 224.102 131.84C224.656 130.129 225.427 128.674 226.415 127.476C227.403 126.236 228.57 125.273 229.914 124.589C231.298 123.904 232.8 123.562 234.421 123.562C235.804 123.562 237.247 123.84 238.75 124.396C240.292 124.909 241.893 125.722 243.553 126.835Z" fill="#663399"/>
<path d="M249.483 137.102C249.483 134.749 249.8 132.781 250.432 131.198C251.065 129.573 251.855 128.289 252.804 127.348C253.792 126.364 254.88 125.68 256.066 125.294C257.252 124.867 258.398 124.653 259.505 124.653C261.087 124.653 262.51 124.909 263.775 125.423C265.04 125.893 266.107 126.706 266.977 127.861C267.886 128.974 268.578 130.471 269.053 132.353C269.527 134.236 269.764 136.546 269.764 139.284L253.279 141.016C253.397 142.214 253.694 143.241 254.168 144.096C254.682 144.909 255.315 145.572 256.066 146.086C256.817 146.599 257.627 146.963 258.497 147.177C259.367 147.391 260.256 147.497 261.166 147.497C262.668 147.497 264.111 147.262 265.495 146.792C266.878 146.321 267.906 145.743 268.578 145.059L269.646 148.139C269.369 148.567 268.954 148.995 268.4 149.423C267.847 149.85 267.195 150.214 266.443 150.513C265.692 150.856 264.842 151.112 263.893 151.284C262.984 151.497 262.035 151.604 261.047 151.604C259.663 151.604 258.28 151.369 256.896 150.899C255.512 150.428 254.267 149.636 253.16 148.524C252.053 147.412 251.163 145.936 250.491 144.096C249.819 142.214 249.483 139.883 249.483 137.102ZM252.923 137.23L265.969 135.69C265.969 133.594 265.455 131.925 264.427 130.685C263.399 129.401 261.739 128.76 259.446 128.76C258.339 128.802 257.37 129.059 256.54 129.53C255.749 130 255.077 130.599 254.524 131.327C253.97 132.011 253.555 132.802 253.279 133.701C253.002 134.599 252.863 135.519 252.863 136.46C252.863 136.802 252.883 137.059 252.923 137.23Z" fill="#663399"/>
<path d="M14.0102 15.29C15.1302 15.49 16.0802 16.08 16.8602 17.06C17.6402 18.04 18.0302 19.15 18.0302 20.39C18.0302 21.45 17.7502 22.41 17.1902 23.27C16.6502 24.11 15.8602 24.78 14.8202 25.28C13.7802 25.76 12.5702 26 11.1902 26H2.85015V5.15H10.8002C12.2202 5.15 13.4402 5.39 14.4602 5.87C15.4802 6.35 16.2502 7 16.7702 7.82C17.2902 8.62 17.5502 9.52 17.5502 10.52C17.5502 11.72 17.2302 12.72 16.5902 13.52C15.9502 14.32 15.0902 14.91 14.0102 15.29ZM6.27015 13.91H10.5002C11.6202 13.91 12.4902 13.66 13.1102 13.16C13.7502 12.64 14.0702 11.9 14.0702 10.94C14.0702 10 13.7502 9.27 13.1102 8.75C12.4902 8.21 11.6202 7.94 10.5002 7.94H6.27015V13.91ZM10.8902 23.21C12.0502 23.21 12.9602 22.93 13.6202 22.37C14.2802 21.81 14.6102 21.03 14.6102 20.03C14.6102 19.01 14.2602 18.2 13.5602 17.6C12.8602 17 11.9302 16.7 10.7702 16.7H6.27015V23.21H10.8902ZM36.8966 17.33C36.8966 17.95 36.8566 18.51 36.7766 19.01H24.1466C24.2466 20.33 24.7366 21.39 25.6166 22.19C26.4966 22.99 27.5766 23.39 28.8566 23.39C30.6966 23.39 31.9966 22.62 32.7566 21.08H36.4466C35.9466 22.6 35.0366 23.85 33.7166 24.83C32.4166 25.79 30.7966 26.27 28.8566 26.27C27.2766 26.27 25.8566 25.92 24.5966 25.22C23.3566 24.5 22.3766 23.5 21.6566 22.22C20.9566 20.92 20.6066 19.42 20.6066 17.72C20.6066 16.02 20.9466 14.53 21.6266 13.25C22.3266 11.95 23.2966 10.95 24.5366 10.25C25.7966 9.55 27.2366 9.2 28.8566 9.2C30.4166 9.2 31.8066 9.54 33.0266 10.22C34.2466 10.9 35.1966 11.86 35.8766 13.1C36.5566 14.32 36.8966 15.73 36.8966 17.33ZM33.3266 16.25C33.3066 14.99 32.8566 13.98 31.9766 13.22C31.0966 12.46 30.0066 12.08 28.7066 12.08C27.5266 12.08 26.5166 12.46 25.6766 13.22C24.8366 13.96 24.3366 14.97 24.1766 16.25H33.3266ZM60.2723 9.2C61.5723 9.2 62.7323 9.47 63.7523 10.01C64.7923 10.55 65.6023 11.35 66.1823 12.41C66.7823 13.47 67.0823 14.75 67.0823 16.25V26H63.6923V16.76C63.6923 15.28 63.3223 14.15 62.5823 13.37C61.8423 12.57 60.8323 12.17 59.5523 12.17C58.2723 12.17 57.2523 12.57 56.4923 13.37C55.7523 14.15 55.3823 15.28 55.3823 16.76V26H51.9923V16.76C51.9923 15.28 51.6223 14.15 50.8823 13.37C50.1423 12.57 49.1323 12.17 47.8523 12.17C46.5723 12.17 45.5523 12.57 44.7923 13.37C44.0523 14.15 43.6823 15.28 43.6823 16.76V26H40.2623V9.47H43.6823V11.36C44.2423 10.68 44.9523 10.15 45.8123 9.77C46.6723 9.39 47.5923 9.2 48.5723 9.2C49.8923 9.2 51.0723 9.48 52.1123 10.04C53.1523 10.6 53.9523 11.41 54.5123 12.47C55.0123 11.47 55.7923 10.68 56.8523 10.1C57.9123 9.5 59.0523 9.2 60.2723 9.2ZM85.6171 22.94L90.2971 9.47H93.9271L87.6271 26H83.5471L77.2771 9.47H80.9371L85.6171 22.94ZM98.2523 7.28C97.6323 7.28 97.1123 7.07 96.6923 6.65C96.2723 6.23 96.0623 5.71 96.0623 5.09C96.0623 4.47 96.2723 3.95 96.6923 3.53C97.1123 3.11 97.6323 2.9 98.2523 2.9C98.8523 2.9 99.3623 3.11 99.7823 3.53C100.202 3.95 100.412 4.47 100.412 5.09C100.412 5.71 100.202 6.23 99.7823 6.65C99.3623 7.07 98.8523 7.28 98.2523 7.28ZM99.9323 9.47V26H96.5123V9.47H99.9323ZM112.762 9.2C114.062 9.2 115.222 9.47 116.242 10.01C117.282 10.55 118.092 11.35 118.672 12.41C119.252 13.47 119.542 14.75 119.542 16.25V26H116.152V16.76C116.152 15.28 115.782 14.15 115.042 13.37C114.302 12.57 113.292 12.17 112.012 12.17C110.732 12.17 109.712 12.57 108.952 13.37C108.212 14.15 107.842 15.28 107.842 16.76V26H104.422V9.47H107.842V11.36C108.402 10.68 109.112 10.15 109.972 9.77C110.852 9.39 111.782 9.2 112.762 9.2ZM122.765 17.66C122.765 16 123.105 14.53 123.785 13.25C124.485 11.97 125.425 10.98 126.605 10.28C127.805 9.56 129.135 9.2 130.595 9.2C131.675 9.2 132.735 9.44 133.775 9.92C134.835 10.38 135.675 11 136.295 11.78V3.8H139.745V26H136.295V23.51C135.735 24.31 134.955 24.97 133.955 25.49C132.975 26.01 131.845 26.27 130.565 26.27C129.125 26.27 127.805 25.91 126.605 25.19C125.425 24.45 124.485 23.43 123.785 22.13C123.105 20.81 122.765 19.32 122.765 17.66ZM136.295 17.72C136.295 16.58 136.055 15.59 135.575 14.75C135.115 13.91 134.505 13.27 133.745 12.83C132.985 12.39 132.165 12.17 131.285 12.17C130.405 12.17 129.585 12.39 128.825 12.83C128.065 13.25 127.445 13.88 126.965 14.72C126.505 15.54 126.275 16.52 126.275 17.66C126.275 18.8 126.505 19.8 126.965 20.66C127.445 21.52 128.065 22.18 128.825 22.64C129.605 23.08 130.425 23.3 131.285 23.3C132.165 23.3 132.985 23.08 133.745 22.64C134.505 22.2 135.115 21.56 135.575 20.72C136.055 19.86 136.295 18.86 136.295 17.72ZM151.407 26.27C149.847 26.27 148.437 25.92 147.177 25.22C145.917 24.5 144.927 23.5 144.207 22.22C143.487 20.92 143.127 19.42 143.127 17.72C143.127 16.04 143.497 14.55 144.237 13.25C144.977 11.95 145.987 10.95 147.267 10.25C148.547 9.55 149.977 9.2 151.557 9.2C153.137 9.2 154.567 9.55 155.847 10.25C157.127 10.95 158.137 11.95 158.877 13.25C159.617 14.55 159.987 16.04 159.987 17.72C159.987 19.4 159.607 20.89 158.847 22.19C158.087 23.49 157.047 24.5 155.727 25.22C154.427 25.92 152.987 26.27 151.407 26.27ZM151.407 23.3C152.287 23.3 153.107 23.09 153.867 22.67C154.647 22.25 155.277 21.62 155.757 20.78C156.237 19.94 156.477 18.92 156.477 17.72C156.477 16.52 156.247 15.51 155.787 14.69C155.327 13.85 154.717 13.22 153.957 12.8C153.197 12.38 152.377 12.17 151.497 12.17C150.617 12.17 149.797 12.38 149.037 12.8C148.297 13.22 147.707 13.85 147.267 14.69C146.827 15.51 146.607 16.52 146.607 17.72C146.607 19.5 147.057 20.88 147.957 21.86C148.877 22.82 150.027 23.3 151.407 23.3ZM170.021 17.66C170.021 16 170.361 14.53 171.041 13.25C171.741 11.97 172.681 10.98 173.861 10.28C175.061 9.56 176.381 9.2 177.821 9.2C179.121 9.2 180.251 9.46 181.211 9.98C182.191 10.48 182.971 11.11 183.551 11.87V9.47H187.001V26H183.551V23.54C182.971 24.32 182.181 24.97 181.181 25.49C180.181 26.01 179.041 26.27 177.761 26.27C176.341 26.27 175.041 25.91 173.861 25.19C172.681 24.45 171.741 23.43 171.041 22.13C170.361 20.81 170.021 19.32 170.021 17.66ZM183.551 17.72C183.551 16.58 183.311 15.59 182.831 14.75C182.371 13.91 181.761 13.27 181.001 12.83C180.241 12.39 179.421 12.17 178.541 12.17C177.661 12.17 176.841 12.39 176.081 12.83C175.321 13.25 174.701 13.88 174.221 14.72C173.761 15.54 173.531 16.52 173.531 17.66C173.531 18.8 173.761 19.8 174.221 20.66C174.701 21.52 175.321 22.18 176.081 22.64C176.861 23.08 177.681 23.3 178.541 23.3C179.421 23.3 180.241 23.08 181.001 22.64C181.761 22.2 182.371 21.56 182.831 20.72C183.311 19.86 183.551 18.86 183.551 17.72Z" fill="#663399"/>
</svg>
